<svg xmlns="http://www.w3.org/2000/svg" xmlns:xlink="http://www.w3.org/1999/xlink" width="1000" zoomAndPan="magnify" viewBox="0 0 750 112.499997" height="150" preserveAspectRatio="xMidYMid meet" version="1.0"><defs><clipPath id="id1"><path d="M 1.660156 31.789062 L 748.339844 31.789062 L 748.339844 112.003906 L 1.660156 112.003906 Z M 1.660156 31.789062 " clip-rule="nonzero"/></clipPath><clipPath id="id2"><path d="M 543 38 L 573 38 L 573 69 L 543 69 Z M 543 38 " clip-rule="nonzero"/></clipPath><clipPath id="id3"><path d="M 549.441406 32.628906 L 579.097656 44.933594 L 566.792969 74.589844 L 537.136719 62.285156 Z M 549.441406 32.628906 " clip-rule="nonzero"/></clipPath><clipPath id="id4"><path d="M 549.441406 32.628906 L 579.097656 44.933594 L 566.792969 74.589844 L 537.136719 62.285156 Z M 549.441406 32.628906 " clip-rule="nonzero"/></clipPath><clipPath id="id5"><path d="M 616 104 L 651 104 L 651 112.003906 L 616 112.003906 Z M 616 104 " clip-rule="nonzero"/></clipPath><clipPath id="id6"><path d="M 616 104 L 652 104 L 652 112.003906 L 616 112.003906 Z M 616 104 " clip-rule="nonzero"/></clipPath><clipPath id="id7"><path d="M 616 104 L 651 104 L 651 112.003906 L 616 112.003906 Z M 616 104 " clip-rule="nonzero"/></clipPath><clipPath id="id8"><path d="M 636 108 L 639 108 L 639 112.003906 L 636 112.003906 Z M 636 108 " clip-rule="nonzero"/></clipPath><clipPath id="id9"><path d="M 574 64 L 634 64 L 634 112.003906 L 574 112.003906 Z M 574 64 " clip-rule="nonzero"/></clipPath><clipPath id="id10"><path d="M 574 64 L 635 64 L 635 112.003906 L 574 112.003906 Z M 574 64 " clip-rule="nonzero"/></clipPath><clipPath id="id11"><path d="M 617 82 L 620 82 L 620 112.003906 L 617 112.003906 Z M 617 82 " clip-rule="nonzero"/></clipPath><clipPath id="id12"><path d="M 620 104 L 625 104 L 625 112.003906 L 620 112.003906 Z M 620 104 " clip-rule="nonzero"/></clipPath><clipPath id="id13"><path d="M 586 96 L 602 96 L 602 112.003906 L 586 112.003906 Z M 586 96 " clip-rule="nonzero"/></clipPath><clipPath id="id14"><path d="M 534 76 L 554 76 L 554 96 L 534 96 Z M 534 76 " clip-rule="nonzero"/></clipPath><clipPath id="id15"><path d="M 530.753906 79.734375 L 550.433594 72.671875 L 557.496094 92.347656 L 537.816406 99.410156 Z M 530.753906 79.734375 " clip-rule="nonzero"/></clipPath><clipPath id="id16"><path d="M 530.753906 79.734375 L 550.433594 72.671875 L 557.496094 92.347656 L 537.816406 99.410156 Z M 530.753906 79.734375 " clip-rule="nonzero"/></clipPath></defs><g clip-path="url(#id1)"><path fill="#90caf9" d="M -3.332031 31.789062 L 755.21875 31.789062 L 755.21875 116.910156 L -3.332031 116.910156 L -3.332031 31.789062 " fill-opacity="1" fill-rule="nonzero"/></g><g clip-path="url(#id2)"><g clip-path="url(#id3)"><g clip-path="url(#id4)"><path fill="#ffffff" d="M 572.867188 59.566406 C 570.933594 58.769531 569.226562 57.632812 567.75 56.152344 C 566.273438 54.675781 565.136719 52.96875 564.34375 51.035156 C 563.539062 49.105469 563.136719 47.09375 563.140625 45.003906 C 563.140625 42.910156 563.542969 40.902344 564.351562 38.972656 C 564.386719 38.882812 564.363281 38.816406 564.269531 38.78125 C 564.179688 38.742188 564.113281 38.769531 564.078125 38.859375 C 563.28125 40.792969 562.144531 42.5 560.664062 43.976562 C 559.183594 45.453125 557.480469 46.589844 555.542969 47.382812 C 553.613281 48.1875 551.605469 48.589844 549.511719 48.585938 C 547.421875 48.585938 545.414062 48.183594 543.484375 47.375 C 543.394531 47.335938 543.328125 47.363281 543.289062 47.457031 C 543.253906 47.546875 543.277344 47.609375 543.371094 47.648438 C 545.304688 48.445312 547.007812 49.582031 548.488281 51.0625 C 549.964844 52.539062 551.101562 54.246094 551.894531 56.183594 C 552.699219 58.113281 553.097656 60.121094 553.097656 62.210938 C 553.097656 64.304688 552.691406 66.3125 551.886719 68.242188 C 551.847656 68.332031 551.875 68.398438 551.964844 68.4375 C 552.058594 68.472656 552.121094 68.445312 552.160156 68.355469 C 555.488281 60.332031 564.726562 56.511719 572.753906 59.839844 C 572.84375 59.878906 572.910156 59.851562 572.945312 59.761719 C 572.984375 59.667969 572.957031 59.605469 572.867188 59.566406 Z M 552.863281 66.277344 C 553.308594 64.582031 553.476562 62.863281 553.355469 61.113281 C 553.238281 59.367188 552.839844 57.683594 552.167969 56.066406 C 551.503906 54.449219 550.59375 52.980469 549.445312 51.65625 C 548.296875 50.335938 546.96875 49.234375 545.457031 48.355469 C 547.148438 48.800781 548.867188 48.964844 550.613281 48.847656 C 552.359375 48.726562 554.042969 48.328125 555.65625 47.65625 C 557.277344 46.992188 558.746094 46.085938 560.066406 44.9375 C 561.390625 43.785156 562.492188 42.457031 563.371094 40.945312 C 562.925781 42.636719 562.761719 44.355469 562.878906 46.101562 C 563 47.847656 563.394531 49.53125 564.070312 51.144531 C 564.734375 52.765625 565.640625 54.238281 566.792969 55.558594 C 567.941406 56.878906 569.273438 57.980469 570.785156 58.863281 C 563.851562 57.042969 556.484375 60.089844 552.863281 66.277344 Z M 552.863281 66.277344 " fill-opacity="1" fill-rule="nonzero"/></g></g></g><path stroke-linecap="round" transform="matrix(0.304646, 0, 0, 0.304646, 557.707848, -20.20624)" fill-opacity="1" fill="#ffffff" fill-rule="nonzero" stroke-linejoin="round" d="M 377.715407 239.05559 C 377.715407 239.05559 389.293906 244.056271 390.79411 261.212453 C 392.307137 278.368635 400.885228 354.904695 401.385296 363.982854 C 401.885364 373.048191 375.68949 379.087475 367.124221 374.561218 C 358.571775 370.03496 348.49348 309.56519 347.480521 306.564781 C 346.467563 303.564373 343.9544 274.816869 352.481202 258.199222 C 361.008004 241.581575 363.457055 240.004437 368.996271 240.004437 " stroke="#263238" stroke-width="1" stroke-opacity="1" stroke-miterlimit="4"/><path fill="#263238" d="M 668.164062 70.335938 L 665.453125 82.269531 L 663.429688 75.027344 Z M 668.164062 70.335938 " fill-opacity="1" fill-rule="nonzero"/><path stroke-linecap="round" transform="matrix(0.304646, 0, 0, 0.304646, 557.707848, -20.20624)" fill-opacity="1" fill="#ffffff" fill-rule="nonzero" stroke-linejoin="round" d="M 228.669474 191.997902 C 228.669474 191.997902 213.334053 191.331144 207.333236 194.664932 C 201.332419 198.011541 137.323705 293.33221 137.323705 293.33221 L 175.328879 303.333572 L 222.0019 266.674735 " stroke="#263238" stroke-width="1" stroke-opacity="1" stroke-miterlimit="4"/><g clip-path="url(#id5)"><path fill="#fec56b" d="M 651 121.757812 L 650.015625 105.460938 C 650.015625 105.460938 643.160156 106.070312 634.632812 105.917969 C 626.101562 105.765625 617.113281 104.242188 617.113281 104.242188 L 616.828125 121.757812 Z M 651 121.757812 " fill-opacity="1" fill-rule="nonzero"/></g><g clip-path="url(#id6)"><path stroke-linecap="round" transform="matrix(0.304646, 0, 0, 0.304646, 557.707848, -20.20624)" fill="none" stroke-linejoin="round" d="M 306.231316 465.996742 L 303.000107 412.50228 C 303.000107 412.50228 280.497043 414.502553 252.506053 414.002484 C 224.50224 413.502416 194.998224 408.501736 194.998224 408.501736 L 194.062199 465.996742 Z M 306.231316 465.996742 " stroke="#263238" stroke-width="1" stroke-opacity="1" stroke-miterlimit="4"/></g><path fill="#263238" d="M 650.015625 105.460938 C 650.015625 105.460938 643.160156 106.070312 634.632812 105.917969 C 626.101562 105.765625 617.113281 104.242188 617.113281 104.242188 L 617.070312 106.824219 C 619.203125 107.910156 627.019531 111.597656 635.847656 111.859375 C 643.109375 112.070312 647.972656 110.191406 650.230469 109.046875 Z M 650.015625 105.460938 " fill-opacity="1" fill-rule="nonzero"/><g clip-path="url(#id7)"><path stroke-linecap="round" transform="matrix(0.304646, 0, 0, 0.304646, 557.707848, -20.20624)" fill="none" stroke-linejoin="round" d="M 303.000107 412.50228 C 303.000107 412.50228 280.497043 414.502553 252.506053 414.002484 C 224.50224 413.502416 194.998224 408.501736 194.998224 408.501736 L 194.857179 416.977248 C 201.858132 420.541836 227.515471 432.646048 256.493775 433.50514 C 280.330354 434.197542 296.294065 428.030035 303.705331 424.273114 Z M 303.000107 412.50228 " stroke="#263238" stroke-width="1" stroke-opacity="1" stroke-miterlimit="4"/></g><g clip-path="url(#id8)"><path stroke-linecap="round" transform="matrix(0.304646, 0, 0, 0.304646, 557.707848, -20.20624)" fill-opacity="1" fill="#fec56b" fill-rule="nonzero" stroke-linejoin="round" d="M 260.930277 438.518643 L 259.545473 423.965379 L 265.77709 423.965379 L 265.084688 438.518643 " stroke="#263238" stroke-width="1" stroke-opacity="1" stroke-miterlimit="4"/></g><path stroke-linecap="round" transform="matrix(0.304646, 0, 0, 0.304646, 557.707848, -20.20624)" fill-opacity="1" fill="#fec56b" fill-rule="nonzero" stroke-linejoin="round" d="M 293.511635 429.504595 L 292.126831 414.951332 L 298.358449 414.951332 L 297.666047 429.504595 " stroke="#263238" stroke-width="1" stroke-opacity="1" stroke-miterlimit="4"/><path stroke-linecap="round" transform="matrix(0.304646, 0, 0, 0.304646, 557.707848, -20.20624)" fill-opacity="1" fill="#ffffff" fill-rule="nonzero" stroke-linejoin="round" d="M 366.649798 292.716742 C 366.649798 291.267827 349.737239 316.873877 349.737239 316.873877 C 349.737239 316.873877 318.34835 372.407078 317.373858 374.343239 C 316.412189 376.266578 302.897529 415.874534 302.897529 415.874534 C 302.897529 415.874534 299.409874 421.875351 281.651046 425.055271 C 241.517377 432.274203 203.409625 418.772365 200.293817 413.374194 C 197.19083 407.976023 211.615871 293.691234 211.615871 293.691234 C 211.615871 293.691234 216.449862 196.126669 220.309362 195.165 C 224.168862 194.190508 278.753216 200.486237 278.753216 200.486237 C 278.753216 200.486237 336.222578 218.347643 347.326654 224.143304 C 358.443552 229.926142 386.93461 242.979201 386.93461 250.698201 " stroke="#263238" stroke-width="1" stroke-opacity="1" stroke-miterlimit="4"/><path stroke-linecap="round" transform="matrix(0.304646, 0, 0, 0.304646, 557.707848, -20.20624)" fill-opacity="1" fill="#969696" fill-rule="nonzero" stroke-linejoin="round" d="M 286.485038 277.753166 L 282.12547 375.753688 L 261.366233 371.881366 L 279.714885 273.355132 C 282.612716 273.829555 284.869433 275.291293 286.485038 277.753166 Z M 286.485038 277.753166 " stroke="#263238" stroke-width="1" stroke-opacity="1" stroke-miterlimit="4"/><path stroke-linecap="round" transform="matrix(0.304646, 0, 0, 0.304646, 557.707848, -20.20624)" fill-opacity="1" fill="#969696" fill-rule="nonzero" stroke-linejoin="round" d="M 261.853479 198.06283 C 261.853479 198.06283 259.430072 224.143304 264.738487 242.979201 C 270.046902 261.815099 273.739713 268.059539 273.739713 268.059539 C 273.739713 268.059539 279.676419 266.059267 282.574249 269.444343 C 284.305254 271.483082 286.267059 273.29102 288.446843 274.855336 C 288.446843 274.855336 302.44875 274.36809 320.810224 259.404515 C 339.171698 244.428117 347.365121 224.143304 347.365121 224.143304 C 347.365121 224.143304 375.368933 235.734625 381.164594 241.04304 C 386.973077 246.351455 384.54967 252.634362 377.79234 260.366184 C 371.03501 268.085183 349.301282 286.433835 323.220808 291.267827 C 297.140335 296.101818 274.444937 284.510497 274.444937 284.510497 C 274.444937 284.510497 244.504964 277.265921 230.977481 245.389786 C 217.462821 213.513652 224.694574 192.754415 224.694574 192.754415 C 224.694574 192.754415 248.325997 193.716085 261.853479 198.06283 Z M 261.853479 198.06283 " stroke="#263238" stroke-width="1" stroke-opacity="1" stroke-miterlimit="4"/><path stroke-linecap="round" transform="matrix(0.304646, 0, 0, 0.304646, 557.707848, -20.20624)" fill="none" stroke-linejoin="round" d="M 284.997656 280.163751 C 292.408921 281.728066 299.858653 281.9204 307.346852 280.753575 C 314.835051 279.586749 321.874471 277.137698 328.465112 273.393598 " stroke="#263238" stroke-width="1" stroke-opacity="1" stroke-miterlimit="4"/><path stroke-linecap="round" transform="matrix(0.304646, 0, 0, 0.304646, 557.707848, -20.20624)" fill="none" stroke-linejoin="round" d="M 283.099962 283.061581 C 288.703288 285.369588 294.537416 286.651814 300.602344 286.895437 C 306.65445 287.151882 312.578334 286.356902 318.34835 284.510497 " stroke="#263238" stroke-width="1" stroke-opacity="1" stroke-miterlimit="4"/><path stroke-linecap="round" transform="matrix(0.304646, 0, 0, 0.304646, 557.707848, -20.20624)" fill="none" stroke-linejoin="round" d="M 275.36814 272.444751 C 275.36814 272.444751 260.366097 262.289523 252.672742 236.696295 " stroke="#263238" stroke-width="1" stroke-opacity="1" stroke-miterlimit="4"/><path stroke-linecap="round" transform="matrix(0.304646, 0, 0, 0.304646, 557.707848, -20.20624)" fill="none" stroke-linejoin="round" d="M 240.594175 241.530286 C 244.274163 249.621131 249.274844 256.788774 255.596217 263.033214 C 261.930413 269.277654 269.162167 274.175756 277.304301 277.753166 " stroke="#263238" stroke-width="1" stroke-opacity="1" stroke-miterlimit="4"/><path stroke-linecap="round" transform="matrix(0.304646, 0, 0, 0.304646, 557.707848, -20.20624)" fill-opacity="1" fill="#969696" fill-rule="nonzero" stroke-linejoin="round" d="M 271.854841 272.714019 L 252.185496 358.892418 L 275.36814 366.124171 L 288.36991 274.855336 C 288.36991 274.855336 275.714341 257.724799 271.854841 272.714019 Z M 271.854841 272.714019 " stroke="#263238" stroke-width="1" stroke-opacity="1" stroke-miterlimit="4"/><path stroke-linecap="round" transform="matrix(0.304646, 0, 0, 0.304646, 557.707848, -20.20624)" fill-opacity="1" fill="#bdbdbd" fill-rule="nonzero" stroke-linejoin="round" d="M 300.999834 124.001465 C 300.999834 124.001465 292.793589 129.925349 288.677644 138.606018 C 284.574521 147.273864 275.906675 171.418177 273.624313 185.997085 C 271.354773 200.575993 271.354773 217.488552 273.624313 227.52838 C 275.906675 237.568208 282.753761 243.056135 288.228865 243.953693 L 293.703969 244.864073 C 293.703969 244.864073 300.102276 250.800779 313.334847 246.236055 C 326.58024 241.684153 334.337706 234.375466 336.158467 230.721122 C 337.530449 227.746358 338.748563 224.707483 339.812811 221.604497 C 340.723191 219.309312 342.543952 212.013447 342.543952 212.013447 C 342.543952 212.013447 352.545313 212.013447 356.238124 205.61514 C 359.930934 199.229656 362.174829 193.754551 361.238804 190.561809 C 360.315602 187.356244 358.494841 186.907465 358.494841 186.907465 C 358.494841 186.907465 369.496339 170.020551 369.496339 152.223256 C 369.496339 134.425962 347.13432 119.821409 331.619387 116.628667 C 316.104455 113.435924 300.999834 124.001465 300.999834 124.001465 Z M 300.999834 124.001465 " stroke="#263238" stroke-width="1" stroke-opacity="1" stroke-miterlimit="4"/><path stroke-linecap="round" transform="matrix(0.304646, 0, 0, 0.304646, 557.707848, -20.20624)" fill="none" stroke-linejoin="round" d="M 293.703969 244.90254 C 293.703969 244.90254 310.603706 247.184902 330.709007 229.836387 " stroke="#263238" stroke-width="1" stroke-opacity="1" stroke-miterlimit="4"/><path stroke-linecap="round" transform="matrix(0.304646, 0, 0, 0.304646, 557.707848, -20.20624)" fill="none" stroke-linejoin="round" d="M 284.125742 198.806521 C 283.894942 200.140036 283.984697 201.447906 284.39501 202.730132 C 284.7925 204.02518 285.459257 205.153539 286.408104 206.115208 C 289.600847 209.295129 296.409466 210.218331 300.102276 207.935969 " stroke="#263238" stroke-width="1" stroke-opacity="1" stroke-miterlimit="4"/><path stroke-linecap="round" transform="matrix(0.304646, 0, 0, 0.304646, 557.707848, -20.20624)" fill="none" stroke-linejoin="round" d="M 280.484221 210.66711 C 280.484221 210.66711 287.318485 225.284485 307.859743 218.886178 " stroke="#263238" stroke-width="1" stroke-opacity="1" stroke-miterlimit="4"/><path stroke-linecap="round" transform="matrix(0.304646, 0, 0, 0.304646, 557.707848, -20.20624)" fill="none" stroke-linejoin="round" d="M 282.997383 214.565077 C 282.997383 214.565077 283.189717 222.07892 288.664822 223.912503 C 294.152748 225.746086 299.204718 220.835161 299.204718 220.835161 C 299.204718 220.835161 288.626355 221.05314 282.997383 214.565077 Z M 282.997383 214.565077 " stroke="#263238" stroke-width="1" stroke-opacity="1" stroke-miterlimit="4"/><path stroke-linecap="round" transform="matrix(0.304646, 0, 0, 0.304646, 557.707848, -20.20624)" fill="none" stroke-linejoin="round" d="M 282.80505 224.06637 C 282.80505 224.06637 285.600302 229.644053 294.255326 227.964337 " stroke="#263238" stroke-width="1" stroke-opacity="1" stroke-miterlimit="4"/><path stroke-linecap="round" transform="matrix(0.304646, 0, 0, 0.304646, 557.707848, -20.20624)" fill="none" stroke-linejoin="round" d="M 311.744887 181.098982 C 313.142513 181.047693 314.514495 181.188738 315.873654 181.522117 C 317.232814 181.868318 318.515039 182.39403 319.720332 183.099255 C 320.925624 183.804479 322.002694 184.676392 322.964363 185.689351 C 323.91321 186.715131 324.70819 187.856312 325.336481 189.100071 " stroke="#263238" stroke-width="2" stroke-opacity="1" stroke-miterlimit="4"/><path stroke-linecap="round" transform="matrix(0.304646, 0, 0, 0.304646, 557.707848, -20.20624)" fill="none" stroke-linejoin="round" d="M 295.114418 174.623742 C 295.114418 174.623742 293.396235 165.776383 283.241006 167.494566 " stroke="#263238" stroke-width="2" stroke-opacity="1" stroke-miterlimit="4"/><path stroke-linecap="round" transform="matrix(0.304646, 0, 0, 0.304646, 557.707848, -20.20624)" fill="none" stroke-linejoin="round" d="M 313.475892 202.255709 C 313.475892 202.255709 319.297197 201.396617 322.964363 203.127622 " stroke="#263238" stroke-width="1" stroke-opacity="1" stroke-miterlimit="4"/><path fill="#263238" d="M 645.222656 35.882812 C 645.066406 36.492188 644.652344 36.925781 644.308594 36.839844 C 643.964844 36.75 643.796875 36.175781 643.957031 35.558594 C 644.113281 34.945312 644.527344 34.515625 644.871094 34.605469 C 645.214844 34.695312 645.382812 35.265625 645.222656 35.882812 Z M 645.222656 35.882812 " fill-opacity="1" fill-rule="nonzero"/><path fill="#263238" d="M 653.0625 39.699219 C 652.902344 40.308594 652.492188 40.742188 652.148438 40.652344 C 651.804688 40.566406 651.636719 39.992188 651.792969 39.375 C 651.945312 38.761719 652.363281 38.332031 652.707031 38.417969 C 653.050781 38.507812 653.207031 39.082031 653.0625 39.699219 Z M 653.0625 39.699219 " fill-opacity="1" fill-rule="nonzero"/><path fill="#263238" d="M 658.726562 15.332031 C 653.996094 14.359375 649.40625 17.570312 649.40625 17.570312 C 649.40625 17.570312 646.90625 19.375 645.652344 22.019531 C 645.292969 22.777344 644.820312 23.921875 644.3125 25.273438 L 646.140625 23.066406 C 648.519531 25.699219 651.398438 27.558594 654.773438 28.648438 C 660.359375 30.476562 662.285156 30.476562 662.285156 30.476562 C 662.285156 30.476562 659.140625 34.238281 660.457031 35.960938 C 661.777344 37.6875 663.101562 38.09375 663.101562 38.09375 C 663.101562 38.09375 662.1875 39.417969 662.894531 39.617188 C 663.605469 39.816406 664.828125 37.484375 665.636719 37.078125 C 666.449219 36.675781 666.914062 36.757812 666.914062 36.757812 C 666.914062 36.757812 670.265625 31.609375 670.265625 26.1875 C 670.265625 20.765625 663.453125 16.304688 658.726562 15.332031 Z M 658.726562 15.332031 " fill-opacity="1" fill-rule="nonzero"/><path stroke-linecap="round" transform="matrix(0.304646, 0, 0, 0.304646, 557.707848, -20.20624)" fill-opacity="1" fill="#bdbdbd" fill-rule="nonzero" stroke-linejoin="round" d="M 66.403794 315.206983 C 60.672244 313.963224 54.838117 313.450334 49.003989 312.74511 C 48.260298 312.604065 47.516607 312.629709 46.785739 312.834865 C 40.425898 315.168516 51.850531 320.553865 52.953245 320.977 C 59.364374 323.554273 62.877673 322.272048 62.877673 322.272048 L 68.660511 315.848096 Z M 66.403794 315.206983 " stroke="#263238" stroke-width="1" stroke-opacity="1" stroke-miterlimit="4"/><g clip-path="url(#id9)"><path fill="#fec56b" d="M 587.796875 121.757812 L 630.605469 121.757812 C 630.785156 118.710938 631.378906 108.546875 631.378906 105.175781 C 631.378906 101.1875 634.402344 77.679688 633.714844 73.003906 C 633.027344 68.328125 629.449219 65.996094 624.640625 65.996094 C 619.835938 65.996094 613.777344 64.898438 611.847656 64.757812 C 609.914062 64.617188 593.835938 67.5 593.835938 67.5 C 593.835938 67.5 587.097656 71.347656 584.085938 72.859375 C 581.078125 74.371094 576.9375 74.511719 575.285156 80.558594 C 573.632812 86.605469 579.273438 99.394531 581.886719 105.167969 C 584.066406 110 586.917969 118.945312 587.796875 121.757812 Z M 587.796875 121.757812 " fill-opacity="1" fill-rule="nonzero"/><path fill="#ffffff" d="M 587.796875 121.757812 L 630.605469 121.757812 C 630.785156 118.710938 631.378906 108.546875 631.378906 105.175781 C 631.378906 101.1875 634.402344 77.679688 633.714844 73.003906 C 633.027344 68.328125 629.449219 65.996094 624.640625 65.996094 C 619.835938 65.996094 613.777344 64.898438 611.847656 64.757812 C 609.914062 64.617188 593.835938 67.5 593.835938 67.5 C 593.835938 67.5 587.097656 71.347656 584.085938 72.859375 C 581.078125 74.371094 576.9375 74.511719 575.285156 80.558594 C 573.632812 86.605469 579.273438 99.394531 581.886719 105.167969 C 584.066406 110 586.917969 118.945312 587.796875 121.757812 Z M 587.796875 121.757812 " fill-opacity="0.4" fill-rule="nonzero"/></g><g clip-path="url(#id10)"><path stroke-linecap="round" transform="matrix(0.304646, 0, 0, 0.304646, 557.707848, -20.20624)" fill="none" stroke-linejoin="round" d="M 98.767174 465.996742 C 90.817374 444.622038 84.996069 421.003438 73.994571 401.000714 C 72.994435 399.000442 73.994571 398.000306 72.994435 396.000034 C 64.006032 376.997447 56.004942 356.994723 57.005079 336.004686 C 58.005215 326.003325 63.005895 315.001827 72.994435 311.001282 C 87.996477 305.000466 102.99852 297.999512 116.00029 288.998287 C 134.00274 283.997606 152.005191 281.997334 169.99482 278.996925 C 183.996726 277.996789 196.998496 280.997198 210.000266 282.99747 L 225.002309 282.99747 C 238.004079 284.997742 249.005576 293.998968 250.005713 307.000738 C 251.005849 325.003189 248.00544 342.005503 246.005168 359.995132 L 246.005168 369.996494 C 240.004351 402.000851 242.004623 434.543743 239.427349 465.996742 " stroke="#263238" stroke-width="1" stroke-opacity="1" stroke-miterlimit="4"/></g><g clip-path="url(#id11)"><path stroke-linecap="round" transform="matrix(0.304646, 0, 0, 0.304646, 557.707848, -20.20624)" fill="none" stroke-linejoin="round" d="M 197.575498 463.329713 C 198.998768 451.994836 195.99836 442.006297 195.99836 432.004935 C 195.99836 427.004255 198.998768 421.003438 198.998768 416.002757 C 199.998905 405.001259 195.99836 394.999897 196.998496 383.9984 C 198.998768 367.996221 200.999041 352.994179 201.204197 338.453738 " stroke="#263238" stroke-width="1" stroke-opacity="1" stroke-miterlimit="4"/></g><path stroke-linecap="round" transform="matrix(0.304646, 0, 0, 0.304646, 557.707848, -20.20624)" fill="none" stroke-linejoin="round" d="M 205.256031 411.566255 C 205.256031 411.566255 212.026183 402.56503 217.898777 392.614957 " stroke="#263238" stroke-width="1" stroke-opacity="1" stroke-miterlimit="4"/><g clip-path="url(#id12)"><path stroke-linecap="round" transform="matrix(0.304646, 0, 0, 0.304646, 557.707848, -20.20624)" fill="none" stroke-linejoin="round" d="M 219.245115 409.758317 C 219.245115 409.758317 216.103661 418.336408 208.423128 433.684651 C 207.474281 435.595168 206.628012 437.403106 205.897143 439.095644 " stroke="#263238" stroke-width="1" stroke-opacity="1" stroke-miterlimit="4"/></g><path stroke-linecap="round" transform="matrix(0.304646, 0, 0, 0.304646, 557.707848, -20.20624)" fill="none" stroke-linejoin="round" d="M 195.459825 360.854223 C 195.20338 366.675529 194.882823 370.060605 194.882823 371.39412 " stroke="#263238" stroke-width="1" stroke-opacity="1" stroke-miterlimit="4"/><path stroke-linecap="round" transform="matrix(0.304646, 0, 0, 0.304646, 557.707848, -20.20624)" fill="none" stroke-linejoin="round" d="M 202.563356 315.437784 C 202.563356 315.437784 195.793204 329.43969 195.793204 345.22389 C 195.793204 347.60883 195.767559 349.814259 195.729093 351.86582 " stroke="#263238" stroke-width="1" stroke-opacity="1" stroke-miterlimit="4"/><path stroke-linecap="round" transform="matrix(0.304646, 0, 0, 0.304646, 557.707848, -20.20624)" fill="none" stroke-linejoin="round" d="M 185.561042 314.437648 C 185.407175 317.373945 185.343063 320.438465 185.407175 323.554273 " stroke="#263238" stroke-width="1" stroke-opacity="1" stroke-miterlimit="4"/><path stroke-linecap="round" transform="matrix(0.304646, 0, 0, 0.304646, 557.707848, -20.20624)" fill="none" stroke-linejoin="round" d="M 190.818168 283.39496 C 188.869184 289.947134 187.458736 296.614708 186.599645 303.397683 " stroke="#263238" stroke-width="1" stroke-opacity="1" stroke-miterlimit="4"/><path stroke-linecap="round" transform="matrix(0.304646, 0, 0, 0.304646, 557.707848, -20.20624)" fill="none" stroke-linejoin="round" d="M 179.457647 337.27409 C 179.598691 339.274362 179.778203 341.274635 179.996181 343.415952 " stroke="#263238" stroke-width="1" stroke-opacity="1" stroke-miterlimit="4"/><path stroke-linecap="round" transform="matrix(0.304646, 0, 0, 0.304646, 557.707848, -20.20624)" fill="none" stroke-linejoin="round" d="M 180.44496 301.897479 C 180.44496 301.897479 178.239532 311.975774 179.085801 331.068117 " stroke="#263238" stroke-width="1" stroke-opacity="1" stroke-miterlimit="4"/><path stroke-linecap="round" transform="matrix(0.304646, 0, 0, 0.304646, 557.707848, -20.20624)" fill="none" stroke-linejoin="round" d="M 155.082533 384.177911 C 155.505668 386.742363 155.890336 389.370926 156.249359 392.0636 " stroke="#263238" stroke-width="1" stroke-opacity="1" stroke-miterlimit="4"/><path stroke-linecap="round" transform="matrix(0.304646, 0, 0, 0.304646, 557.707848, -20.20624)" fill="none" stroke-linejoin="round" d="M 140.311292 331.760519 C 140.311292 331.760519 148.504715 349.185968 153.890063 377.433403 " stroke="#263238" stroke-width="1" stroke-opacity="1" stroke-miterlimit="4"/><path stroke-linecap="round" transform="matrix(0.304646, 0, 0, 0.304646, 557.707848, -20.20624)" fill="none" stroke-linejoin="round" d="M 101.63936 405.642372 C 102.216362 405.962928 102.767719 406.296307 103.331898 406.642508 " stroke="#263238" stroke-width="1" stroke-opacity="1" stroke-miterlimit="4"/><path stroke-linecap="round" transform="matrix(0.304646, 0, 0, 0.304646, 557.707848, -20.20624)" fill="none" stroke-linejoin="round" d="M 76.994979 401.000714 C 84.701157 400.051867 92.073955 401.167404 99.151842 404.347324 " stroke="#263238" stroke-width="1" stroke-opacity="1" stroke-miterlimit="4"/><path stroke-linecap="round" transform="matrix(0.304646, 0, 0, 0.304646, 557.707848, -20.20624)" fill="none" stroke-linejoin="round" d="M 96.330945 396.000034 C 96.330945 396.000034 103.331898 398.000306 106.999064 401.667472 " stroke="#263238" stroke-width="1" stroke-opacity="1" stroke-miterlimit="4"/><path fill="#fec56b" d="M 595.484375 58.980469 C 595.484375 58.980469 593.960938 59.667969 593.835938 60.769531 C 593.710938 61.867188 594.109375 61.59375 593.5625 63.511719 C 593.011719 65.425781 592.183594 68.460938 592.875 69.699219 C 593.5625 70.933594 598.507812 73.410156 603.324219 72.585938 C 608.136719 71.761719 611.15625 68.460938 611.433594 66.671875 C 611.597656 65.714844 611.644531 64.753906 611.570312 63.789062 L 611.433594 62.410156 C 611.433594 62.410156 605.949219 62.410156 603.046875 61.175781 C 600.140625 59.9375 595.484375 58.980469 595.484375 58.980469 Z M 595.484375 58.980469 " fill-opacity="1" fill-rule="nonzero"/><path stroke-linecap="round" transform="matrix(0.304646, 0, 0, 0.304646, 557.707848, -20.20624)" fill-opacity="0.4" fill="#ffffff" fill-rule="nonzero" stroke-linejoin="round" d="M 124.001379 259.930227 C 124.001379 259.930227 119.000698 262.186945 118.590386 265.802821 C 118.180074 269.405876 119.487944 268.508318 117.692828 274.804047 C 115.884889 281.086954 113.16657 291.049848 115.43611 295.114504 C 117.692828 299.166338 133.925807 307.29565 149.735652 304.590153 C 165.532674 301.884657 175.44428 291.049848 176.35466 285.177254 C 176.893195 282.035801 177.047062 278.881525 176.803439 275.714427 L 176.35466 271.18817 C 176.35466 271.18817 158.352209 271.18817 148.825271 267.136336 C 139.285511 263.07168 124.001379 259.930227 124.001379 259.930227 Z M 124.001379 259.930227 " stroke="#263238" stroke-width="1" stroke-opacity="1" stroke-miterlimit="4"/><path stroke-linecap="round" transform="matrix(0.304646, 0, 0, 0.304646, 557.707848, -20.20624)" fill-opacity="1" fill="#bdbdbd" fill-rule="nonzero" stroke-linejoin="round" d="M 126.283741 235.555114 C 126.283741 235.555114 124.475802 252.711296 124.027023 259.930227 C 123.578244 267.149159 123.578244 269.854655 123.578244 269.854655 C 123.578244 269.854655 125.386183 276.176029 138.016107 277.983967 C 146.042841 279.035392 154.018286 278.74048 161.942442 277.073587 C 161.942442 277.073587 159.224123 275.72725 151.107633 264.905263 C 142.991144 254.070455 126.283741 235.555114 126.283741 235.555114 Z M 126.283741 235.555114 " stroke="#263238" stroke-width="1" stroke-opacity="1" stroke-miterlimit="4"/><path stroke-linecap="round" transform="matrix(0.304646, 0, 0, 0.304646, 557.707848, -20.20624)" fill-opacity="1" fill="#263238" fill-rule="nonzero" stroke-linejoin="round" d="M 151.107633 264.905263 C 143.875879 255.237281 129.822684 239.491547 126.860742 236.196227 C 126.488897 236.721939 126.21963 237.311763 126.040118 237.940054 C 125.976007 238.645278 125.886251 239.465903 125.783673 240.376283 L 140.375403 278.266057 C 147.619979 278.971281 154.813266 278.573791 161.942442 277.073587 C 161.942442 277.073587 159.224123 275.72725 151.107633 264.905263 Z M 151.107633 264.905263 " stroke="#263238" stroke-width="1" stroke-opacity="1" stroke-miterlimit="4"/><path stroke-linecap="round" transform="matrix(0.304646, 0, 0, 0.304646, 557.707848, -20.20624)" fill-opacity="1" fill="#263238" fill-rule="nonzero" stroke-linejoin="round" d="M 180.44496 154.774886 C 180.44496 154.774886 183.599236 149.774205 179.085801 143.9529 C 174.585188 138.118772 166.904656 136.285189 166.904656 136.285189 C 166.904656 136.285189 166.904656 128.155877 161.493663 125.89916 C 156.069847 123.642442 150.210075 125.89916 148.850916 129.066257 C 147.491756 132.220533 146.145419 135.83641 142.080763 135.83641 C 138.016107 135.83641 131.245955 127.245497 123.578244 131.310153 C 115.910534 135.374809 120.872748 138.541906 119.97519 142.144961 C 119.064809 145.760838 110.037939 139.888244 105.524504 147.145642 C 101.023892 154.415862 105.986106 154.826175 105.524504 158.429229 C 105.075725 162.045106 94.253739 162.942664 94.253739 169.264038 C 94.253739 175.585411 100.575113 176.03419 100.126334 180.534803 C 99.664732 185.048238 90.189083 181.893962 91.53542 190.472053 C 92.89458 199.037322 100.126334 197.242206 99.215953 200.84526 C 98.305573 204.461137 90.214728 207.166634 93.80496 212.128848 C 97.395193 217.091062 102.806186 215.744725 101.023892 219.80938 C 99.241598 223.874036 95.600076 229.285029 101.92145 231.092968 C 108.242823 232.900906 111.397099 231.990526 110.922675 236.503961 C 110.435429 241.004574 112.717791 244.633273 115.923356 244.633273 C 119.116098 244.633273 121.334349 238.311899 123.591067 243.722892 C 125.834962 249.133886 132.169157 251.852204 135.336255 250.954646 C 138.490531 250.044266 143.003966 235.555114 143.003966 228.336182 C 143.003966 221.117251 123.591067 194.48542 150.222897 176.893281 C 176.854728 159.288321 183.163279 159.288321 183.163279 159.288321 L 180.906562 156.595646 Z M 180.44496 154.774886 " stroke="#263238" stroke-width="1" stroke-opacity="1" stroke-miterlimit="4"/><path stroke-linecap="round" transform="matrix(0.304646, 0, 0, 0.304646, 557.707848, -20.20624)" fill-opacity="1" fill="#263238" fill-rule="nonzero" stroke-linejoin="round" d="M 204.358472 170.135951 C 204.358472 170.135951 209.089886 167.417632 218.027 168.315191 C 226.964114 169.225571 228.028362 173.739006 226.964114 177.803662 C 225.912689 181.855495 231.70835 180.047557 235.91405 183.663434 C 240.106929 187.266489 238.542613 189.984807 235.388338 195.3958 C 232.234062 200.819616 238.016901 198.562898 241.696889 202.165953 C 245.376877 205.78183 245.90259 209.384884 240.696753 212.090381 C 235.503738 214.795877 232.811064 215.706258 235.96534 221.091606 C 239.106793 226.476955 237.542477 229.208096 231.233926 230.567255 C 224.925375 231.926415 222.822525 229.208096 219.655427 233.285574 C 216.501151 237.35023 210.718313 239.145346 208.653929 235.529469 C 206.602368 231.926415 220.232428 222.437943 219.181003 204.845805 C 218.129578 187.240844 204.358472 170.135951 204.358472 170.135951 Z M 204.358472 170.135951 " stroke="#263238" stroke-width="1" stroke-opacity="1" stroke-miterlimit="4"/><path stroke-linecap="round" transform="matrix(0.304646, 0, 0, 0.304646, 557.707848, -20.20624)" fill-opacity="1" fill="#bdbdbd" fill-rule="nonzero" stroke-linejoin="round" d="M 153.274595 159.249854 C 144.427237 162.51953 137.221127 167.943345 131.630623 175.534122 C 128.553281 179.701356 126.463252 184.317369 125.360538 189.382161 C 120.706058 211.359512 122.001107 220.001714 122.706331 224.002259 C 123.398733 228.002804 128.001923 244.004982 128.001923 244.004982 C 129.489305 249.428797 131.707556 254.532056 134.656676 259.314759 C 139.349622 266.636268 150.004919 277.996789 156.005736 280.625352 C 161.993731 283.241093 191.292591 271.995972 199.998905 265.302753 C 208.705218 258.596712 207.999994 243.299758 210.000266 237.298941 C 212.000539 231.298124 223.322593 227.297579 223.322593 200.678571 C 223.258481 164.276179 183.137635 147.914977 153.274595 159.249854 Z M 153.274595 159.249854 " stroke="#263238" stroke-width="1" stroke-opacity="1" stroke-miterlimit="4"/><path stroke-linecap="round" transform="matrix(0.304646, 0, 0, 0.304646, 557.707848, -20.20624)" fill="none" stroke-linejoin="round" d="M 212.333917 231.66997 C 212.333917 231.66997 213.693077 227.92587 211.66716 225.669153 " stroke="#263238" stroke-width="2" stroke-opacity="1" stroke-miterlimit="4"/><path stroke-linecap="round" transform="matrix(0.304646, 0, 0, 0.304646, 557.707848, -20.20624)" fill="none" stroke-linejoin="round" d="M 197.139541 213.44954 C 197.139541 213.44954 189.920609 204.871449 176.829084 212.090381 " stroke="#263238" stroke-width="2" stroke-opacity="1" stroke-miterlimit="4"/><path stroke-linecap="round" transform="matrix(0.304646, 0, 0, 0.304646, 557.707848, -20.20624)" fill="none" stroke-linejoin="round" d="M 208.423128 225.630686 C 208.423128 225.630686 198.4987 228.336182 197.139541 234.208777 C 195.780382 240.081371 204.807252 250.454578 199.396258 253.160075 C 193.985265 255.865571 188.574272 254.057633 187.663892 252.711296 " stroke="#263238" stroke-width="1" stroke-opacity="1" stroke-miterlimit="4"/><path stroke-linecap="round" transform="matrix(0.304646, 0, 0, 0.304646, 557.707848, -20.20624)" fill-opacity="1" fill="#263238" fill-rule="nonzero" stroke-linejoin="round" d="M 180.44496 259.481448 C 180.44496 259.481448 169.161373 257.224731 165.545496 243.684426 C 165.545496 243.684426 158.775344 260.379006 164.647938 263.546104 C 170.520532 266.70038 180.44496 259.481448 180.44496 259.481448 Z M 180.44496 259.481448 " stroke="#263238" stroke-width="1" stroke-opacity="1" stroke-miterlimit="4"/><path stroke-linecap="round" transform="matrix(0.304646, 0, 0, 0.304646, 557.707848, -20.20624)" fill-opacity="1" fill="#263238" fill-rule="nonzero" stroke-linejoin="round" d="M 146.145419 217.514196 C 155.621068 207.128167 153.825952 194.511065 179.996181 189.984807 C 204.384117 185.779107 217.796199 196.07538 222.425035 212.090381 C 223.002036 208.320637 223.284126 204.525248 223.258481 200.704215 C 223.258481 164.276179 183.137635 147.914977 153.261773 159.249854 C 144.427237 162.51953 137.208305 167.943345 131.6178 175.534122 C 128.540458 179.701356 126.45043 184.317369 125.347716 189.382161 C 120.706058 211.359512 122.001107 220.001714 122.706331 224.002259 L 129.00206 219.758091 C 129.00206 219.758091 136.66977 227.887403 146.145419 217.514196 Z M 146.145419 217.514196 " stroke="#263238" stroke-width="1" stroke-opacity="1" stroke-miterlimit="4"/><path fill="#263238" d="M 613.925781 49.457031 C 613.511719 50 612.957031 50.273438 612.6875 50.066406 C 612.417969 49.859375 612.527344 49.25 612.941406 48.707031 C 613.359375 48.164062 613.910156 47.890625 614.1875 48.097656 C 614.460938 48.304688 614.339844 48.910156 613.925781 49.457031 Z M 613.925781 49.457031 " fill-opacity="1" fill-rule="nonzero"/><path fill="#263238" d="M 620.160156 51.714844 C 619.761719 52.273438 619.214844 52.5625 618.941406 52.363281 C 618.667969 52.164062 618.761719 51.554688 619.15625 50.996094 C 619.554688 50.4375 620.101562 50.152344 620.375 50.351562 C 620.652344 50.546875 620.554688 51.160156 620.160156 51.714844 Z M 620.160156 51.714844 " fill-opacity="1" fill-rule="nonzero"/><path stroke-linecap="round" transform="matrix(0.304646, 0, 0, 0.304646, 557.707848, -20.20624)" fill-opacity="1" fill="#bdbdbd" fill-rule="nonzero" stroke-linejoin="round" d="M 134.00274 225.348596 C 134.00274 225.348596 132.669226 214.693299 126.668409 214.693299 C 120.667592 214.693299 114.025662 223.348324 118.026206 234.696023 C 122.013929 246.030899 130.668953 246.684834 133.335983 245.338497 " stroke="#263238" stroke-width="1" stroke-opacity="1" stroke-miterlimit="4"/><path stroke-linecap="round" transform="matrix(0.304646, 0, 0, 0.304646, 557.707848, -20.20624)" fill-opacity="1" fill="#bdbdbd" fill-rule="nonzero" stroke-linejoin="round" d="M 53.914914 352.083798 C 53.671291 353.263446 53.786692 354.404627 54.248293 355.520164 C 54.722717 356.6357 55.453585 357.520436 56.466544 358.174371 C 60.005487 360.738823 69.942737 360.418266 72.468722 359.174507 C 74.994707 357.943571 71.468586 356.610056 68.955423 355.968943 C 66.429438 355.32783 58.043681 352.122265 58.043681 352.122265 C 58.043681 352.122265 55.184318 351.122129 53.914914 352.083798 Z M 53.914914 352.083798 " stroke="#263238" stroke-width="1" stroke-opacity="1" stroke-miterlimit="4"/><path stroke-linecap="round" transform="matrix(0.304646, 0, 0, 0.304646, 557.707848, -20.20624)" fill-opacity="1" fill="#bdbdbd" fill-rule="nonzero" stroke-linejoin="round" d="M 51.33764 344.390443 C 51.33764 344.390443 51.33764 349.839903 53.914914 352.083798 C 56.479366 354.314871 66.09606 353.686581 69.622181 352.083798 C 73.148302 350.468194 76.03331 347.596008 76.353866 345.352113 C 76.674423 343.095395 75.071641 342.146548 74.109971 342.787661 C 73.148302 343.428774 66.108882 344.390443 61.274891 344.390443 Z M 51.33764 344.390443 " stroke="#263238" stroke-width="1" stroke-opacity="1" stroke-miterlimit="4"/><path stroke-linecap="round" transform="matrix(0.304646, 0, 0, 0.304646, 557.707848, -20.20624)" fill-opacity="1" fill="#bdbdbd" fill-rule="nonzero" stroke-linejoin="round" d="M 48.465454 333.170967 C 48.465454 333.170967 46.529293 340.223209 48.465454 343.108218 C 50.388793 346.006048 58.069326 347.006184 63.198229 347.006184 C 68.327133 347.006184 76.353866 345.403402 77.315536 342.197837 C 78.264383 339.005095 77.636092 336.094442 74.109971 336.414999 C 70.58385 336.735555 58.107793 335.773886 54.235471 334.825039 C 50.350326 333.863369 48.465454 333.170967 48.465454 333.170967 Z M 48.465454 333.170967 " stroke="#263238" stroke-width="1" stroke-opacity="1" stroke-miterlimit="4"/><path stroke-linecap="round" transform="matrix(0.304646, 0, 0, 0.304646, 557.707848, -20.20624)" fill-opacity="1" fill="#bdbdbd" fill-rule="nonzero" stroke-linejoin="round" d="M 62.557116 327.080395 C 62.557116 327.080395 51.658197 321.630935 48.465454 320.656443 C 45.25989 319.694774 43.015995 326.759838 44.926511 331.234806 C 46.84985 335.722597 60.326043 338.299871 63.852165 338.620427 C 67.378286 338.940984 76.03331 338.620427 76.994979 335.094306 C 77.943827 331.555363 74.751084 330.285959 70.904407 329.32429 C 67.044907 328.36262 62.557116 327.080395 62.557116 327.080395 Z M 62.557116 327.080395 " stroke="#263238" stroke-width="1" stroke-opacity="1" stroke-miterlimit="4"/><path stroke-linecap="round" transform="matrix(0.304646, 0, 0, 0.304646, 557.707848, -20.20624)" fill-opacity="1" fill="#bdbdbd" fill-rule="nonzero" stroke-linejoin="round" d="M 261.776546 389.922283 C 261.776546 389.922283 272.175397 398.231107 276.778588 401.282804 C 281.394601 404.334502 287.459529 401.834161 288.318621 401.552072 C 289.177712 401.269982 271.585573 390.75573 271.585573 390.75573 Z M 261.776546 389.922283 " stroke="#263238" stroke-width="1" stroke-opacity="1" stroke-miterlimit="4"/><path stroke-linecap="round" transform="matrix(0.304646, 0, 0, 0.304646, 557.707848, -20.20624)" fill-opacity="1" fill="#bdbdbd" fill-rule="nonzero" stroke-linejoin="round" d="M 267.93123 391.601999 C 267.93123 391.601999 283.010206 401.385382 288.8828 404.167812 C 294.755394 406.963065 303.128329 396.346235 303.128329 396.346235 Z M 267.93123 391.601999 " stroke="#263238" stroke-width="1" stroke-opacity="1" stroke-miterlimit="4"/><path stroke-linecap="round" transform="matrix(0.304646, 0, 0, 0.304646, 557.707848, -20.20624)" fill-opacity="1" fill="#263238" fill-rule="nonzero" stroke-linejoin="round" d="M 327.477798 397.615638 C 327.477798 397.615638 326.092994 387.909189 326.785396 385.139581 C 327.49062 382.369973 341.338659 385.831983 341.338659 385.831983 Z M 327.477798 397.615638 " stroke="#263238" stroke-width="1" stroke-opacity="1" stroke-miterlimit="4"/><path stroke-linecap="round" transform="matrix(0.304646, 0, 0, 0.304646, 557.707848, -20.20624)" fill-opacity="1" fill="#bdbdbd" fill-rule="nonzero" stroke-linejoin="round" d="M 337.415048 361.456869 C 337.415048 361.456869 326.823863 361.956937 324.810768 361.456869 C 322.784851 360.956801 315.245363 352.891601 311.206352 345.339291 C 307.180163 337.78698 303.153974 337.774158 300.627989 340.800211 C 298.114826 343.826264 282.497315 350.378438 282.497315 350.378438 L 279.996975 396.71808 C 284.805322 398.923509 289.844469 399.756955 295.114418 399.244065 C 303.166796 398.243929 322.310428 391.178864 322.310428 391.178864 L 340.953992 391.178864 C 340.953992 391.178864 347.006098 383.113664 346.493207 374.561218 C 346.33934 372.02241 345.698227 369.611826 344.557046 367.342286 C 343.428687 365.059924 341.890016 363.098118 339.941033 361.456869 Z M 337.415048 361.456869 " stroke="#263238" stroke-width="1" stroke-opacity="1" stroke-miterlimit="4"/><path stroke-linecap="round" transform="matrix(0.304646, 0, 0, 0.304646, 557.707848, -20.20624)" fill-opacity="1" fill="#ffffff" fill-rule="nonzero" stroke-linejoin="round" d="M 376.702448 344.8264 C 371.483789 346.993362 366.444641 349.519347 361.585005 352.391533 C 353.994228 356.91779 333.376037 360.995268 333.376037 360.995268 C 333.376037 360.995268 337.915116 364.534211 337.915116 373.086658 C 337.915116 381.651926 327.477798 397.666927 327.477798 397.666927 C 327.477798 397.666927 344.954536 396.269301 354.481474 394.756275 C 363.99559 393.25607 391.75578 389.204237 399.320912 381.151858 C 406.886045 373.086658 401.834075 350.929795 400.321048 346.403538 C 399.487601 343.813442 398.487465 341.300279 397.32064 338.838406 " stroke="#263238" stroke-width="1" stroke-opacity="1" stroke-miterlimit="4"/><path stroke-linecap="round" transform="matrix(0.300753, 0.0485497, -0.0485497, 0.300753, 576.519727, -31.185665)" fill-opacity="1" fill="#fec56b" fill-rule="nonzero" stroke-linejoin="round" d="M 211.412376 342.694268 L 299.511758 342.694751 L 299.508392 390.868716 L 211.40901 390.868232 Z M 211.412376 342.694268 " stroke="#263238" stroke-width="1" stroke-opacity="1" stroke-miterlimit="4"/><path fill="#263238" d="M 649 92.308594 C 648.984375 92.328125 648.972656 92.347656 648.960938 92.367188 C 648.949219 92.394531 648.941406 92.421875 648.941406 92.453125 L 648.976562 92.453125 Z M 649 92.308594 " fill-opacity="1" fill-rule="nonzero"/><path fill="#263238" d="M 649.164062 88.285156 C 649.308594 88.285156 649.382812 88.210938 649.382812 88.066406 C 649.382812 87.917969 649.308594 87.84375 649.164062 87.84375 C 649.015625 87.84375 648.941406 87.917969 648.941406 88.066406 C 648.941406 88.210938 649.015625 88.285156 649.164062 88.285156 Z M 649.164062 88.285156 " fill-opacity="1" fill-rule="nonzero"/><path fill="#263238" d="M 646.96875 90.039062 C 646.824219 90.039062 646.75 90.113281 646.75 90.257812 C 646.75 90.40625 646.824219 90.476562 646.96875 90.476562 C 647.117188 90.476562 647.1875 90.40625 647.1875 90.257812 C 647.1875 90.113281 647.117188 90.039062 646.96875 90.039062 Z M 646.96875 90.039062 " fill-opacity="1" fill-rule="nonzero"/><path fill="#263238" d="M 646.96875 86.089844 C 647.054688 86.089844 647.121094 86.050781 647.160156 85.976562 L 646.757812 85.90625 C 646.777344 86.027344 646.847656 86.089844 646.96875 86.089844 Z M 646.96875 86.089844 " fill-opacity="1" fill-rule="nonzero"/><path fill="#263238" d="M 644.996094 92.453125 C 645 92.421875 645 92.394531 644.996094 92.367188 C 644.957031 92.277344 644.886719 92.234375 644.789062 92.234375 L 644.789062 92.453125 Z M 644.996094 92.453125 " fill-opacity="1" fill-rule="nonzero"/><path fill="#263238" d="M 644.777344 87.84375 L 644.777344 88.285156 C 644.921875 88.285156 644.996094 88.210938 644.996094 88.066406 C 644.996094 87.917969 644.921875 87.84375 644.777344 87.84375 Z M 644.777344 87.84375 " fill-opacity="1" fill-rule="nonzero"/><path fill="#263238" d="M 646.96875 98.8125 C 646.824219 98.8125 646.75 98.886719 646.75 99.03125 C 646.75 99.179688 646.824219 99.25 646.96875 99.25 C 647.117188 99.25 647.1875 99.179688 647.1875 99.03125 C 647.1875 98.886719 647.117188 98.8125 646.96875 98.8125 Z M 646.96875 98.8125 " fill-opacity="1" fill-rule="nonzero"/><path fill="#263238" d="M 646.96875 94.425781 C 646.824219 94.425781 646.75 94.5 646.75 94.644531 C 646.75 94.792969 646.824219 94.863281 646.96875 94.863281 C 647.117188 94.863281 647.1875 94.792969 647.1875 94.644531 C 647.1875 94.5 647.117188 94.425781 646.96875 94.425781 Z M 646.96875 94.425781 " fill-opacity="1" fill-rule="nonzero"/><path fill="#263238" d="M 644.996094 96.839844 C 644.996094 96.691406 644.921875 96.621094 644.777344 96.621094 L 644.777344 97.058594 C 644.921875 97.058594 644.996094 96.984375 644.996094 96.839844 Z M 644.996094 96.839844 " fill-opacity="1" fill-rule="nonzero"/><path fill="#263238" d="M 648.941406 92.453125 C 648.941406 92.480469 648.949219 92.511719 648.960938 92.539062 L 648.960938 92.453125 Z M 648.941406 92.453125 " fill-opacity="1" fill-rule="nonzero"/><path fill="#263238" d="M 644.777344 92.453125 L 644.777344 92.671875 C 644.921875 92.671875 644.996094 92.597656 644.996094 92.453125 Z M 644.777344 92.453125 " fill-opacity="1" fill-rule="nonzero"/><path fill="#263238" d="M 644.777344 92.234375 C 644.746094 92.234375 644.71875 92.238281 644.691406 92.246094 C 644.636719 92.273438 644.597656 92.3125 644.574219 92.367188 C 644.5625 92.394531 644.554688 92.421875 644.554688 92.453125 L 644.777344 92.453125 Z M 644.777344 92.234375 " fill-opacity="1" fill-rule="nonzero"/><path fill="#263238" d="M 640.59375 92.367188 C 640.554688 92.277344 640.484375 92.234375 640.390625 92.234375 C 640.292969 92.230469 640.226562 92.277344 640.1875 92.367188 C 640.175781 92.394531 640.167969 92.421875 640.167969 92.453125 L 640.609375 92.453125 C 640.609375 92.421875 640.601562 92.394531 640.59375 92.367188 Z M 640.59375 92.367188 " fill-opacity="1" fill-rule="nonzero"/><path fill="#263238" d="M 644.691406 87.859375 C 644.601562 87.898438 644.554688 87.96875 644.554688 88.066406 C 644.554688 88.160156 644.601562 88.230469 644.691406 88.265625 C 644.71875 88.277344 644.746094 88.285156 644.777344 88.285156 L 644.777344 87.84375 C 644.746094 87.847656 644.71875 87.851562 644.691406 87.859375 Z M 644.691406 87.859375 " fill-opacity="1" fill-rule="nonzero"/><path fill="#263238" d="M 640.390625 87.84375 C 640.242188 87.84375 640.167969 87.917969 640.167969 88.066406 C 640.167969 88.210938 640.242188 88.285156 640.390625 88.285156 C 640.535156 88.285156 640.609375 88.210938 640.609375 88.066406 C 640.609375 87.917969 640.535156 87.84375 640.390625 87.84375 Z M 640.390625 87.84375 " fill-opacity="1" fill-rule="nonzero"/><path fill="#263238" d="M 638.195312 90.039062 C 638.050781 90.039062 637.976562 90.113281 637.976562 90.257812 C 637.976562 90.40625 638.050781 90.476562 638.195312 90.476562 C 638.339844 90.476562 638.414062 90.40625 638.414062 90.257812 C 638.414062 90.113281 638.339844 90.039062 638.195312 90.039062 Z M 638.195312 90.039062 " fill-opacity="1" fill-rule="nonzero"/><path fill="#263238" d="M 642.582031 90.039062 C 642.4375 90.039062 642.363281 90.113281 642.363281 90.257812 C 642.363281 90.40625 642.4375 90.476562 642.582031 90.476562 C 642.726562 90.476562 642.800781 90.40625 642.800781 90.257812 C 642.800781 90.113281 642.726562 90.039062 642.582031 90.039062 Z M 642.582031 90.039062 " fill-opacity="1" fill-rule="nonzero"/><path fill="#263238" d="M 638.195312 85.652344 C 638.050781 85.652344 637.976562 85.726562 637.976562 85.871094 C 637.976562 86.019531 638.050781 86.089844 638.195312 86.089844 C 638.339844 86.089844 638.414062 86.019531 638.414062 85.871094 C 638.414062 85.726562 638.339844 85.652344 638.195312 85.652344 Z M 638.195312 85.652344 " fill-opacity="1" fill-rule="nonzero"/><path fill="#263238" d="M 642.582031 85.652344 C 642.4375 85.652344 642.363281 85.726562 642.363281 85.871094 C 642.363281 86.019531 642.4375 86.089844 642.582031 86.089844 C 642.726562 86.089844 642.800781 86.019531 642.800781 85.871094 C 642.800781 85.726562 642.726562 85.652344 642.582031 85.652344 Z M 642.582031 85.652344 " fill-opacity="1" fill-rule="nonzero"/><path fill="#263238" d="M 636.222656 92.453125 C 636.222656 92.421875 636.214844 92.394531 636.207031 92.367188 C 636.195312 92.339844 636.179688 92.316406 636.15625 92.296875 C 636.113281 92.253906 636.0625 92.230469 636 92.234375 L 636 92.453125 Z M 636.222656 92.453125 " fill-opacity="1" fill-rule="nonzero"/><path fill="#263238" d="M 636.15625 87.910156 C 636.113281 87.867188 636.0625 87.84375 636 87.84375 L 636 88.285156 C 636.101562 88.285156 636.167969 88.238281 636.203125 88.148438 C 636.242188 88.058594 636.226562 87.980469 636.15625 87.910156 Z M 636.15625 87.910156 " fill-opacity="1" fill-rule="nonzero"/><path fill="#263238" d="M 644.777344 96.621094 C 644.746094 96.613281 644.71875 96.613281 644.691406 96.621094 C 644.601562 96.65625 644.554688 96.722656 644.554688 96.820312 C 644.554688 96.917969 644.601562 96.988281 644.691406 97.023438 C 644.71875 97.035156 644.746094 97.042969 644.777344 97.042969 Z M 644.777344 96.621094 " fill-opacity="1" fill-rule="nonzero"/><path fill="#263238" d="M 640.390625 96.621094 C 640.242188 96.621094 640.167969 96.691406 640.167969 96.839844 C 640.167969 96.984375 640.242188 97.058594 640.390625 97.058594 C 640.535156 97.058594 640.609375 96.984375 640.609375 96.839844 C 640.609375 96.691406 640.535156 96.621094 640.390625 96.621094 Z M 640.390625 96.621094 " fill-opacity="1" fill-rule="nonzero"/><path fill="#263238" d="M 638.195312 98.8125 C 638.050781 98.8125 637.976562 98.886719 637.976562 99.03125 C 637.976562 99.179688 638.050781 99.25 638.195312 99.25 C 638.339844 99.25 638.414062 99.179688 638.414062 99.03125 C 638.414062 98.886719 638.339844 98.8125 638.195312 98.8125 Z M 638.195312 98.8125 " fill-opacity="1" fill-rule="nonzero"/><path fill="#263238" d="M 642.582031 98.8125 C 642.4375 98.8125 642.363281 98.886719 642.363281 99.03125 C 642.363281 99.179688 642.4375 99.25 642.582031 99.25 C 642.726562 99.25 642.800781 99.179688 642.800781 99.03125 C 642.800781 98.886719 642.726562 98.8125 642.582031 98.8125 Z M 642.582031 98.8125 " fill-opacity="1" fill-rule="nonzero"/><path fill="#263238" d="M 638.195312 94.425781 C 638.050781 94.425781 637.976562 94.5 637.976562 94.644531 C 637.976562 94.792969 638.050781 94.863281 638.195312 94.863281 C 638.339844 94.863281 638.414062 94.792969 638.414062 94.644531 C 638.414062 94.5 638.339844 94.425781 638.195312 94.425781 Z M 638.195312 94.425781 " fill-opacity="1" fill-rule="nonzero"/><path fill="#263238" d="M 642.582031 94.425781 C 642.4375 94.425781 642.363281 94.5 642.363281 94.644531 C 642.363281 94.792969 642.4375 94.863281 642.582031 94.863281 C 642.726562 94.863281 642.800781 94.792969 642.800781 94.644531 C 642.800781 94.5 642.726562 94.425781 642.582031 94.425781 Z M 642.582031 94.425781 " fill-opacity="1" fill-rule="nonzero"/><path fill="#263238" d="M 636 96.621094 L 636 97.058594 C 636.148438 97.058594 636.222656 96.984375 636.222656 96.839844 C 636.222656 96.691406 636.148438 96.621094 636 96.621094 Z M 636 96.621094 " fill-opacity="1" fill-rule="nonzero"/><path fill="#263238" d="M 644.554688 92.453125 C 644.558594 92.546875 644.601562 92.617188 644.691406 92.652344 C 644.71875 92.664062 644.746094 92.671875 644.777344 92.671875 L 644.777344 92.453125 Z M 644.554688 92.453125 " fill-opacity="1" fill-rule="nonzero"/><path fill="#263238" d="M 640.167969 92.453125 C 640.167969 92.597656 640.242188 92.671875 640.390625 92.671875 C 640.535156 92.671875 640.609375 92.597656 640.609375 92.453125 Z M 640.167969 92.453125 " fill-opacity="1" fill-rule="nonzero"/><path fill="#263238" d="M 636 92.453125 L 636 92.671875 C 636.148438 92.671875 636.222656 92.597656 636.222656 92.453125 Z M 636 92.453125 " fill-opacity="1" fill-rule="nonzero"/><path fill="#263238" d="M 631.835938 83.679688 C 631.839844 83.648438 631.839844 83.621094 631.835938 83.59375 C 631.8125 83.539062 631.773438 83.5 631.722656 83.476562 L 631.613281 83.476562 C 631.527344 83.480469 631.464844 83.523438 631.429688 83.609375 C 631.417969 83.636719 631.410156 83.664062 631.410156 83.691406 Z M 631.835938 83.679688 " fill-opacity="1" fill-rule="nonzero"/><path fill="#263238" d="M 627.449219 83.679688 C 627.453125 83.648438 627.453125 83.621094 627.449219 83.59375 C 627.410156 83.503906 627.339844 83.457031 627.242188 83.457031 L 627.242188 83.679688 Z M 627.449219 83.679688 " fill-opacity="1" fill-rule="nonzero"/><path fill="#263238" d="M 636 92.234375 C 635.90625 92.230469 635.835938 92.277344 635.800781 92.367188 C 635.789062 92.394531 635.78125 92.421875 635.78125 92.453125 L 636 92.453125 Z M 636 92.234375 " fill-opacity="1" fill-rule="nonzero"/><path fill="#263238" d="M 631.820312 92.367188 C 631.78125 92.277344 631.710938 92.234375 631.613281 92.234375 C 631.519531 92.230469 631.449219 92.277344 631.414062 92.367188 C 631.402344 92.394531 631.394531 92.421875 631.394531 92.453125 L 631.835938 92.453125 C 631.835938 92.421875 631.828125 92.394531 631.820312 92.367188 Z M 631.820312 92.367188 " fill-opacity="1" fill-rule="nonzero"/><path fill="#263238" d="M 635.78125 88.066406 C 635.78125 88.210938 635.855469 88.285156 636 88.285156 L 636 87.84375 C 635.855469 87.84375 635.78125 87.917969 635.78125 88.066406 Z M 635.78125 88.066406 " fill-opacity="1" fill-rule="nonzero"/><path fill="#263238" d="M 631.613281 87.84375 C 631.46875 87.84375 631.394531 87.917969 631.394531 88.066406 C 631.394531 88.210938 631.46875 88.285156 631.613281 88.285156 C 631.761719 88.285156 631.835938 88.210938 631.835938 88.066406 C 631.835938 87.917969 631.761719 87.84375 631.613281 87.84375 Z M 631.613281 87.84375 " fill-opacity="1" fill-rule="nonzero"/><path fill="#263238" d="M 629.421875 90.039062 C 629.273438 90.039062 629.203125 90.113281 629.203125 90.257812 C 629.203125 90.40625 629.273438 90.476562 629.421875 90.476562 C 629.566406 90.476562 629.640625 90.40625 629.640625 90.257812 C 629.640625 90.113281 629.566406 90.039062 629.421875 90.039062 Z M 629.421875 90.039062 " fill-opacity="1" fill-rule="nonzero"/><path fill="#263238" d="M 633.808594 90.476562 C 633.953125 90.476562 634.027344 90.40625 634.027344 90.257812 C 634.027344 90.113281 633.953125 90.039062 633.808594 90.039062 C 633.664062 90.039062 633.589844 90.113281 633.589844 90.257812 C 633.589844 90.40625 633.664062 90.476562 633.808594 90.476562 Z M 633.808594 90.476562 " fill-opacity="1" fill-rule="nonzero"/><path fill="#263238" d="M 629.421875 85.652344 C 629.273438 85.652344 629.203125 85.726562 629.203125 85.871094 C 629.203125 86.019531 629.273438 86.089844 629.421875 86.089844 C 629.566406 86.089844 629.640625 86.019531 629.640625 85.871094 C 629.640625 85.726562 629.566406 85.652344 629.421875 85.652344 Z M 629.421875 85.652344 " fill-opacity="1" fill-rule="nonzero"/><path fill="#263238" d="M 633.589844 85.871094 C 633.589844 86.019531 633.664062 86.089844 633.808594 86.089844 C 633.953125 86.089844 634.027344 86.019531 634.027344 85.871094 C 634.027344 85.726562 633.953125 85.652344 633.808594 85.652344 C 633.664062 85.652344 633.589844 85.726562 633.589844 85.871094 Z M 633.589844 85.871094 " fill-opacity="1" fill-rule="nonzero"/><path fill="#263238" d="M 627.449219 92.453125 C 627.453125 92.421875 627.453125 92.394531 627.449219 92.367188 C 627.410156 92.277344 627.339844 92.234375 627.242188 92.234375 L 627.242188 92.453125 Z M 627.449219 92.453125 " fill-opacity="1" fill-rule="nonzero"/><path fill="#263238" d="M 627.226562 87.84375 L 627.226562 88.285156 C 627.375 88.285156 627.449219 88.210938 627.449219 88.066406 C 627.449219 87.917969 627.375 87.84375 627.226562 87.84375 Z M 627.226562 87.84375 " fill-opacity="1" fill-rule="nonzero"/><path fill="#263238" d="M 631.414062 83.761719 C 631.449219 83.851562 631.519531 83.898438 631.613281 83.898438 C 631.710938 83.898438 631.78125 83.851562 631.820312 83.761719 C 631.824219 83.734375 631.824219 83.707031 631.820312 83.679688 L 631.378906 83.679688 C 631.386719 83.710938 631.394531 83.738281 631.414062 83.761719 Z M 631.414062 83.761719 " fill-opacity="1" fill-rule="nonzero"/><path fill="#263238" d="M 627.226562 83.898438 C 627.324219 83.898438 627.394531 83.851562 627.433594 83.761719 C 627.4375 83.734375 627.4375 83.707031 627.433594 83.679688 L 627.210938 83.679688 Z M 627.226562 83.898438 " fill-opacity="1" fill-rule="nonzero"/><path fill="#263238" d="M 635.78125 96.839844 C 635.78125 96.984375 635.855469 97.058594 636 97.058594 L 636 96.621094 C 635.855469 96.621094 635.78125 96.691406 635.78125 96.839844 Z M 635.78125 96.839844 " fill-opacity="1" fill-rule="nonzero"/><path fill="#263238" d="M 631.613281 96.621094 C 631.46875 96.621094 631.394531 96.691406 631.394531 96.839844 C 631.394531 96.984375 631.46875 97.058594 631.613281 97.058594 C 631.761719 97.058594 631.835938 96.984375 631.835938 96.839844 C 631.835938 96.691406 631.761719 96.621094 631.613281 96.621094 Z M 631.613281 96.621094 " fill-opacity="1" fill-rule="nonzero"/><path fill="#263238" d="M 629.203125 94.644531 C 629.203125 94.792969 629.273438 94.863281 629.421875 94.863281 C 629.566406 94.863281 629.640625 94.792969 629.640625 94.644531 C 629.640625 94.5 629.566406 94.425781 629.421875 94.425781 C 629.273438 94.425781 629.203125 94.5 629.203125 94.644531 Z M 629.203125 94.644531 " fill-opacity="1" fill-rule="nonzero"/><path fill="#263238" d="M 633.589844 94.644531 C 633.589844 94.792969 633.664062 94.863281 633.808594 94.863281 C 633.953125 94.863281 634.027344 94.792969 634.027344 94.644531 C 634.027344 94.5 633.953125 94.425781 633.808594 94.425781 C 633.664062 94.425781 633.589844 94.5 633.589844 94.644531 Z M 633.589844 94.644531 " fill-opacity="1" fill-rule="nonzero"/><path fill="#263238" d="M 627.226562 96.621094 L 627.226562 97.058594 C 627.375 97.058594 627.449219 96.984375 627.449219 96.839844 C 627.449219 96.691406 627.375 96.621094 627.226562 96.621094 Z M 627.226562 96.621094 " fill-opacity="1" fill-rule="nonzero"/><path fill="#263238" d="M 635.78125 92.453125 C 635.78125 92.597656 635.855469 92.671875 636 92.671875 L 636 92.453125 Z M 635.78125 92.453125 " fill-opacity="1" fill-rule="nonzero"/><path fill="#263238" d="M 631.394531 92.453125 C 631.394531 92.597656 631.46875 92.671875 631.613281 92.671875 C 631.761719 92.671875 631.835938 92.597656 631.835938 92.453125 Z M 631.394531 92.453125 " fill-opacity="1" fill-rule="nonzero"/><path fill="#263238" d="M 627.226562 92.453125 L 627.226562 92.671875 C 627.375 92.671875 627.449219 92.597656 627.449219 92.453125 Z M 627.226562 92.453125 " fill-opacity="1" fill-rule="nonzero"/><path fill="#263238" d="M 627.226562 83.457031 C 627.132812 83.457031 627.0625 83.503906 627.027344 83.59375 C 627.015625 83.621094 627.007812 83.648438 627.007812 83.679688 L 627.226562 83.679688 Z M 627.226562 83.457031 " fill-opacity="1" fill-rule="nonzero"/><path fill="#263238" d="M 627.226562 92.234375 C 627.132812 92.230469 627.0625 92.277344 627.027344 92.367188 C 627.015625 92.394531 627.007812 92.421875 627.007812 92.453125 L 627.226562 92.453125 Z M 627.226562 92.234375 " fill-opacity="1" fill-rule="nonzero"/><path fill="#263238" d="M 623.046875 92.367188 C 623.007812 92.277344 622.9375 92.234375 622.839844 92.234375 C 622.742188 92.230469 622.675781 92.277344 622.640625 92.367188 C 622.628906 92.394531 622.621094 92.421875 622.621094 92.453125 L 623.058594 92.453125 C 623.058594 92.421875 623.054688 92.394531 623.046875 92.367188 Z M 623.046875 92.367188 " fill-opacity="1" fill-rule="nonzero"/><path fill="#263238" d="M 627.007812 88.066406 C 627.007812 88.210938 627.082031 88.285156 627.226562 88.285156 L 627.226562 87.84375 C 627.082031 87.84375 627.007812 87.917969 627.007812 88.066406 Z M 627.007812 88.066406 " fill-opacity="1" fill-rule="nonzero"/><path fill="#263238" d="M 622.839844 87.84375 C 622.695312 87.84375 622.621094 87.917969 622.621094 88.066406 C 622.621094 88.210938 622.695312 88.285156 622.839844 88.285156 C 622.988281 88.285156 623.058594 88.210938 623.058594 88.066406 C 623.058594 87.917969 622.988281 87.84375 622.839844 87.84375 Z M 622.839844 87.84375 " fill-opacity="1" fill-rule="nonzero"/><path fill="#263238" d="M 625.035156 90.476562 C 625.179688 90.476562 625.253906 90.40625 625.253906 90.257812 C 625.253906 90.113281 625.179688 90.039062 625.035156 90.039062 C 624.886719 90.039062 624.816406 90.113281 624.816406 90.257812 C 624.816406 90.40625 624.886719 90.476562 625.035156 90.476562 Z M 625.035156 90.476562 " fill-opacity="1" fill-rule="nonzero"/><path fill="#263238" d="M 624.816406 85.871094 C 624.816406 86.019531 624.886719 86.089844 625.035156 86.089844 C 625.179688 86.089844 625.253906 86.019531 625.253906 85.871094 C 625.253906 85.726562 625.179688 85.652344 625.035156 85.652344 C 624.886719 85.652344 624.816406 85.726562 624.816406 85.871094 Z M 624.816406 85.871094 " fill-opacity="1" fill-rule="nonzero"/><path fill="#263238" d="M 627.226562 83.898438 L 627.226562 83.679688 L 627.007812 83.679688 C 627.007812 83.707031 627.015625 83.734375 627.027344 83.761719 C 627.0625 83.851562 627.132812 83.898438 627.226562 83.898438 Z M 627.226562 83.898438 " fill-opacity="1" fill-rule="nonzero"/><path fill="#263238" d="M 627.007812 96.839844 C 627.007812 96.984375 627.082031 97.058594 627.226562 97.058594 L 627.226562 96.621094 C 627.082031 96.621094 627.007812 96.691406 627.007812 96.839844 Z M 627.007812 96.839844 " fill-opacity="1" fill-rule="nonzero"/><path fill="#263238" d="M 622.839844 96.621094 C 622.695312 96.621094 622.621094 96.691406 622.621094 96.839844 C 622.621094 96.851562 622.621094 96.863281 622.621094 96.878906 L 623.019531 96.941406 C 623.039062 96.910156 623.050781 96.875 623.050781 96.839844 C 623.050781 96.699219 622.980469 96.625 622.839844 96.621094 Z M 622.839844 96.621094 " fill-opacity="1" fill-rule="nonzero"/><path fill="#263238" d="M 624.816406 94.644531 C 624.816406 94.792969 624.886719 94.863281 625.035156 94.863281 C 625.179688 94.863281 625.253906 94.792969 625.253906 94.644531 C 625.253906 94.5 625.179688 94.425781 625.035156 94.425781 C 624.886719 94.425781 624.816406 94.5 624.816406 94.644531 Z M 624.816406 94.644531 " fill-opacity="1" fill-rule="nonzero"/><path fill="#263238" d="M 627.007812 92.453125 C 627.007812 92.597656 627.082031 92.671875 627.226562 92.671875 L 627.226562 92.453125 Z M 627.007812 92.453125 " fill-opacity="1" fill-rule="nonzero"/><path fill="#263238" d="M 622.839844 92.671875 C 622.988281 92.671875 623.058594 92.597656 623.058594 92.453125 L 622.621094 92.453125 C 622.621094 92.597656 622.695312 92.671875 622.839844 92.671875 Z M 622.839844 92.671875 " fill-opacity="1" fill-rule="nonzero"/><path stroke-linecap="round" transform="matrix(0.300753, 0.0485497, -0.0485497, 0.300753, 576.632482, -31.645698)" fill-opacity="1" fill="#fec56b" fill-rule="nonzero" stroke-linejoin="round" d="M 230.795042 344.238138 L 299.387019 344.244493 L 299.383653 392.418458 L 230.806378 392.422717 Z M 230.795042 344.238138 " stroke="#263238" stroke-width="1" stroke-opacity="1" stroke-miterlimit="4"/><path fill="#263238" d="M 649 92.308594 C 648.984375 92.328125 648.972656 92.347656 648.960938 92.367188 C 648.949219 92.394531 648.941406 92.421875 648.941406 92.453125 L 648.976562 92.453125 Z M 649 92.308594 " fill-opacity="1" fill-rule="nonzero"/><path fill="#263238" d="M 649.164062 88.285156 C 649.308594 88.285156 649.382812 88.210938 649.382812 88.066406 C 649.382812 87.917969 649.308594 87.84375 649.164062 87.84375 C 649.015625 87.84375 648.941406 87.917969 648.941406 88.066406 C 648.941406 88.210938 649.015625 88.285156 649.164062 88.285156 Z M 649.164062 88.285156 " fill-opacity="1" fill-rule="nonzero"/><path fill="#263238" d="M 646.96875 90.039062 C 646.824219 90.039062 646.75 90.113281 646.75 90.257812 C 646.75 90.40625 646.824219 90.476562 646.96875 90.476562 C 647.117188 90.476562 647.1875 90.40625 647.1875 90.257812 C 647.1875 90.113281 647.117188 90.039062 646.96875 90.039062 Z M 646.96875 90.039062 " fill-opacity="1" fill-rule="nonzero"/><path fill="#263238" d="M 646.96875 86.089844 C 647.054688 86.089844 647.121094 86.050781 647.160156 85.976562 L 646.757812 85.90625 C 646.777344 86.027344 646.847656 86.089844 646.96875 86.089844 Z M 646.96875 86.089844 " fill-opacity="1" fill-rule="nonzero"/><path fill="#263238" d="M 644.996094 92.453125 C 645 92.421875 645 92.394531 644.996094 92.367188 C 644.957031 92.277344 644.886719 92.234375 644.789062 92.234375 L 644.789062 92.453125 Z M 644.996094 92.453125 " fill-opacity="1" fill-rule="nonzero"/><path fill="#263238" d="M 644.777344 87.84375 L 644.777344 88.285156 C 644.921875 88.285156 644.996094 88.210938 644.996094 88.066406 C 644.996094 87.917969 644.921875 87.84375 644.777344 87.84375 Z M 644.777344 87.84375 " fill-opacity="1" fill-rule="nonzero"/><path fill="#263238" d="M 646.96875 98.8125 C 646.824219 98.8125 646.75 98.886719 646.75 99.03125 C 646.75 99.179688 646.824219 99.25 646.96875 99.25 C 647.117188 99.25 647.1875 99.179688 647.1875 99.03125 C 647.1875 98.886719 647.117188 98.8125 646.96875 98.8125 Z M 646.96875 98.8125 " fill-opacity="1" fill-rule="nonzero"/><path fill="#263238" d="M 646.96875 94.425781 C 646.824219 94.425781 646.75 94.5 646.75 94.644531 C 646.75 94.792969 646.824219 94.863281 646.96875 94.863281 C 647.117188 94.863281 647.1875 94.792969 647.1875 94.644531 C 647.1875 94.5 647.117188 94.425781 646.96875 94.425781 Z M 646.96875 94.425781 " fill-opacity="1" fill-rule="nonzero"/><path fill="#263238" d="M 644.996094 96.839844 C 644.996094 96.691406 644.921875 96.621094 644.777344 96.621094 L 644.777344 97.058594 C 644.921875 97.058594 644.996094 96.984375 644.996094 96.839844 Z M 644.996094 96.839844 " fill-opacity="1" fill-rule="nonzero"/><path fill="#263238" d="M 648.941406 92.453125 C 648.941406 92.480469 648.949219 92.511719 648.960938 92.539062 L 648.960938 92.453125 Z M 648.941406 92.453125 " fill-opacity="1" fill-rule="nonzero"/><path fill="#263238" d="M 644.777344 92.453125 L 644.777344 92.671875 C 644.921875 92.671875 644.996094 92.597656 644.996094 92.453125 Z M 644.777344 92.453125 " fill-opacity="1" fill-rule="nonzero"/><path fill="#263238" d="M 644.777344 92.234375 C 644.746094 92.234375 644.71875 92.238281 644.691406 92.246094 C 644.636719 92.273438 644.597656 92.3125 644.574219 92.367188 C 644.5625 92.394531 644.554688 92.421875 644.554688 92.453125 L 644.777344 92.453125 Z M 644.777344 92.234375 " fill-opacity="1" fill-rule="nonzero"/><path fill="#263238" d="M 640.59375 92.367188 C 640.554688 92.277344 640.484375 92.234375 640.390625 92.234375 C 640.292969 92.230469 640.226562 92.277344 640.1875 92.367188 C 640.175781 92.394531 640.167969 92.421875 640.167969 92.453125 L 640.609375 92.453125 C 640.609375 92.421875 640.601562 92.394531 640.59375 92.367188 Z M 640.59375 92.367188 " fill-opacity="1" fill-rule="nonzero"/><path fill="#263238" d="M 644.691406 87.859375 C 644.601562 87.898438 644.554688 87.96875 644.554688 88.066406 C 644.554688 88.160156 644.601562 88.230469 644.691406 88.265625 C 644.71875 88.277344 644.746094 88.285156 644.777344 88.285156 L 644.777344 87.84375 C 644.746094 87.847656 644.71875 87.851562 644.691406 87.859375 Z M 644.691406 87.859375 " fill-opacity="1" fill-rule="nonzero"/><path fill="#263238" d="M 640.390625 87.84375 C 640.242188 87.84375 640.167969 87.917969 640.167969 88.066406 C 640.167969 88.210938 640.242188 88.285156 640.390625 88.285156 C 640.535156 88.285156 640.609375 88.210938 640.609375 88.066406 C 640.609375 87.917969 640.535156 87.84375 640.390625 87.84375 Z M 640.390625 87.84375 " fill-opacity="1" fill-rule="nonzero"/><path fill="#263238" d="M 638.195312 90.039062 C 638.050781 90.039062 637.976562 90.113281 637.976562 90.257812 C 637.976562 90.40625 638.050781 90.476562 638.195312 90.476562 C 638.339844 90.476562 638.414062 90.40625 638.414062 90.257812 C 638.414062 90.113281 638.339844 90.039062 638.195312 90.039062 Z M 638.195312 90.039062 " fill-opacity="1" fill-rule="nonzero"/><path fill="#263238" d="M 642.582031 90.039062 C 642.4375 90.039062 642.363281 90.113281 642.363281 90.257812 C 642.363281 90.40625 642.4375 90.476562 642.582031 90.476562 C 642.726562 90.476562 642.800781 90.40625 642.800781 90.257812 C 642.800781 90.113281 642.726562 90.039062 642.582031 90.039062 Z M 642.582031 90.039062 " fill-opacity="1" fill-rule="nonzero"/><path fill="#263238" d="M 638.195312 85.652344 C 638.050781 85.652344 637.976562 85.726562 637.976562 85.871094 C 637.976562 86.019531 638.050781 86.089844 638.195312 86.089844 C 638.339844 86.089844 638.414062 86.019531 638.414062 85.871094 C 638.414062 85.726562 638.339844 85.652344 638.195312 85.652344 Z M 638.195312 85.652344 " fill-opacity="1" fill-rule="nonzero"/><path fill="#263238" d="M 642.582031 85.652344 C 642.4375 85.652344 642.363281 85.726562 642.363281 85.871094 C 642.363281 86.019531 642.4375 86.089844 642.582031 86.089844 C 642.726562 86.089844 642.800781 86.019531 642.800781 85.871094 C 642.800781 85.726562 642.726562 85.652344 642.582031 85.652344 Z M 642.582031 85.652344 " fill-opacity="1" fill-rule="nonzero"/><path fill="#263238" d="M 636.222656 92.453125 C 636.222656 92.421875 636.214844 92.394531 636.207031 92.367188 C 636.195312 92.339844 636.179688 92.316406 636.15625 92.296875 C 636.113281 92.253906 636.0625 92.230469 636 92.234375 L 636 92.453125 Z M 636.222656 92.453125 " fill-opacity="1" fill-rule="nonzero"/><path fill="#263238" d="M 636.15625 87.910156 C 636.113281 87.867188 636.0625 87.84375 636 87.84375 L 636 88.285156 C 636.101562 88.285156 636.167969 88.238281 636.203125 88.148438 C 636.242188 88.058594 636.226562 87.980469 636.15625 87.910156 Z M 636.15625 87.910156 " fill-opacity="1" fill-rule="nonzero"/><path fill="#263238" d="M 644.777344 96.621094 C 644.746094 96.613281 644.71875 96.613281 644.691406 96.621094 C 644.601562 96.65625 644.554688 96.722656 644.554688 96.820312 C 644.554688 96.917969 644.601562 96.988281 644.691406 97.023438 C 644.71875 97.035156 644.746094 97.042969 644.777344 97.042969 Z M 644.777344 96.621094 " fill-opacity="1" fill-rule="nonzero"/><path fill="#263238" d="M 640.390625 96.621094 C 640.242188 96.621094 640.167969 96.691406 640.167969 96.839844 C 640.167969 96.984375 640.242188 97.058594 640.390625 97.058594 C 640.535156 97.058594 640.609375 96.984375 640.609375 96.839844 C 640.609375 96.691406 640.535156 96.621094 640.390625 96.621094 Z M 640.390625 96.621094 " fill-opacity="1" fill-rule="nonzero"/><path fill="#263238" d="M 638.195312 98.8125 C 638.050781 98.8125 637.976562 98.886719 637.976562 99.03125 C 637.976562 99.179688 638.050781 99.25 638.195312 99.25 C 638.339844 99.25 638.414062 99.179688 638.414062 99.03125 C 638.414062 98.886719 638.339844 98.8125 638.195312 98.8125 Z M 638.195312 98.8125 " fill-opacity="1" fill-rule="nonzero"/><path fill="#263238" d="M 642.582031 98.8125 C 642.4375 98.8125 642.363281 98.886719 642.363281 99.03125 C 642.363281 99.179688 642.4375 99.25 642.582031 99.25 C 642.726562 99.25 642.800781 99.179688 642.800781 99.03125 C 642.800781 98.886719 642.726562 98.8125 642.582031 98.8125 Z M 642.582031 98.8125 " fill-opacity="1" fill-rule="nonzero"/><path fill="#263238" d="M 638.195312 94.425781 C 638.050781 94.425781 637.976562 94.5 637.976562 94.644531 C 637.976562 94.792969 638.050781 94.863281 638.195312 94.863281 C 638.339844 94.863281 638.414062 94.792969 638.414062 94.644531 C 638.414062 94.5 638.339844 94.425781 638.195312 94.425781 Z M 638.195312 94.425781 " fill-opacity="1" fill-rule="nonzero"/><path fill="#263238" d="M 642.582031 94.425781 C 642.4375 94.425781 642.363281 94.5 642.363281 94.644531 C 642.363281 94.792969 642.4375 94.863281 642.582031 94.863281 C 642.726562 94.863281 642.800781 94.792969 642.800781 94.644531 C 642.800781 94.5 642.726562 94.425781 642.582031 94.425781 Z M 642.582031 94.425781 " fill-opacity="1" fill-rule="nonzero"/><path fill="#263238" d="M 636 96.621094 L 636 97.058594 C 636.148438 97.058594 636.222656 96.984375 636.222656 96.839844 C 636.222656 96.691406 636.148438 96.621094 636 96.621094 Z M 636 96.621094 " fill-opacity="1" fill-rule="nonzero"/><path fill="#263238" d="M 644.554688 92.453125 C 644.558594 92.546875 644.601562 92.617188 644.691406 92.652344 C 644.71875 92.664062 644.746094 92.671875 644.777344 92.671875 L 644.777344 92.453125 Z M 644.554688 92.453125 " fill-opacity="1" fill-rule="nonzero"/><path fill="#263238" d="M 640.167969 92.453125 C 640.167969 92.597656 640.242188 92.671875 640.390625 92.671875 C 640.535156 92.671875 640.609375 92.597656 640.609375 92.453125 Z M 640.167969 92.453125 " fill-opacity="1" fill-rule="nonzero"/><path fill="#263238" d="M 636 92.453125 L 636 92.671875 C 636.148438 92.671875 636.222656 92.597656 636.222656 92.453125 Z M 636 92.453125 " fill-opacity="1" fill-rule="nonzero"/><path fill="#263238" d="M 631.820312 83.59375 C 631.796875 83.539062 631.757812 83.5 631.707031 83.476562 L 631.601562 83.476562 C 631.511719 83.480469 631.449219 83.523438 631.414062 83.609375 C 631.402344 83.636719 631.394531 83.664062 631.394531 83.691406 L 631.835938 83.691406 C 631.835938 83.660156 631.832031 83.625 631.820312 83.59375 Z M 631.820312 83.59375 " fill-opacity="1" fill-rule="nonzero"/><path fill="#263238" d="M 636 92.234375 C 635.90625 92.230469 635.835938 92.277344 635.800781 92.367188 C 635.789062 92.394531 635.78125 92.421875 635.78125 92.453125 L 636 92.453125 Z M 636 92.234375 " fill-opacity="1" fill-rule="nonzero"/><path fill="#263238" d="M 631.820312 92.367188 C 631.78125 92.277344 631.710938 92.234375 631.613281 92.234375 C 631.519531 92.230469 631.449219 92.277344 631.414062 92.367188 C 631.402344 92.394531 631.394531 92.421875 631.394531 92.453125 L 631.835938 92.453125 C 631.835938 92.421875 631.828125 92.394531 631.820312 92.367188 Z M 631.820312 92.367188 " fill-opacity="1" fill-rule="nonzero"/><path fill="#263238" d="M 635.78125 88.066406 C 635.78125 88.210938 635.855469 88.285156 636 88.285156 L 636 87.84375 C 635.855469 87.84375 635.78125 87.917969 635.78125 88.066406 Z M 635.78125 88.066406 " fill-opacity="1" fill-rule="nonzero"/><path fill="#263238" d="M 631.613281 87.84375 C 631.46875 87.84375 631.394531 87.917969 631.394531 88.066406 C 631.394531 88.210938 631.46875 88.285156 631.613281 88.285156 C 631.761719 88.285156 631.835938 88.210938 631.835938 88.066406 C 631.835938 87.917969 631.761719 87.84375 631.613281 87.84375 Z M 631.613281 87.84375 " fill-opacity="1" fill-rule="nonzero"/><path fill="#263238" d="M 629.421875 90.039062 C 629.273438 90.039062 629.203125 90.113281 629.203125 90.257812 C 629.203125 90.40625 629.273438 90.476562 629.421875 90.476562 C 629.566406 90.476562 629.640625 90.40625 629.640625 90.257812 C 629.640625 90.113281 629.566406 90.039062 629.421875 90.039062 Z M 629.421875 90.039062 " fill-opacity="1" fill-rule="nonzero"/><path fill="#263238" d="M 633.808594 90.476562 C 633.953125 90.476562 634.027344 90.40625 634.027344 90.257812 C 634.027344 90.113281 633.953125 90.039062 633.808594 90.039062 C 633.664062 90.039062 633.589844 90.113281 633.589844 90.257812 C 633.589844 90.40625 633.664062 90.476562 633.808594 90.476562 Z M 633.808594 90.476562 " fill-opacity="1" fill-rule="nonzero"/><path fill="#263238" d="M 629.421875 86.089844 C 629.566406 86.089844 629.640625 86.019531 629.640625 85.871094 C 629.640625 85.726562 629.566406 85.652344 629.421875 85.652344 C 629.273438 85.652344 629.203125 85.726562 629.203125 85.871094 C 629.203125 86.019531 629.273438 86.089844 629.421875 86.089844 Z M 629.421875 86.089844 " fill-opacity="1" fill-rule="nonzero"/><path fill="#263238" d="M 633.589844 85.871094 C 633.589844 86.019531 633.664062 86.089844 633.808594 86.089844 C 633.953125 86.089844 634.027344 86.019531 634.027344 85.871094 C 634.027344 85.726562 633.953125 85.652344 633.808594 85.652344 C 633.664062 85.652344 633.589844 85.726562 633.589844 85.871094 Z M 633.589844 85.871094 " fill-opacity="1" fill-rule="nonzero"/><path fill="#263238" d="M 631.613281 83.898438 C 631.710938 83.898438 631.78125 83.851562 631.820312 83.761719 C 631.824219 83.734375 631.824219 83.707031 631.820312 83.679688 L 631.378906 83.679688 C 631.378906 83.707031 631.386719 83.734375 631.398438 83.761719 C 631.4375 83.859375 631.511719 83.90625 631.613281 83.898438 Z M 631.613281 83.898438 " fill-opacity="1" fill-rule="nonzero"/><path fill="#263238" d="M 635.78125 96.839844 C 635.78125 96.984375 635.855469 97.058594 636 97.058594 L 636 96.621094 C 635.855469 96.621094 635.78125 96.691406 635.78125 96.839844 Z M 635.78125 96.839844 " fill-opacity="1" fill-rule="nonzero"/><path fill="#263238" d="M 631.613281 96.621094 C 631.46875 96.621094 631.394531 96.691406 631.394531 96.839844 C 631.394531 96.984375 631.46875 97.058594 631.613281 97.058594 C 631.761719 97.058594 631.835938 96.984375 631.835938 96.839844 C 631.835938 96.691406 631.761719 96.621094 631.613281 96.621094 Z M 631.613281 96.621094 " fill-opacity="1" fill-rule="nonzero"/><path fill="#263238" d="M 629.203125 94.644531 C 629.203125 94.792969 629.273438 94.863281 629.421875 94.863281 C 629.566406 94.863281 629.640625 94.792969 629.640625 94.644531 C 629.640625 94.5 629.566406 94.425781 629.421875 94.425781 C 629.273438 94.425781 629.203125 94.5 629.203125 94.644531 Z M 629.203125 94.644531 " fill-opacity="1" fill-rule="nonzero"/><path fill="#263238" d="M 633.589844 94.644531 C 633.589844 94.792969 633.664062 94.863281 633.808594 94.863281 C 633.953125 94.863281 634.027344 94.792969 634.027344 94.644531 C 634.027344 94.5 633.953125 94.425781 633.808594 94.425781 C 633.664062 94.425781 633.589844 94.5 633.589844 94.644531 Z M 633.589844 94.644531 " fill-opacity="1" fill-rule="nonzero"/><path fill="#263238" d="M 627.449219 96.839844 C 627.449219 96.691406 627.375 96.621094 627.226562 96.621094 L 627.226562 97.058594 C 627.375 97.058594 627.449219 96.984375 627.449219 96.839844 Z M 627.449219 96.839844 " fill-opacity="1" fill-rule="nonzero"/><path fill="#263238" d="M 635.78125 92.453125 C 635.78125 92.597656 635.855469 92.671875 636 92.671875 L 636 92.453125 Z M 635.78125 92.453125 " fill-opacity="1" fill-rule="nonzero"/><path fill="#263238" d="M 631.394531 92.453125 C 631.394531 92.597656 631.46875 92.671875 631.613281 92.671875 C 631.761719 92.671875 631.835938 92.597656 631.835938 92.453125 Z M 631.394531 92.453125 " fill-opacity="1" fill-rule="nonzero"/><path fill="#263238" d="M 627.226562 96.621094 C 627.195312 96.621094 627.164062 96.628906 627.132812 96.640625 L 627.074219 96.992188 C 627.117188 97.035156 627.167969 97.058594 627.226562 97.058594 Z M 627.226562 96.621094 " fill-opacity="1" fill-rule="nonzero"/><path stroke-linecap="round" transform="matrix(0.304646, 0, 0, 0.304646, 557.707848, -20.20624)" fill-opacity="1" fill="#ffffff" fill-rule="nonzero" stroke-linejoin="round" d="M 257.558023 391.512243 L 268.751854 393.320182 L 275.957964 345.685492 L 264.764132 343.877553 Z M 257.558023 391.512243 " stroke="#263238" stroke-width="1" stroke-opacity="1" stroke-miterlimit="4"/><path stroke-linecap="round" transform="matrix(0.304646, 0, 0, 0.304646, 557.707848, -20.20624)" fill-opacity="1" fill="#bdbdbd" fill-rule="nonzero" stroke-linejoin="round" d="M 300.884434 377.343648 C 300.884434 377.343648 297.255735 386.293584 296.153021 387.127031 C 295.037484 387.9733 288.60071 386.575674 279.381507 384.895958 C 270.162303 383.216242 266.815693 382.934152 266.815693 385.729405 C 266.815693 388.524657 274.073092 391.319909 280.497043 394.384429 C 286.933817 397.461771 295.870931 399.141487 298.102004 398.859397 C 300.333077 398.577308 303.974598 393.563805 305.359402 390.204373 C 306.744206 386.844941 308.718834 382.934152 308.718834 382.934152 " stroke="#263238" stroke-width="1" stroke-opacity="1" stroke-miterlimit="4"/><path stroke-linecap="round" transform="matrix(0.304646, 0, 0, 0.304646, 557.707848, -20.20624)" fill-opacity="1" fill="#ffffff" fill-rule="nonzero" stroke-linejoin="round" d="M 268.32872 344.672533 C 268.32872 344.672533 258.994116 339.005095 252.326541 335.325107 C 245.658967 331.657941 239.324771 334.004414 235.324227 334.671172 C 231.323682 335.337929 233.670155 337.325379 243.671517 340.671988 C 253.672878 344.005776 268.32872 344.672533 268.32872 344.672533 Z M 268.32872 344.672533 " stroke="#263238" stroke-width="1" stroke-opacity="1" stroke-miterlimit="4"/><path stroke-linecap="round" transform="matrix(0.304646, 0, 0, 0.304646, 557.707848, -20.20624)" fill-opacity="1" fill="#ffffff" fill-rule="nonzero" stroke-linejoin="round" d="M 268.32872 344.672533 C 268.32872 344.672533 277.329945 342.32606 286.997928 340.325788 C 296.665911 338.325515 296.99929 344.672533 292.998745 346.006048 C 290.049626 346.81385 287.049217 347.031829 283.99752 346.672805 Z M 268.32872 344.672533 " stroke="#263238" stroke-width="1" stroke-opacity="1" stroke-miterlimit="4"/><path stroke-linecap="round" transform="matrix(0.304646, 0, 0, 0.304646, 557.707848, -20.20624)" fill-opacity="1" fill="#bdbdbd" fill-rule="nonzero" stroke-linejoin="round" d="M 308.436744 369.252803 C 308.436744 369.252803 291.94732 367.25253 288.318621 366.73964 C 284.689922 366.22675 276.945277 363.290452 275.36814 366.124171 C 273.803824 368.970713 274.368004 370.932518 279.368684 372.881502 C 284.369365 374.830485 299.204718 379.882455 303.679686 380.703079 C 308.154655 381.523704 310.937085 380.42099 311.783354 377.343648 C 312.283422 375.035641 312.373178 372.70199 312.065443 370.355517 " stroke="#263238" stroke-width="1" stroke-opacity="1" stroke-miterlimit="4"/><path stroke-linecap="round" transform="matrix(0.304646, 0, 0, 0.304646, 557.707848, -20.20624)" fill-opacity="1" fill="#263238" fill-rule="nonzero" stroke-linejoin="round" d="M 112.294657 382.677707 C 112.294657 382.677707 114.102595 379.972211 118.61603 379.972211 C 123.142288 379.972211 131.694734 390.794197 138.464886 394.858853 C 145.235039 398.923509 145.683818 399.38511 144.337481 402.090606 C 142.991144 404.796103 143.888702 409.758317 138.464886 408.847937 C 133.053893 407.937556 119.064809 398.936331 115.910534 394.84603 C 112.756258 390.768552 111.845878 385.396026 112.294657 382.677707 Z M 112.294657 382.677707 " stroke="#263238" stroke-width="1" stroke-opacity="1" stroke-miterlimit="4"/><path stroke-linecap="round" transform="matrix(0.304646, 0, 0, 0.304646, 557.707848, -20.20624)" fill-opacity="1" fill="#bdbdbd" fill-rule="nonzero" stroke-linejoin="round" d="M 130.002196 368.675801 C 130.002196 368.675801 131.669089 359.328375 129.668817 353.994315 C 127.668545 348.673078 125.001515 341.325924 125.001515 337.004823 L 125.001515 320.335887 C 125.001515 315.335206 122.001107 314.001691 119.667455 318.668993 C 117.333804 323.336295 119.000698 328.670355 119.000698 332.004142 C 119.000698 335.325107 115.666911 341.325924 115.000153 343.672397 C 114.333396 346.006048 122.001107 358.328238 124.334758 363.67512 C 126.655586 369.00918 129.668817 370.329872 130.002196 368.675801 Z M 130.002196 368.675801 " stroke="#263238" stroke-width="1" stroke-opacity="1" stroke-miterlimit="4"/><path stroke-linecap="round" transform="matrix(0.304646, 0, 0, 0.304646, 557.707848, -20.20624)" fill-opacity="1" fill="#bdbdbd" fill-rule="nonzero" stroke-linejoin="round" d="M 119.064809 394.410074 C 119.064809 394.410074 116.359313 379.972211 115.910534 375.907555 C 115.461755 371.855721 106.434885 354.699539 103.729388 350.186104 C 101.023892 345.685492 98.305573 342.056792 99.664732 338.915339 C 101.011069 335.761064 104.665413 317.694501 106.883664 315.912207 C 109.101915 314.117091 118.526274 307.744429 121.013793 306.680181 C 124.373224 305.244088 124.62967 308.834321 123.732111 310.19348 C 122.834553 311.55264 116.064401 315.604473 116.064401 315.604473 L 110.999609 320.399998 C 113.192215 319.079305 115.448932 317.874013 117.769761 316.784121 C 120.013656 315.886563 128.60457 312.283508 131.771667 311.796262 C 134.938765 311.296194 137.195483 313.591379 134.028385 316.784121 C 130.874109 319.989686 120.48808 324.464654 118.692964 324.926255 C 116.885025 325.375034 115.974645 331.683585 115.077087 333.491524 C 114.179529 335.299462 121.39846 328.067708 124.078312 326.721371 C 126.758164 325.375034 138.516175 321.720691 137.618617 325.375034 C 136.721059 329.016556 127.694189 331.234806 125.886251 332.593966 C 124.091135 333.953125 120.475258 342.518394 120.475258 342.518394 C 122.962776 340.902789 125.668272 339.851364 128.60457 339.364118 C 132.656403 338.915339 136.27228 336.19702 135.374722 339.812897 C 134.464342 343.415952 128.60457 344.326332 126.783809 345.22389 C 124.97587 346.121448 122.719153 350.67335 122.719153 350.67335 C 122.719153 350.67335 129.950907 360.572134 130.399686 365.983127 C 130.566375 370.227294 130.258641 374.445817 129.502128 378.625873 L 134.00274 407.05282 Z M 119.064809 394.410074 " stroke="#263238" stroke-width="1" stroke-opacity="1" stroke-miterlimit="4"/><path stroke-linecap="round" transform="matrix(0.304646, 0, 0, 0.304646, 557.707848, -20.20624)" fill-opacity="1" fill="#ffffff" fill-rule="nonzero" stroke-linejoin="round" d="M 110.94832 320.399998 L 107.345265 333.042745 " stroke="#263238" stroke-width="1" stroke-opacity="1" stroke-miterlimit="4"/><path stroke-linecap="round" transform="matrix(0.304646, 0, 0, 0.304646, 557.707848, -20.20624)" fill-opacity="1" fill="#ffffff" fill-rule="nonzero" stroke-linejoin="round" d="M 115.012976 333.491524 L 112.999881 339.005095 " stroke="#263238" stroke-width="1" stroke-opacity="1" stroke-miterlimit="4"/><g clip-path="url(#id13)"><path fill="#fec56b" d="M 587.15625 121.757812 L 598.398438 121.757812 C 599.242188 120.347656 600.445312 117.636719 600.445312 112.734375 C 600.445312 107.238281 600.855469 105.863281 601.542969 103.800781 C 602.230469 101.738281 600.992188 102.277344 600.992188 102.277344 C 598.730469 101.296875 596.53125 100.199219 594.394531 98.972656 C 591.652344 97.328125 591.917969 96.363281 591.917969 96.363281 C 591.6875 97.132812 591.503906 97.910156 591.367188 98.699219 C 591.09375 100.222656 589.71875 107.636719 588.210938 111.496094 C 586.699219 115.351562 586.421875 116.855469 586.421875 116.855469 C 586.421875 116.855469 586.148438 117.683594 586.558594 119.882812 C 586.679688 120.53125 586.878906 121.15625 587.15625 121.757812 Z M 587.15625 121.757812 " fill-opacity="1" fill-rule="nonzero"/><path fill="#ffffff" d="M 587.15625 121.757812 L 598.398438 121.757812 C 599.242188 120.347656 600.445312 117.636719 600.445312 112.734375 C 600.445312 107.238281 600.855469 105.863281 601.542969 103.800781 C 602.230469 101.738281 600.992188 102.277344 600.992188 102.277344 C 598.730469 101.296875 596.53125 100.199219 594.394531 98.972656 C 591.652344 97.328125 591.917969 96.363281 591.917969 96.363281 C 591.6875 97.132812 591.503906 97.910156 591.367188 98.699219 C 591.09375 100.222656 589.71875 107.636719 588.210938 111.496094 C 586.699219 115.351562 586.421875 116.855469 586.421875 116.855469 C 586.421875 116.855469 586.148438 117.683594 586.558594 119.882812 C 586.679688 120.53125 586.878906 121.15625 587.15625 121.757812 Z M 587.15625 121.757812 " fill-opacity="0.4" fill-rule="nonzero"/><path stroke-linecap="round" transform="matrix(0.304646, 0, 0, 0.304646, 557.707848, -20.20624)" fill="none" stroke-linejoin="round" d="M 135.002877 463.291246 C 142.529542 447.93018 138.375131 430.927866 141.670451 414.758998 C 142.324386 411.514966 146.671132 403.231787 142.824454 401.88545 C 137.644262 400.026223 132.592292 397.833617 127.694189 395.294809 C 123.693645 393.243248 111.884345 388.575946 112.25619 382.677707 C 109.024981 392.897047 107.935089 403.962656 105.409104 414.37433 C 101.998383 425.003982 98.997975 435.005344 94.99743 444.993883 C 92.997158 450.9947 93.086914 459.765125 96.664324 465.996742 " stroke="#263238" stroke-width="1" stroke-opacity="1" stroke-miterlimit="4"/></g><g clip-path="url(#id14)"><g clip-path="url(#id15)"><g clip-path="url(#id16)"><path fill="#ffffff" d="M 553.839844 82.449219 C 552.558594 82.914062 551.242188 83.113281 549.878906 83.046875 C 548.519531 82.984375 547.226562 82.65625 545.996094 82.074219 C 544.761719 81.496094 543.6875 80.703125 542.773438 79.695312 C 541.859375 78.6875 541.171875 77.542969 540.714844 76.261719 C 540.695312 76.199219 540.652344 76.179688 540.59375 76.203125 C 540.53125 76.222656 540.511719 76.265625 540.535156 76.324219 C 541 77.605469 541.199219 78.925781 541.132812 80.285156 C 541.066406 81.644531 540.742188 82.941406 540.15625 84.167969 C 539.582031 85.402344 538.789062 86.476562 537.78125 87.390625 C 536.773438 88.308594 535.625 88.992188 534.34375 89.449219 C 534.285156 89.472656 534.265625 89.511719 534.285156 89.574219 C 534.308594 89.632812 534.347656 89.652344 534.410156 89.628906 C 535.691406 89.167969 537.007812 88.96875 538.371094 89.035156 C 539.730469 89.097656 541.023438 89.421875 542.253906 90.007812 C 543.488281 90.585938 544.5625 91.378906 545.476562 92.386719 C 546.390625 93.394531 547.078125 94.539062 547.535156 95.820312 C 547.554688 95.882812 547.597656 95.902344 547.65625 95.878906 C 547.71875 95.859375 547.738281 95.816406 547.714844 95.757812 C 545.804688 90.429688 548.582031 84.542969 553.90625 82.632812 C 553.964844 82.609375 553.984375 82.570312 553.964844 82.507812 C 553.941406 82.449219 553.902344 82.429688 553.839844 82.449219 Z M 547.140625 94.445312 C 546.617188 93.433594 545.941406 92.535156 545.121094 91.742188 C 544.296875 90.953125 543.367188 90.316406 542.335938 89.832031 C 541.304688 89.34375 540.226562 89.035156 539.09375 88.902344 C 537.960938 88.765625 536.835938 88.820312 535.722656 89.058594 C 536.734375 88.53125 537.632812 87.855469 538.421875 87.035156 C 539.210938 86.210938 539.847656 85.285156 540.332031 84.25 C 540.820312 83.222656 541.132812 82.140625 541.265625 81.007812 C 541.398438 79.875 541.347656 78.753906 541.109375 77.636719 C 541.632812 78.648438 542.308594 79.550781 543.132812 80.339844 C 543.953125 81.128906 544.882812 81.765625 545.914062 82.246094 C 546.945312 82.738281 548.027344 83.046875 549.160156 83.179688 C 550.292969 83.3125 551.414062 83.261719 552.53125 83.023438 C 548.390625 85.183594 546.175781 89.878906 547.140625 94.445312 Z M 547.140625 94.445312 " fill-opacity="1" fill-rule="nonzero"/></g></g></g></svg>