<svg xmlns="http://www.w3.org/2000/svg" xmlns:xlink="http://www.w3.org/1999/xlink" viewBox="0 0 500 500"><defs><clipPath id="freepik--clip-path--inject-330"><path d="M259.8,198.79a33.43,33.43,0,0,0-1.22,6.74c0,2.45,0,3.88,4.08,9.6s11,10.82,11,10.82,1.22.41,1.43-1.63,3.27-19.4,3.27-19.4,2-1,5.71,0,2,7.55,2.66,10.21-1.84,25.12-2.66,27.77-3.67,1.84-10.82-2.65S261,226,258.78,221.46s-3.06-9-6.12-12.25-5.72-5.92-6.74-8.58,5.71-4.08,8.57-3.47A34,34,0,0,1,259.8,198.79Z" style="fill:#fff;stroke:#263238;stroke-linecap:round;stroke-linejoin:round"></path></clipPath><clipPath id="freepik--clip-path-2--inject-330"><path d="M279.75,321.09s5.25,21.5,7.25,30.25,1.75,16.5,5,27.5,6.5,28.5,6.75,33-4.25,8.75-2,9.5,8.25-4.5,8.75-8.75-.5-7.5.25-9.25,3.25-2.25,2.75-5-4-4-4-5.5-1.75-15.25-.75-23.25c.92-7.38-5.5-24.25-5.5-24.25l1.25-26.25Z" style="fill:#90CAF9;stroke:#263238;stroke-linecap:round;stroke-linejoin:round"></path></clipPath><clipPath id="freepik--clip-path-3--inject-330"><path d="M292.33,324.17s3.34,23,1.34,39.33-8.34,47.34-11.67,52.34-10.67,14.66-12.33,17.33,4.85,1.21,7.53,1c6.4-.52,6.91-7.78,10.47-9,3.35-1.15,6.63-3,6.3-5.35s-4-8.32.7-17,17.66-33,17.33-45-4.67-17.34-2.67-21.67,6.34-14.67,6.34-14.67S298,326.5,292.33,324.17Z" style="fill:#fff;stroke:#263238;stroke-linecap:round;stroke-linejoin:round"></path></clipPath><clipPath id="freepik--clip-path-4--inject-330"><path d="M308.36,163.07s1,7.92-3.05,14.82-10.15,16.05-6.3,16.05,15-13.81,16.26-22.14a111.22,111.22,0,0,0,1.21-14.42Z" style="fill:#90CAF9;stroke:#263238;stroke-linecap:round;stroke-linejoin:round"></path></clipPath><clipPath id="freepik--clip-path-5--inject-330"><path d="M337.67,210.17l9.66,16.67s-11,13.33-15,18.33-6.61,4.4-6.61,4.4-1.05-3.73-2.39-7.4-5.67-4.4-4.67-2.07,2.34,4.74,1.34,5.07-6.67-2.67-9.67-2.67-9,0-8.33,1.34,6.67,1,6.67,1l2.66,2a66.51,66.51,0,0,0-8.66,1c-2.67.66-5,1.66-4.34,3a1.2,1.2,0,0,0,.66.6,2,2,0,0,1,1.27,1.89c0,.47.16.84.74.84h6.33s-7.33,2-7,3.67,4,.33,6.34.33a82.47,82.47,0,0,1,8.46,1s6,.64,10.2-1c23-9.08,35.05-26.09,36.67-29,2-3.55-15-25.67-15-25.67Z" style="fill:#fff;stroke:#263238;stroke-linecap:round;stroke-linejoin:round"></path></clipPath><clipPath id="freepik--clip-path-6--inject-330"><path d="M189.08,318.48s5.58,13.95,6,19.37-6.81,17.31-6.47,28.43-.77,28.81-.63,33.15,3.53,9.12,4.14,11.28.24,8.14,3,10.5,8.57,5.17,7.76-3.77-7.89-18.49-8-23.65,10.32-26.92,13-36.23-1.09-36.08-1.76-40.41S189.08,318.48,189.08,318.48Z" style="fill:#90CAF9;stroke:#263238;stroke-linecap:round;stroke-linejoin:round"></path></clipPath><clipPath id="freepik--clip-path-7--inject-330"><path d="M189.33,326.84s10.67,19.33,8.67,26-4.33,23.33-1.33,29.66,8.33,20,9.66,22.67,2,3.67.34,6.67-2,5,1.33,8,4,7.33,6.67,10,11.66,6,13,4-7-11-9-16.34-4.67-21-4.67-40.33-3-55-3-55Z" style="fill:#fff;stroke:#263238;stroke-linecap:round;stroke-linejoin:round"></path></clipPath><clipPath id="freepik--clip-path-8--inject-330"><path d="M188.55,144.68s-9.6,16.54-11.47,19.48c-6,9.49,9.56,23.76,15.74,14.14,2.4-3.73.27-6.67,1.87-10.67a72.14,72.14,0,0,1,3.2-6.94,23,23,0,0,1-3.47-7.74C193.35,148.41,189.62,142.54,188.55,144.68Z" style="fill:#fff;stroke:#263238;stroke-linecap:round;stroke-linejoin:round"></path></clipPath><clipPath id="freepik--clip-path-9--inject-330"><path d="M157.59,176.17s-10.14,4-10.67,10.41,2.93,19.48,8,28.55,12,27.49,15.21,27.49,54.17-39,54.17-39,10.94-1.34,12.55-1.34,4.53-.8,4-2.93l-2.4-.54s4.53,0,4.53-1.33a2.89,2.89,0,0,0-1.06-2.14l-3.21-.26,4.27-1.6s3.21-2.14.54-2.94a32.48,32.48,0,0,0-5.07-1.07s6.4.27,6.67-2.4-3.2-2.4-5.07-2.13-8.28.26-9.61.26-3.2-1.33-5.07,1.07-4.54,12.28-4.54,12.28-19.48,11.21-25.62,14.14-19.48,9.61-19.48,9.61l-13.61-32.29" style="fill:#fff;stroke:#263238;stroke-linecap:round;stroke-linejoin:round"></path></clipPath></defs><g id="freepik--Bar--inject-330"><path d="M137,148.72l1.83-13.11h3.4l2,13.46a4.11,4.11,0,0,0,.69,1.74l.17.23a4,4,0,0,1,.74,2.35V173.8a2.19,2.19,0,0,1-2.2,2.2h-6.31a2.2,2.2,0,0,1-2.21-2.2V153.39a4.11,4.11,0,0,1,1-2.62h0A4,4,0,0,0,137,148.72Z" style="fill:none;stroke:#263238;stroke-linecap:round;stroke-linejoin:round;stroke-width:0.75px"></path><path d="M142.07,136.08h-3a.66.66,0,0,1-.66-.66h0a.67.67,0,0,1,.66-.66h3a.67.67,0,0,1,.66.66h0A.66.66,0,0,1,142.07,136.08Z" style="fill:none;stroke:#263238;stroke-linecap:round;stroke-linejoin:round;stroke-width:0.75px"></path><path d="M157.09,148.72l1.82-13.11h3.4l2,13.46a4,4,0,0,0,.7,1.74l.16.23a4.05,4.05,0,0,1,.75,2.35V173.8a2.2,2.2,0,0,1-2.21,2.2h-6.31a2.2,2.2,0,0,1-2.21-2.2V153.39a4.11,4.11,0,0,1,.95-2.62h0A4.08,4.08,0,0,0,157.09,148.72Z" style="fill:none;stroke:#263238;stroke-linecap:round;stroke-linejoin:round;stroke-width:0.75px"></path><path d="M162.12,136.08h-3a.65.65,0,0,1-.66-.66h0a.66.66,0,0,1,.66-.66h3a.66.66,0,0,1,.66.66h0A.65.65,0,0,1,162.12,136.08Z" style="fill:none;stroke:#263238;stroke-linecap:round;stroke-linejoin:round;stroke-width:0.75px"></path><path d="M177.14,148.72,179,135.61h3.4l2,13.46a4.26,4.26,0,0,0,.7,1.74l.17.23a4.12,4.12,0,0,1,.74,2.35V173.8a2.2,2.2,0,0,1-2.2,2.2h-6.32a2.19,2.19,0,0,1-2.2-2.2V153.39a4.06,4.06,0,0,1,.95-2.62h0A4.07,4.07,0,0,0,177.14,148.72Z" style="fill:none;stroke:#263238;stroke-linecap:round;stroke-linejoin:round;stroke-width:0.75px"></path><path d="M182.17,136.08h-3a.66.66,0,0,1-.66-.66h0a.67.67,0,0,1,.66-.66h3a.67.67,0,0,1,.67.66h0A.66.66,0,0,1,182.17,136.08Z" style="fill:none;stroke:#263238;stroke-linecap:round;stroke-linejoin:round;stroke-width:0.75px"></path><path d="M197.19,148.72,199,135.61h3.41l2,13.46a4.26,4.26,0,0,0,.7,1.74l.17.23a4.12,4.12,0,0,1,.74,2.35V173.8a2.19,2.19,0,0,1-2.2,2.2h-6.32a2.2,2.2,0,0,1-2.2-2.2V153.39a4.11,4.11,0,0,1,.95-2.62h0A4,4,0,0,0,197.19,148.72Z" style="fill:none;stroke:#263238;stroke-linecap:round;stroke-linejoin:round;stroke-width:0.75px"></path><path d="M202.23,136.08h-3a.66.66,0,0,1-.66-.66h0a.67.67,0,0,1,.66-.66h3a.67.67,0,0,1,.66.66h0A.66.66,0,0,1,202.23,136.08Z" style="fill:none;stroke:#263238;stroke-linecap:round;stroke-linejoin:round;stroke-width:0.75px"></path><path d="M217.24,148.72l1.83-13.11h3.4l2,13.46a4,4,0,0,0,.7,1.74l.16.23a4.05,4.05,0,0,1,.75,2.35V173.8a2.2,2.2,0,0,1-2.21,2.2h-6.31a2.2,2.2,0,0,1-2.21-2.2V153.39a4.11,4.11,0,0,1,1-2.62h0A4,4,0,0,0,217.24,148.72Z" style="fill:none;stroke:#263238;stroke-linecap:round;stroke-linejoin:round;stroke-width:0.75px"></path><path d="M222.28,136.08h-3a.66.66,0,0,1-.67-.66h0a.67.67,0,0,1,.67-.66h3a.67.67,0,0,1,.66.66h0A.66.66,0,0,1,222.28,136.08Z" style="fill:none;stroke:#263238;stroke-linecap:round;stroke-linejoin:round;stroke-width:0.75px"></path><path d="M237.3,148.72l1.82-13.11h3.4l2,13.46a4,4,0,0,0,.7,1.74l.16.23a4.05,4.05,0,0,1,.75,2.35V173.8A2.2,2.2,0,0,1,244,176h-6.31a2.19,2.19,0,0,1-2.2-2.2V153.39a4.06,4.06,0,0,1,.95-2.62h0A4.07,4.07,0,0,0,237.3,148.72Z" style="fill:none;stroke:#263238;stroke-linecap:round;stroke-linejoin:round;stroke-width:0.75px"></path><path d="M242.33,136.08h-3a.65.65,0,0,1-.66-.66h0a.66.66,0,0,1,.66-.66h3a.66.66,0,0,1,.66.66h0A.65.65,0,0,1,242.33,136.08Z" style="fill:none;stroke:#263238;stroke-linecap:round;stroke-linejoin:round;stroke-width:0.75px"></path><path d="M257.35,148.72l1.82-13.11h3.4l2,13.46a4.26,4.26,0,0,0,.7,1.74l.17.23a4.12,4.12,0,0,1,.74,2.35V173.8A2.2,2.2,0,0,1,264,176h-6.32a2.19,2.19,0,0,1-2.2-2.2V153.39a4.06,4.06,0,0,1,.95-2.62h0A4.07,4.07,0,0,0,257.35,148.72Z" style="fill:none;stroke:#263238;stroke-linecap:round;stroke-linejoin:round;stroke-width:0.75px"></path><path d="M262.38,136.08h-3a.66.66,0,0,1-.66-.66h0a.67.67,0,0,1,.66-.66h3a.67.67,0,0,1,.67.66h0A.66.66,0,0,1,262.38,136.08Z" style="fill:none;stroke:#263238;stroke-linecap:round;stroke-linejoin:round;stroke-width:0.75px"></path><path d="M277.4,148.72l1.83-13.11h3.4l2,13.46a4.11,4.11,0,0,0,.69,1.74l.17.23a4.12,4.12,0,0,1,.74,2.35V173.8a2.19,2.19,0,0,1-2.2,2.2h-6.31a2.2,2.2,0,0,1-2.21-2.2V153.39a4.11,4.11,0,0,1,.95-2.62h0A4,4,0,0,0,277.4,148.72Z" style="fill:none;stroke:#263238;stroke-linecap:round;stroke-linejoin:round;stroke-width:0.75px"></path><path d="M282.44,136.08h-3a.66.66,0,0,1-.66-.66h0a.67.67,0,0,1,.66-.66h3a.67.67,0,0,1,.66.66h0A.66.66,0,0,1,282.44,136.08Z" style="fill:none;stroke:#263238;stroke-linecap:round;stroke-linejoin:round;stroke-width:0.75px"></path><path d="M297.45,148.72l1.83-13.11h3.4l2,13.46a4,4,0,0,0,.7,1.74l.16.23a4.05,4.05,0,0,1,.75,2.35V173.8a2.2,2.2,0,0,1-2.21,2.2H297.8a2.2,2.2,0,0,1-2.21-2.2V153.39a4.11,4.11,0,0,1,1-2.62h0A4,4,0,0,0,297.45,148.72Z" style="fill:none;stroke:#263238;stroke-linecap:round;stroke-linejoin:round;stroke-width:0.75px"></path><path d="M302.49,136.08h-3a.65.65,0,0,1-.66-.66h0a.66.66,0,0,1,.66-.66h3a.66.66,0,0,1,.66.66h0A.65.65,0,0,1,302.49,136.08Z" style="fill:none;stroke:#263238;stroke-linecap:round;stroke-linejoin:round;stroke-width:0.75px"></path><path d="M317.51,148.72l1.82-13.11h3.4l2,13.46a4.13,4.13,0,0,0,.7,1.74l.17.23a4.12,4.12,0,0,1,.74,2.35V173.8a2.2,2.2,0,0,1-2.2,2.2h-6.32a2.19,2.19,0,0,1-2.2-2.2V153.39a4.06,4.06,0,0,1,1-2.62h0A4.07,4.07,0,0,0,317.51,148.72Z" style="fill:none;stroke:#263238;stroke-linecap:round;stroke-linejoin:round;stroke-width:0.75px"></path><path d="M322.54,136.08h-3a.65.65,0,0,1-.66-.66h0a.66.66,0,0,1,.66-.66h3a.66.66,0,0,1,.66.66h0A.65.65,0,0,1,322.54,136.08Z" style="fill:none;stroke:#263238;stroke-linecap:round;stroke-linejoin:round;stroke-width:0.75px"></path><path d="M337.56,148.72l1.82-13.11h3.4l2,13.46a4.26,4.26,0,0,0,.7,1.74l.17.23a4.12,4.12,0,0,1,.74,2.35V173.8a2.19,2.19,0,0,1-2.2,2.2H337.9a2.2,2.2,0,0,1-2.2-2.2V153.39a4.11,4.11,0,0,1,.95-2.62h0A4,4,0,0,0,337.56,148.72Z" style="fill:none;stroke:#263238;stroke-linecap:round;stroke-linejoin:round;stroke-width:0.75px"></path><path d="M342.6,136.08h-3a.66.66,0,0,1-.66-.66h0a.67.67,0,0,1,.66-.66h3a.67.67,0,0,1,.66.66h0A.66.66,0,0,1,342.6,136.08Z" style="fill:none;stroke:#263238;stroke-linecap:round;stroke-linejoin:round;stroke-width:0.75px"></path><path d="M357.61,148.72l1.83-13.11h3.4l2,13.46a4,4,0,0,0,.7,1.74l.16.23a4.05,4.05,0,0,1,.75,2.35V173.8a2.2,2.2,0,0,1-2.21,2.2H358a2.2,2.2,0,0,1-2.21-2.2V153.39a4.11,4.11,0,0,1,.95-2.62h0A4,4,0,0,0,357.61,148.72Z" style="fill:none;stroke:#263238;stroke-linecap:round;stroke-linejoin:round;stroke-width:0.75px"></path><path d="M362.65,136.08h-3a.66.66,0,0,1-.67-.66h0a.67.67,0,0,1,.67-.66h3a.67.67,0,0,1,.66.66h0A.66.66,0,0,1,362.65,136.08Z" style="fill:none;stroke:#263238;stroke-linecap:round;stroke-linejoin:round;stroke-width:0.75px"></path><path d="M137,205.5l1.83-13.11h3.4l2,13.46a4.06,4.06,0,0,0,.69,1.74l.17.23a4,4,0,0,1,.74,2.35v20.41a2.19,2.19,0,0,1-2.2,2.2h-6.31a2.2,2.2,0,0,1-2.21-2.2V210.17a4.09,4.09,0,0,1,1-2.61h0A4.05,4.05,0,0,0,137,205.5Z" style="fill:none;stroke:#263238;stroke-linecap:round;stroke-linejoin:round;stroke-width:0.75px"></path><path d="M142.07,192.87h-3a.67.67,0,0,1-.66-.67h0a.67.67,0,0,1,.66-.66h3a.67.67,0,0,1,.66.66h0A.67.67,0,0,1,142.07,192.87Z" style="fill:none;stroke:#263238;stroke-linecap:round;stroke-linejoin:round;stroke-width:0.75px"></path><path d="M157.09,205.5l1.82-13.11h3.4l2,13.46a4,4,0,0,0,.7,1.74l.16.23a4.05,4.05,0,0,1,.75,2.35v20.41a2.2,2.2,0,0,1-2.21,2.2h-6.31a2.2,2.2,0,0,1-2.21-2.2V210.17a4.09,4.09,0,0,1,.95-2.61h0A4.15,4.15,0,0,0,157.09,205.5Z" style="fill:none;stroke:#263238;stroke-linecap:round;stroke-linejoin:round;stroke-width:0.75px"></path><path d="M162.12,192.87h-3a.66.66,0,0,1-.66-.67h0a.66.66,0,0,1,.66-.66h3a.66.66,0,0,1,.66.66h0A.66.66,0,0,1,162.12,192.87Z" style="fill:none;stroke:#263238;stroke-linecap:round;stroke-linejoin:round;stroke-width:0.75px"></path><path d="M177.14,205.5,179,192.39h3.4l2,13.46a4.21,4.21,0,0,0,.7,1.74l.17.23a4.12,4.12,0,0,1,.74,2.35v20.41a2.2,2.2,0,0,1-2.2,2.2h-6.32a2.19,2.19,0,0,1-2.2-2.2V210.17a4,4,0,0,1,.95-2.61h0A4.14,4.14,0,0,0,177.14,205.5Z" style="fill:none;stroke:#263238;stroke-linecap:round;stroke-linejoin:round;stroke-width:0.75px"></path><path d="M182.17,192.87h-3a.67.67,0,0,1-.66-.67h0a.67.67,0,0,1,.66-.66h3a.67.67,0,0,1,.67.66h0A.67.67,0,0,1,182.17,192.87Z" style="fill:none;stroke:#263238;stroke-linecap:round;stroke-linejoin:round;stroke-width:0.75px"></path><path d="M197.19,205.5,199,192.39h3.41l2,13.46a4.21,4.21,0,0,0,.7,1.74l.17.23a4.12,4.12,0,0,1,.74,2.35v20.41a2.19,2.19,0,0,1-2.2,2.2h-6.32a2.2,2.2,0,0,1-2.2-2.2V210.17a4.09,4.09,0,0,1,.95-2.61h0A4.05,4.05,0,0,0,197.19,205.5Z" style="fill:none;stroke:#263238;stroke-linecap:round;stroke-linejoin:round;stroke-width:0.75px"></path><path d="M202.23,192.87h-3a.67.67,0,0,1-.66-.67h0a.67.67,0,0,1,.66-.66h3a.67.67,0,0,1,.66.66h0A.67.67,0,0,1,202.23,192.87Z" style="fill:none;stroke:#263238;stroke-linecap:round;stroke-linejoin:round;stroke-width:0.75px"></path><path d="M217.24,205.5l1.83-13.11h3.4l2,13.46a4,4,0,0,0,.7,1.74l.16.23a4.05,4.05,0,0,1,.75,2.35v20.41a2.2,2.2,0,0,1-2.21,2.2h-6.31a2.2,2.2,0,0,1-2.21-2.2V210.17a4.09,4.09,0,0,1,1-2.61h0A4.05,4.05,0,0,0,217.24,205.5Z" style="fill:none;stroke:#263238;stroke-linecap:round;stroke-linejoin:round;stroke-width:0.75px"></path><path d="M222.28,192.87h-3a.67.67,0,0,1-.67-.67h0a.67.67,0,0,1,.67-.66h3a.67.67,0,0,1,.66.66h0A.67.67,0,0,1,222.28,192.87Z" style="fill:none;stroke:#263238;stroke-linecap:round;stroke-linejoin:round;stroke-width:0.75px"></path><path d="M237.3,205.5l1.82-13.11h3.4l2,13.46a4,4,0,0,0,.7,1.74l.16.23a4.05,4.05,0,0,1,.75,2.35v20.41a2.2,2.2,0,0,1-2.21,2.2h-6.31a2.19,2.19,0,0,1-2.2-2.2V210.17a4,4,0,0,1,.95-2.61h0A4.14,4.14,0,0,0,237.3,205.5Z" style="fill:none;stroke:#263238;stroke-linecap:round;stroke-linejoin:round;stroke-width:0.75px"></path><path d="M242.33,192.87h-3a.66.66,0,0,1-.66-.67h0a.66.66,0,0,1,.66-.66h3a.66.66,0,0,1,.66.66h0A.66.66,0,0,1,242.33,192.87Z" style="fill:none;stroke:#263238;stroke-linecap:round;stroke-linejoin:round;stroke-width:0.75px"></path><path d="M257.35,205.5l1.82-13.11h3.4l2,13.46a4.21,4.21,0,0,0,.7,1.74l.17.23a4.12,4.12,0,0,1,.74,2.35v20.41a2.2,2.2,0,0,1-2.2,2.2h-6.32a2.19,2.19,0,0,1-2.2-2.2V210.17a4,4,0,0,1,.95-2.61h0A4.14,4.14,0,0,0,257.35,205.5Z" style="fill:none;stroke:#263238;stroke-linecap:round;stroke-linejoin:round;stroke-width:0.75px"></path><path d="M262.38,192.87h-3a.67.67,0,0,1-.66-.67h0a.67.67,0,0,1,.66-.66h3a.67.67,0,0,1,.67.66h0A.67.67,0,0,1,262.38,192.87Z" style="fill:none;stroke:#263238;stroke-linecap:round;stroke-linejoin:round;stroke-width:0.75px"></path><path d="M277.4,205.5l1.83-13.11h3.4l2,13.46a4.06,4.06,0,0,0,.69,1.74l.17.23a4.12,4.12,0,0,1,.74,2.35v20.41a2.19,2.19,0,0,1-2.2,2.2h-6.31a2.2,2.2,0,0,1-2.21-2.2V210.17a4.09,4.09,0,0,1,.95-2.61h0A4.05,4.05,0,0,0,277.4,205.5Z" style="fill:none;stroke:#263238;stroke-linecap:round;stroke-linejoin:round;stroke-width:0.75px"></path><path d="M282.44,192.87h-3a.67.67,0,0,1-.66-.67h0a.67.67,0,0,1,.66-.66h3a.67.67,0,0,1,.66.66h0A.67.67,0,0,1,282.44,192.87Z" style="fill:none;stroke:#263238;stroke-linecap:round;stroke-linejoin:round;stroke-width:0.75px"></path><path d="M297.45,205.5l1.83-13.11h3.4l2,13.46a4,4,0,0,0,.7,1.74l.16.23a4.05,4.05,0,0,1,.75,2.35v20.41a2.2,2.2,0,0,1-2.21,2.2H297.8a2.2,2.2,0,0,1-2.21-2.2V210.17a4.09,4.09,0,0,1,1-2.61h0A4.05,4.05,0,0,0,297.45,205.5Z" style="fill:none;stroke:#263238;stroke-linecap:round;stroke-linejoin:round;stroke-width:0.75px"></path><path d="M302.49,192.87h-3a.66.66,0,0,1-.66-.67h0a.66.66,0,0,1,.66-.66h3a.66.66,0,0,1,.66.66h0A.66.66,0,0,1,302.49,192.87Z" style="fill:none;stroke:#263238;stroke-linecap:round;stroke-linejoin:round;stroke-width:0.75px"></path><path d="M317.51,205.5l1.82-13.11h3.4l2,13.46a4.08,4.08,0,0,0,.7,1.74l.17.23a4.12,4.12,0,0,1,.74,2.35v20.41a2.2,2.2,0,0,1-2.2,2.2h-6.32a2.19,2.19,0,0,1-2.2-2.2V210.17a4,4,0,0,1,1-2.61h0A4.14,4.14,0,0,0,317.51,205.5Z" style="fill:none;stroke:#263238;stroke-linecap:round;stroke-linejoin:round;stroke-width:0.75px"></path><path d="M322.54,192.87h-3a.66.66,0,0,1-.66-.67h0a.66.66,0,0,1,.66-.66h3a.66.66,0,0,1,.66.66h0A.66.66,0,0,1,322.54,192.87Z" style="fill:none;stroke:#263238;stroke-linecap:round;stroke-linejoin:round;stroke-width:0.75px"></path><path d="M337.56,205.5l1.82-13.11h3.4l2,13.46a4.21,4.21,0,0,0,.7,1.74l.17.23a4.12,4.12,0,0,1,.74,2.35v20.41a2.19,2.19,0,0,1-2.2,2.2H337.9a2.2,2.2,0,0,1-2.2-2.2V210.17a4.09,4.09,0,0,1,.95-2.61h0A4.05,4.05,0,0,0,337.56,205.5Z" style="fill:none;stroke:#263238;stroke-linecap:round;stroke-linejoin:round;stroke-width:0.75px"></path><path d="M342.6,192.87h-3a.67.67,0,0,1-.66-.67h0a.67.67,0,0,1,.66-.66h3a.67.67,0,0,1,.66.66h0A.67.67,0,0,1,342.6,192.87Z" style="fill:none;stroke:#263238;stroke-linecap:round;stroke-linejoin:round;stroke-width:0.75px"></path><path d="M357.61,205.5l1.83-13.11h3.4l2,13.46a4,4,0,0,0,.7,1.74l.16.23a4.05,4.05,0,0,1,.75,2.35v20.41a2.2,2.2,0,0,1-2.21,2.2H358a2.2,2.2,0,0,1-2.21-2.2V210.17a4.09,4.09,0,0,1,.95-2.61h0A4.05,4.05,0,0,0,357.61,205.5Z" style="fill:none;stroke:#263238;stroke-linecap:round;stroke-linejoin:round;stroke-width:0.75px"></path><path d="M362.65,192.87h-3a.67.67,0,0,1-.67-.67h0a.67.67,0,0,1,.67-.66h3a.67.67,0,0,1,.66.66h0A.67.67,0,0,1,362.65,192.87Z" style="fill:none;stroke:#263238;stroke-linecap:round;stroke-linejoin:round;stroke-width:0.75px"></path><line x1="81.68" y1="232.75" x2="416" y2="232.75" style="fill:none;stroke:#263238;stroke-linecap:round;stroke-linejoin:round;stroke-width:0.75px"></line><line x1="81.68" y1="176.08" x2="416" y2="176.08" style="fill:none;stroke:#263238;stroke-linecap:round;stroke-linejoin:round;stroke-width:0.75px"></line><line x1="81.68" y1="180.75" x2="416" y2="180.75" style="fill:none;stroke:#263238;stroke-linecap:round;stroke-linejoin:round;stroke-width:0.75px"></line><line x1="81.68" y1="242.08" x2="416" y2="242.08" style="fill:none;stroke:#263238;stroke-linecap:round;stroke-linejoin:round;stroke-width:0.75px"></line><line x1="81.68" y1="247.68" x2="416" y2="247.68" style="fill:none;stroke:#263238;stroke-linecap:round;stroke-linejoin:round;stroke-width:0.75px"></line><path d="M427.33,270.34c0,3.09-13.07,5.59-29.19,5.59s-29.2-2.5-29.2-5.59,13.07-5.6,29.2-5.6S427.33,267.24,427.33,270.34Z" style="fill:none;stroke:#263238;stroke-linecap:round;stroke-linejoin:round;stroke-width:0.75px"></path><path d="M427.33,281.53c0,3.09-13.07,5.6-29.19,5.6s-29.2-2.51-29.2-5.6v-7" style="fill:none;stroke:#263238;stroke-linecap:round;stroke-linejoin:round;stroke-width:0.75px"></path><line x1="392.68" y1="376.86" x2="392.68" y2="287.71" style="fill:none;stroke:#263238;stroke-linecap:round;stroke-linejoin:round;stroke-width:0.75px"></line><line x1="401.07" y1="287.31" x2="401.07" y2="328.48" style="fill:none;stroke:#263238;stroke-linecap:round;stroke-linejoin:round;stroke-width:0.75px"></line><path d="M328.59,270.34c0,3.09-13.07,5.59-29.2,5.59s-29.19-2.5-29.19-5.59,13.07-5.6,29.19-5.6S328.59,267.24,328.59,270.34Z" style="fill:none;stroke:#263238;stroke-linecap:round;stroke-linejoin:round;stroke-width:0.75px"></path><path d="M328.59,281.53c0,3.09-13.07,5.6-29.2,5.6s-29.19-2.51-29.19-5.6v-7" style="fill:none;stroke:#263238;stroke-linecap:round;stroke-linejoin:round;stroke-width:0.75px"></path><line x1="293.93" y1="376.86" x2="293.93" y2="287.71" style="fill:none;stroke:#263238;stroke-linecap:round;stroke-linejoin:round;stroke-width:0.75px"></line><line x1="302.33" y1="287.31" x2="302.33" y2="328.48" style="fill:none;stroke:#263238;stroke-linecap:round;stroke-linejoin:round;stroke-width:0.75px"></line><path d="M229.84,270.34c0,3.09-13.07,5.59-29.19,5.59s-29.2-2.5-29.2-5.59,13.08-5.6,29.2-5.6S229.84,267.24,229.84,270.34Z" style="fill:none;stroke:#263238;stroke-linecap:round;stroke-linejoin:round;stroke-width:0.75px"></path><path d="M229.84,281.53c0,3.09-13.07,5.6-29.19,5.6s-29.2-2.51-29.2-5.6v-7" style="fill:none;stroke:#263238;stroke-linecap:round;stroke-linejoin:round;stroke-width:0.75px"></path><line x1="195.19" y1="376.86" x2="195.19" y2="287.71" style="fill:none;stroke:#263238;stroke-linecap:round;stroke-linejoin:round;stroke-width:0.75px"></line><line x1="203.58" y1="287.31" x2="203.58" y2="328.48" style="fill:none;stroke:#263238;stroke-linecap:round;stroke-linejoin:round;stroke-width:0.75px"></line><path d="M131.1,270.34c0,3.09-13.07,5.59-29.2,5.59s-29.19-2.5-29.19-5.59,13.07-5.6,29.19-5.6S131.1,267.24,131.1,270.34Z" style="fill:none;stroke:#263238;stroke-linecap:round;stroke-linejoin:round;stroke-width:0.75px"></path><path d="M131.1,281.53c0,3.09-13.07,5.6-29.2,5.6s-29.19-2.51-29.19-5.6v-7" style="fill:none;stroke:#263238;stroke-linecap:round;stroke-linejoin:round;stroke-width:0.75px"></path><line x1="96.44" y1="376.86" x2="96.44" y2="287.71" style="fill:none;stroke:#263238;stroke-linecap:round;stroke-linejoin:round;stroke-width:0.75px"></line><line x1="104.84" y1="287.31" x2="104.84" y2="328.48" style="fill:none;stroke:#263238;stroke-linecap:round;stroke-linejoin:round;stroke-width:0.75px"></line><path d="M173.33,112.5c0,2-13.13,3.67-29.33,3.67s-29.33-1.64-29.33-3.67,13.13-3.66,29.33-3.66S173.33,110.48,173.33,112.5Z" style="fill:none;stroke:#263238;stroke-linecap:round;stroke-linejoin:round;stroke-width:0.75px"></path><polyline points="114.67 112.5 141.33 82.84 141.33 63.51" style="fill:none;stroke:#263238;stroke-linecap:round;stroke-linejoin:round;stroke-width:0.75px"></polyline><polyline points="150 66.84 150 82.84 173.33 112.5" style="fill:none;stroke:#263238;stroke-linecap:round;stroke-linejoin:round;stroke-width:0.75px"></polyline><path d="M292,112.5c0,2-13.13,3.67-29.33,3.67s-29.34-1.64-29.34-3.67,13.14-3.66,29.34-3.66S292,110.48,292,112.5Z" style="fill:none;stroke:#263238;stroke-linecap:round;stroke-linejoin:round;stroke-width:0.75px"></path><polyline points="233.33 112.5 260 82.84 260 63.51" style="fill:none;stroke:#263238;stroke-linecap:round;stroke-linejoin:round;stroke-width:0.75px"></polyline><polyline points="268.67 66.84 268.67 82.84 292 112.5" style="fill:none;stroke:#263238;stroke-linecap:round;stroke-linejoin:round;stroke-width:0.75px"></polyline><path d="M410.67,112.5c0,2-13.14,3.67-29.34,3.67S352,114.53,352,112.5s13.13-3.66,29.33-3.66S410.67,110.48,410.67,112.5Z" style="fill:none;stroke:#263238;stroke-linecap:round;stroke-linejoin:round;stroke-width:0.75px"></path><polyline points="352 112.5 378.67 82.84 378.67 63.51" style="fill:none;stroke:#263238;stroke-linecap:round;stroke-linejoin:round;stroke-width:0.75px"></polyline><polyline points="387.33 66.84 387.33 82.84 410.67 112.5" style="fill:none;stroke:#263238;stroke-linecap:round;stroke-linejoin:round;stroke-width:0.75px"></polyline></g><g id="freepik--character-2--inject-330"><path d="M259.8,198.79a33.43,33.43,0,0,0-1.22,6.74c0,2.45,0,3.88,4.08,9.6s11,10.82,11,10.82,1.22.41,1.43-1.63,3.27-19.4,3.27-19.4,2-1,5.71,0,2,7.55,2.66,10.21-1.84,25.12-2.66,27.77-3.67,1.84-10.82-2.65S261,226,258.78,221.46s-3.06-9-6.12-12.25-5.72-5.92-6.74-8.58,5.71-4.08,8.57-3.47A34,34,0,0,1,259.8,198.79Z" style="fill:#fff"></path><g style="clip-path:url(#freepik--clip-path--inject-330)"><path d="M283,217.5c-5,13-9.5,18.5-15.5,13.5a81.4,81.4,0,0,1-7.66-7.48c2.59,5,7.25,12.84,13.44,16.73,7.15,4.49,10,5.31,10.82,2.65.73-2.34,2.72-20.12,2.75-26.08C285.76,214.18,284.47,213.7,283,217.5Z" style="fill:#90CAF9"></path><path d="M283,217.5c-5,13-9.5,18.5-15.5,13.5a81.4,81.4,0,0,1-7.66-7.48c2.59,5,7.25,12.84,13.44,16.73,7.15,4.49,10,5.31,10.82,2.65.73-2.34,2.72-20.12,2.75-26.08C285.76,214.18,284.47,213.7,283,217.5Z" style="fill:#fff;opacity:0.5"></path></g><path d="M259.8,198.79a33.43,33.43,0,0,0-1.22,6.74c0,2.45,0,3.88,4.08,9.6s11,10.82,11,10.82,1.22.41,1.43-1.63,3.27-19.4,3.27-19.4,2-1,5.71,0,2,7.55,2.66,10.21-1.84,25.12-2.66,27.77-3.67,1.84-10.82-2.65S261,226,258.78,221.46s-3.06-9-6.12-12.25-5.72-5.92-6.74-8.58,5.71-4.08,8.57-3.47A34,34,0,0,1,259.8,198.79Z" style="fill:none;stroke:#263238;stroke-linecap:round;stroke-linejoin:round"></path><path d="M242.57,183.32l.79-15.61,4-.36L251.14,183a4.81,4.81,0,0,0,1,2l.22.26a4.78,4.78,0,0,1,1.11,2.68l2.12,24a2.6,2.6,0,0,1-2.37,2.82l-7.43.65A2.6,2.6,0,0,1,243,213l-2.11-24a4.85,4.85,0,0,1,.84-3.18h0A4.73,4.73,0,0,0,242.57,183.32Z" style="fill:#90CAF9;stroke:#263238;stroke-linecap:round;stroke-linejoin:round"></path><path d="M247.19,167.93l-3.56.31a.78.78,0,0,1-.85-.71h0a.78.78,0,0,1,.71-.84l3.56-.32a.78.78,0,0,1,.85.71h0A.78.78,0,0,1,247.19,167.93Z" style="fill:#90CAF9;stroke:#263238;stroke-linecap:round;stroke-linejoin:round"></path><rect x="241.72" y="190.29" width="12.67" height="16.22" transform="translate(-16.45 22.53) rotate(-5.03)" style="fill:#fff;stroke:#263238;stroke-linecap:round;stroke-linejoin:round"></rect><polygon points="242.85 177.87 249.76 177.26 249.05 174.34 243 174.87 242.85 177.87" style="fill:#fff;stroke:#263238;stroke-linecap:round;stroke-linejoin:round"></polygon><path d="M257.15,195.93s-5.31-1-5.72.62,2.86,2.24,5.11,2.65,3.06.41,3.47-1.22S257.15,195.93,257.15,195.93Z" style="fill:#fff;stroke:#263238;stroke-linecap:round;stroke-linejoin:round"></path><ellipse cx="300" cy="427.17" rx="39" ry="15.33" style="fill:#90CAF9"></ellipse><ellipse cx="300" cy="427.17" rx="39" ry="15.33" style="fill:#fff;opacity:0.5"></ellipse><path d="M308.25,399.34l3.5,7.25-1.75.75-4.25-4S305.75,401.59,308.25,399.34Z" style="fill:#263238;stroke:#263238;stroke-linecap:round;stroke-linejoin:round"></path><path d="M279.75,321.09s5.25,21.5,7.25,30.25,1.75,16.5,5,27.5,6.5,28.5,6.75,33-4.25,8.75-2,9.5,8.25-4.5,8.75-8.75-.5-7.5.25-9.25,3.25-2.25,2.75-5-4-4-4-5.5-1.75-15.25-.75-23.25c.92-7.38-5.5-24.25-5.5-24.25l1.25-26.25Z" style="fill:#90CAF9"></path><g style="clip-path:url(#freepik--clip-path-2--inject-330)"><path d="M279.75,321.09s5.25,21.5,7.25,30.25,1.75,16.5,5,27.5,6.5,28.5,6.75,33-4.25,8.75-2,9.5,8.25-4.5,8.75-8.75-.5-7.5.25-9.25,3.25-2.25,2.75-5-4-4-4-5.5-1.75-15.25-.75-23.25c.92-7.38-5.5-24.25-5.5-24.25l1.25-26.25Z" style="fill:#fff;opacity:0.5"></path></g><path d="M279.75,321.09s5.25,21.5,7.25,30.25,1.75,16.5,5,27.5,6.5,28.5,6.75,33-4.25,8.75-2,9.5,8.25-4.5,8.75-8.75-.5-7.5.25-9.25,3.25-2.25,2.75-5-4-4-4-5.5-1.75-15.25-.75-23.25c.92-7.38-5.5-24.25-5.5-24.25l1.25-26.25Z" style="fill:none;stroke:#263238;stroke-linecap:round;stroke-linejoin:round"></path><path d="M305.75,403.34c.75-1.75,3.25-2.25,2.75-5-.42-2.32-3-3.57-3.76-4.81a13.26,13.26,0,0,1-7.77,6.68,115.66,115.66,0,0,1,1.78,11.63c.25,4.5-4.25,8.75-2,9.5s8.25-4.5,8.75-8.75S305,405.09,305.75,403.34Z" style="fill:#263238;stroke:#263238;stroke-linecap:round;stroke-linejoin:round"></path><polygon points="293.1 420.68 292.24 430.02 290.51 430.02 289.47 423.28 293.1 420.68" style="fill:#263238;stroke:#263238;stroke-linecap:round;stroke-linejoin:round"></polygon><path d="M292.33,324.17s3.34,23,1.34,39.33-8.34,47.34-11.67,52.34-10.67,14.66-12.33,17.33,4.85,1.21,7.53,1c6.4-.52,6.91-7.78,10.47-9,3.35-1.15,6.63-3,6.3-5.35s-4-8.32.7-17,17.66-33,17.33-45-4.67-17.34-2.67-21.67,6.34-14.67,6.34-14.67S298,326.5,292.33,324.17Z" style="fill:#fff"></path><g style="clip-path:url(#freepik--clip-path-3--inject-330)"><path d="M292.33,324.17s3.34,23,1.34,39.33-8.34,47.34-11.67,52.34-10.67,14.66-12.33,17.33c-1,1.63,1,1.72,3.36,1.5,2.24-3.58,7.1-10.89,12.9-19.87,6.51-10.05,7.1-24.55,9.76-38.16s1.48-27.8,1.19-31.35-.3-11.54-.3-11.54h8.88a30.87,30.87,0,0,0,5.15-.43c2.15-4.89,5.06-11.82,5.06-11.82S298,326.5,292.33,324.17Z" style="fill:#90CAF9"></path><path d="M292.33,324.17s3.34,23,1.34,39.33-8.34,47.34-11.67,52.34-10.67,14.66-12.33,17.33c-1,1.63,1,1.72,3.36,1.5,2.24-3.58,7.1-10.89,12.9-19.87,6.51-10.05,7.1-24.55,9.76-38.16s1.48-27.8,1.19-31.35-.3-11.54-.3-11.54h8.88a30.87,30.87,0,0,0,5.15-.43c2.15-4.89,5.06-11.82,5.06-11.82S298,326.5,292.33,324.17Z" style="fill:#fff;opacity:0.5"></path></g><path d="M292.33,324.17s3.34,23,1.34,39.33-8.34,47.34-11.67,52.34-10.67,14.66-12.33,17.33,4.85,1.21,7.53,1c6.4-.52,6.91-7.78,10.47-9,3.35-1.15,6.63-3,6.3-5.35s-4-8.32.7-17,17.66-33,17.33-45-4.67-17.34-2.67-21.67,6.34-14.67,6.34-14.67S298,326.5,292.33,324.17Z" style="fill:none;stroke:#263238;stroke-linecap:round;stroke-linejoin:round"></path><path d="M287.67,425.17c3.35-1.15,6.63-3,6.3-5.35-.19-1.3-1.39-3.72-1.62-7.1-4.75,3.56-7.82,2.93-9.6,1.68a10.33,10.33,0,0,1-.75,1.44c-3.33,5-10.67,14.66-12.33,17.33s4.85,1.21,7.53,1C283.6,433.65,284.11,426.39,287.67,425.17Z" style="fill:#263238;stroke:#263238;stroke-linecap:round;stroke-linejoin:round"></path><path d="M296.67,178.17s-11.34-.67-17,5.67-5.67,15-4.67,20,7.67,8.66,10.67,8.66S296.67,178.17,296.67,178.17Z" style="fill:#90CAF9;stroke:#263238;stroke-linecap:round;stroke-linejoin:round"></path><path d="M282.33,208.84a124,124,0,0,1,1.34,16c0,7.33-.67,6.66-2.34,16.66s-9,21.67-8.66,34.67,5,48,5,48,4,4,15.66,5,24-2.67,24-2.67,9.34-22.33,12-36.33-5-29-6.66-33-5-12-5-13,2.66-11,8.33-21,6.33-21.33,9-29.67-7.33-17.66-14-20-21-1.33-26.33,5S284,195.84,282.33,208.84Z" style="fill:#90CAF9;stroke:#263238;stroke-linecap:round;stroke-linejoin:round"></path><path d="M302.88,261.7s-9.69,11.24-11.63,22.88" style="fill:none;stroke:#263238;stroke-linecap:round;stroke-linejoin:round"></path><path d="M290.86,292.34s-1.55,15.13,0,22.5" style="fill:none;stroke:#263238;stroke-linecap:round;stroke-linejoin:round"></path><path d="M295.33,135.84s-10.33-12-4-17,23.34-9,35-4.67,10.67,21.33,9.34,32,5,27,5,27,3,4.33-1.34,6.33-7.66-1-12.33,7.34-6,23.66-10.67,32-19.33,10.66-20.66-2,16.19-33.74,19.6-45-4.94-20.63-7.94-29-5.66-11.34-5.66-11.34Z" style="fill:#263238;stroke:#263238;stroke-linecap:round;stroke-linejoin:round"></path><path d="M311.69,219.26a9.67,9.67,0,0,0,2.48-4.48" style="fill:none;stroke:#fff;stroke-linecap:round;stroke-linejoin:round"></path><path d="M307,121.38s2.06,17.45,11.29,27.2,6.16,21.55,2.57,31.3-23.09,28.23-19.5,37.46c1.78,4.59,4.71,5.25,7.33,4.13" style="fill:none;stroke:#fff;stroke-linecap:round;stroke-linejoin:round"></path><path d="M334.2,161.1a18.89,18.89,0,0,1-1.56,8" style="fill:none;stroke:#fff;stroke-linecap:round;stroke-linejoin:round"></path><path d="M314.68,117.79s5.13,11.29,11.29,17.45c3.73,3.73,6.89,12.34,7.9,20.39" style="fill:none;stroke:#fff;stroke-linecap:round;stroke-linejoin:round"></path><path d="M308.36,163.07s1,7.92-3.05,14.82-10.15,16.05-6.3,16.05,15-13.81,16.26-22.14a111.22,111.22,0,0,0,1.21-14.42Z" style="fill:#90CAF9"></path><g style="clip-path:url(#freepik--clip-path-4--inject-330)"><path d="M308.36,163.07s1,7.92-3.05,14.82-10.15,16.05-6.3,16.05,15-13.81,16.26-22.14a111.22,111.22,0,0,0,1.21-14.42Z" style="fill:#fff;opacity:0.5"></path></g><path d="M308.36,163.07s1,7.92-3.05,14.82-10.15,16.05-6.3,16.05,15-13.81,16.26-22.14a111.22,111.22,0,0,0,1.21-14.42Z" style="fill:none;stroke:#263238;stroke-linecap:round;stroke-linejoin:round"></path><path d="M298.33,162.5a48.13,48.13,0,0,1-7,16c-5.66,8.67-14,25.34-13.33,35.34s9.67,8.66,12.67,3.33,7-21.67,13.33-32.33,9.33-24.34,5.67-26S302.67,155.17,298.33,162.5Z" style="fill:#263238;stroke:#263238;stroke-linecap:round;stroke-linejoin:round"></path><path d="M280,211.28a9.59,9.59,0,0,0,1.3,3.5" style="fill:none;stroke:#fff;stroke-linecap:round;stroke-linejoin:round"></path><path d="M305.58,173.28s-.8,3.11-10,14.92c-6.35,8.11-13.12,13.51-15.05,18.93" style="fill:none;stroke:#fff;stroke-linecap:round;stroke-linejoin:round"></path><path d="M302.87,123.46s-8.32,7.92-9.54,15.43,1.62,19.3,3.45,24,5.28,4.88,7.31,4.07,12.39-6.91,13-7.93S302.67,131.78,302.87,123.46Z" style="fill:#fff;stroke:#263238;stroke-linecap:round;stroke-linejoin:round"></path><path d="M299.42,152.91s-3.25.41-4.26-.2,2-9.55,2-10.57-1.43-3.65-1.43-3.65-1.41-1.44-1.87.84" style="fill:none;stroke:#263238;stroke-linecap:round;stroke-linejoin:round"></path><path d="M299.42,156.77s2.84,1.22,6.3-1.63" style="fill:none;stroke:#263238;stroke-linecap:round;stroke-linejoin:round"></path><path d="M302.22,142.81s2.58-1.21,4.09.76" style="fill:none;stroke:#263238;stroke-linecap:round;stroke-linejoin:round"></path><path d="M301,137.36s3.33-1.52,5.45.45" style="fill:none;stroke:#263238;stroke-linecap:round;stroke-linejoin:round"></path><path d="M296.31,143.11s-.6-1.82-2.42-.45" style="fill:none;stroke:#263238;stroke-linecap:round;stroke-linejoin:round"></path><path d="M337.67,210.17l9.66,16.67s-11,13.33-15,18.33-6.61,4.4-6.61,4.4-1.05-3.73-2.39-7.4-5.67-4.4-4.67-2.07,2.34,4.74,1.34,5.07-6.67-2.67-9.67-2.67-9,0-8.33,1.34,6.67,1,6.67,1l2.66,2a66.51,66.51,0,0,0-8.66,1c-2.67.66-5,1.66-4.34,3a1.2,1.2,0,0,0,.66.6,2,2,0,0,1,1.27,1.89c0,.47.16.84.74.84h6.33s-7.33,2-7,3.67,4,.33,6.34.33a82.47,82.47,0,0,1,8.46,1s6,.64,10.2-1c23-9.08,35.05-26.09,36.67-29,2-3.55-15-25.67-15-25.67Z" style="fill:#fff"></path><g style="clip-path:url(#freepik--clip-path-5--inject-330)"><path d="M354.5,232c-5.5,5.5-22,20.5-25.5,20-.93-.13-.72-1.58.08-3.63-2.1,1.49-3.36,1.2-3.36,1.2s-1.05-3.73-2.39-7.4-5.67-4.4-4.67-2.07,2.34,4.74,1.34,5.07-6.67-2.67-9.67-2.67-9,0-8.33,1.34,6.67,1,6.67,1l2.66,2a66.51,66.51,0,0,0-8.66,1c-2.67.66-5,1.66-4.34,3a1.2,1.2,0,0,0,.66.6,2,2,0,0,1,1.27,1.89c0,.47.16.84.74.84h6.33s-7.33,2-7,3.67,4,.33,6.34.33a82.47,82.47,0,0,1,8.46,1s6,.64,10.2-1c23-9.08,35.05-26.09,36.67-29,.68-1.22-.88-4.64-3.23-8.61C358.31,224.66,357.17,229.34,354.5,232Z" style="fill:#90CAF9"></path><path d="M354.5,232c-5.5,5.5-22,20.5-25.5,20-.93-.13-.72-1.58.08-3.63-2.1,1.49-3.36,1.2-3.36,1.2s-1.05-3.73-2.39-7.4-5.67-4.4-4.67-2.07,2.34,4.74,1.34,5.07-6.67-2.67-9.67-2.67-9,0-8.33,1.34,6.67,1,6.67,1l2.66,2a66.51,66.51,0,0,0-8.66,1c-2.67.66-5,1.66-4.34,3a1.2,1.2,0,0,0,.66.6,2,2,0,0,1,1.27,1.89c0,.47.16.84.74.84h6.33s-7.33,2-7,3.67,4,.33,6.34.33a82.47,82.47,0,0,1,8.46,1s6,.64,10.2-1c23-9.08,35.05-26.09,36.67-29,.68-1.22-.88-4.64-3.23-8.61C358.31,224.66,357.17,229.34,354.5,232Z" style="fill:#fff;opacity:0.5"></path></g><path d="M337.67,210.17l9.66,16.67s-11,13.33-15,18.33-6.61,4.4-6.61,4.4-1.05-3.73-2.39-7.4-5.67-4.4-4.67-2.07,2.34,4.74,1.34,5.07-6.67-2.67-9.67-2.67-9,0-8.33,1.34,6.67,1,6.67,1l2.66,2a66.51,66.51,0,0,0-8.66,1c-2.67.66-5,1.66-4.34,3a1.2,1.2,0,0,0,.66.6,2,2,0,0,1,1.27,1.89c0,.47.16.84.74.84h6.33s-7.33,2-7,3.67,4,.33,6.34.33a82.47,82.47,0,0,1,8.46,1s6,.64,10.2-1c23-9.08,35.05-26.09,36.67-29,2-3.55-15-25.67-15-25.67Z" style="fill:none;stroke:#263238;stroke-linecap:round;stroke-linejoin:round"></path><path d="M347,203.5l-9.33,6.67,4.76,8.21,11-6.09C350,207.46,347,203.5,347,203.5Z" style="fill:#90CAF9;stroke:#263238;stroke-linecap:round;stroke-linejoin:round"></path><path d="M300.05,252.46s6.74-3.21,10.59-2.41" style="fill:#fff;stroke:#263238;stroke-linecap:round;stroke-linejoin:round"></path><path d="M307.33,254.17s3.31-.75,4.27-.43" style="fill:#fff;stroke:#263238;stroke-linecap:round;stroke-linejoin:round"></path><path d="M342,174.27a17.06,17.06,0,0,0-18.87,12.33,28,28,0,0,0-.75,3.57c-1.66,11.67,3.34,21,7,23.67s22-7,24.34-11.67-.35-16.54-4-22.67A10.43,10.43,0,0,0,342,174.27Z" style="fill:#90CAF9;stroke:#263238;stroke-linecap:round;stroke-linejoin:round"></path></g><g id="freepik--character-1--inject-330"><ellipse cx="206" cy="427.17" rx="39" ry="15.33" style="fill:#90CAF9"></ellipse><ellipse cx="206" cy="427.17" rx="39" ry="15.33" style="fill:#fff;opacity:0.5"></ellipse><path d="M218.71,120.66a87.66,87.66,0,0,1,10.67,21.88c4,12.55,5.07,27-1.06,32.83s-13.62,12.27-12.55,16.28,13.35,11.47,12.81,22.95-10.14,15.74-19.75,17.08-14.67-10.94-14.67-15,4.8-20.55.8-29.09a140.07,140.07,0,0,0-12.82-22.06c-7.37-10.21-.83-13.41,4-19.28s-1.6-8,0-16.55S218.71,120.66,218.71,120.66Z" style="fill:#263238;stroke:#263238;stroke-linecap:round;stroke-linejoin:round"></path><path d="M221.11,123.6s-25.35,13.34-34.43,25.88-8.8,19.75-11.47,14.15-9.34-30.69-.27-37.1,19.75-17.61,34.16-15.21S221.11,123.6,221.11,123.6Z" style="fill:#263238;stroke:#263238;stroke-linecap:round;stroke-linejoin:round"></path><path d="M225,144.74c1,6.71,1.58,16.68-1.61,23.06-5.18,10.35-18.72,13.58-19.87,23.23s15.91,17.26,15.91,25.78-8.53,13.39-13.09,11" style="fill:none;stroke:#fff;stroke-linecap:round;stroke-linejoin:round"></path><path d="M223.7,137.66s.34,1.39.75,3.63" style="fill:none;stroke:#fff;stroke-linecap:round;stroke-linejoin:round"></path><path d="M176.79,150.74a20.56,20.56,0,0,0-1.69,6.56" style="fill:none;stroke:#fff;stroke-linecap:round;stroke-linejoin:round"></path><path d="M214.61,118.82S200.76,125,191,131.64c-4.82,3.3-8.76,8.48-11.51,13.43" style="fill:none;stroke:#fff;stroke-linecap:round;stroke-linejoin:round"></path><path d="M207.43,118.82s-31.3,9.75-33.87,17.44.51,16.42.51,16.42" style="fill:none;stroke:#fff;stroke-linecap:round;stroke-linejoin:round"></path><path d="M189.08,318.48s5.58,13.95,6,19.37-6.81,17.31-6.47,28.43-.77,28.81-.63,33.15,3.53,9.12,4.14,11.28.24,8.14,3,10.5,8.57,5.17,7.76-3.77-7.89-18.49-8-23.65,10.32-26.92,13-36.23-1.09-36.08-1.76-40.41S189.08,318.48,189.08,318.48Z" style="fill:#90CAF9"></path><g style="clip-path:url(#freepik--clip-path-6--inject-330)"><path d="M189.08,318.48s5.58,13.95,6,19.37-6.81,17.31-6.47,28.43-.77,28.81-.63,33.15,3.53,9.12,4.14,11.28.24,8.14,3,10.5,8.57,5.17,7.76-3.77-7.89-18.49-8-23.65,10.32-26.92,13-36.23-1.09-36.08-1.76-40.41S189.08,318.48,189.08,318.48Z" style="fill:#fff;opacity:0.5"></path></g><path d="M189.08,318.48s5.58,13.95,6,19.37-6.81,17.31-6.47,28.43-.77,28.81-.63,33.15,3.53,9.12,4.14,11.28.24,8.14,3,10.5,8.57,5.17,7.76-3.77-7.89-18.49-8-23.65,10.32-26.92,13-36.23-1.09-36.08-1.76-40.41S189.08,318.48,189.08,318.48Z" style="fill:none;stroke:#263238;stroke-linecap:round;stroke-linejoin:round"></path><path d="M201.19,410.3c-.84,2.26-2.2,4-4.37,3-4.12-1.91-7.74-12.08-8.84-15.46,0,.65,0,1.19,0,1.61.13,4.34,3.53,9.12,4.14,11.28s.24,8.14,3,10.5,8.57,5.17,7.76-3.77A29.38,29.38,0,0,0,201.19,410.3Z" style="fill:#263238;stroke:#263238;stroke-linecap:round;stroke-linejoin:round"></path><path d="M205.76,416.51l.4,10.86,2,.11,1.21-7.22A12.15,12.15,0,0,0,205.76,416.51Z" style="fill:#263238;stroke:#263238;stroke-linecap:round;stroke-linejoin:round"></path><path d="M189.33,326.84s10.67,19.33,8.67,26-4.33,23.33-1.33,29.66,8.33,20,9.66,22.67,2,3.67.34,6.67-2,5,1.33,8,4,7.33,6.67,10,11.66,6,13,4-7-11-9-16.34-4.67-21-4.67-40.33-3-55-3-55Z" style="fill:#fff"></path><g style="clip-path:url(#freepik--clip-path-7--inject-330)"><path d="M212.24,415.66c-.36-5.48-3.28-13.52-7.66-21.55s-8.4-27-4.39-38.35-1.09-21.91-1.09-21.91a21.77,21.77,0,0,0,6.57-1.1c1.66-.62,4.14-1.59,6-2.32-.38-5-.65-8.26-.65-8.26l-21.67,4.67s10.67,19.33,8.67,26-4.33,23.33-1.33,29.66,8.33,20,9.66,22.67,2,3.67.34,6.67-2,5,1.33,8a19.09,19.09,0,0,1,4,5.94C211.77,422.9,212.49,419.28,212.24,415.66Z" style="fill:#90CAF9"></path><path d="M212.24,415.66c-.36-5.48-3.28-13.52-7.66-21.55s-8.4-27-4.39-38.35-1.09-21.91-1.09-21.91a21.77,21.77,0,0,0,6.57-1.1c1.66-.62,4.14-1.59,6-2.32-.38-5-.65-8.26-.65-8.26l-21.67,4.67s10.67,19.33,8.67,26-4.33,23.33-1.33,29.66,8.33,20,9.66,22.67,2,3.67.34,6.67-2,5,1.33,8a19.09,19.09,0,0,1,4,5.94C211.77,422.9,212.49,419.28,212.24,415.66Z" style="fill:#fff;opacity:0.5"></path></g><path d="M189.33,326.84s10.67,19.33,8.67,26-4.33,23.33-1.33,29.66,8.33,20,9.66,22.67,2,3.67.34,6.67-2,5,1.33,8,4,7.33,6.67,10,11.66,6,13,4-7-11-9-16.34-4.67-21-4.67-40.33-3-55-3-55Z" style="fill:none;stroke:#263238;stroke-linecap:round;stroke-linejoin:round"></path><path d="M217.67,423.84c-5.53-3-9.23-10.9-10.32-13.49a9.81,9.81,0,0,1-.68,1.49c-1.67,3-2,5,1.33,8s4,7.33,6.67,10,11.66,6,13,4c.84-1.27-2.18-5.32-5-9.48C221.56,425,220,425.11,217.67,423.84Z" style="fill:#263238;stroke:#263238;stroke-linecap:round;stroke-linejoin:round"></path><path d="M180.81,160.69S172,166.83,164,171.63s-12.81,11.74-10.94,17.88l1.87,6.14,15.47,45.64s-12.54,20.28-11.74,34.42,6.67,25.36,13.88,36.3,9.34,17.88,9.34,17.88,19.75-1.6,26.15-2.94a34.65,34.65,0,0,0,9.61-3.2s6.94-47,1.33-63.78-15.21-26.42-15.21-26.42-2.93-7.74,4.54-25.62c3-7.09-4.27-16.55-7.21-20a27.83,27.83,0,0,1-6.67-18.68C194.42,159.89,180.81,160.69,180.81,160.69Z" style="fill:#fff;stroke:#263238;stroke-linecap:round;stroke-linejoin:round"></path><path d="M175.21,163.63a13.47,13.47,0,0,0-.29,10.18c2.17,5.14,7,10.29,12.18,10.29s8.12-2.17,7.85-10.83S183.34,154.52,175.21,163.63Z" style="fill:#90CAF9;stroke:#263238;stroke-linecap:round;stroke-linejoin:round"></path><path d="M217.64,323.75s6.94-47,1.33-63.78-15.21-26.42-15.21-26.42a10.05,10.05,0,0,1-.4-1.94c-16.06,4.79-27,6-34.21,6l1.25,3.7s-12.54,20.28-11.74,34.42,6.67,25.36,13.88,36.3,9.34,17.88,9.34,17.88,19.75-1.6,26.15-2.94A34.65,34.65,0,0,0,217.64,323.75Z" style="fill:#263238;stroke:#263238;stroke-linecap:round;stroke-linejoin:round"></path><path d="M185.88,252.75s12.83,19.5,18.47,33.87" style="fill:none;stroke:#fff;stroke-linecap:round;stroke-linejoin:round"></path><path d="M205.89,289.7s3.08,6.16,3.59,11.29" style="fill:none;stroke:#fff;stroke-linecap:round;stroke-linejoin:round"></path><path d="M208.3,207.93c2.3-5.51-1.55-12.45-4.77-16.9-8.34,1.69-11.24,11.83-11.24,11.83s-7.48-11.48-17.35-9.61c-5.58,1.05-11.33,9.35-15.28,16.37l10.47,30.86c24.81,2.35,33.63-6.93,33.63-6.93S200.83,225.81,208.3,207.93Z" style="fill:#90CAF9;stroke:#263238;stroke-linecap:round;stroke-linejoin:round"></path><path d="M188.55,144.68s-9.6,16.54-11.47,19.48c-6,9.49,9.56,23.76,15.74,14.14,2.4-3.73.27-6.67,1.87-10.67a72.14,72.14,0,0,1,3.2-6.94,23,23,0,0,1-3.47-7.74C193.35,148.41,189.62,142.54,188.55,144.68Z" style="fill:#fff"></path><g style="clip-path:url(#freepik--clip-path-8--inject-330)"><path d="M187.78,155.63a18.19,18.19,0,0,0,1.46,9.5c1.61,3.22,3,4.66,4.82,5.34a9.19,9.19,0,0,1,.63-2.84,72.14,72.14,0,0,1,3.2-6.94,23,23,0,0,1-3.47-7.74c-1.07-4.54-4.8-10.41-5.87-8.27l-4.48,7.7A18.92,18.92,0,0,0,187.78,155.63Z" style="fill:#90CAF9"></path><path d="M187.78,155.63a18.19,18.19,0,0,0,1.46,9.5c1.61,3.22,3,4.66,4.82,5.34a9.19,9.19,0,0,1,.63-2.84,72.14,72.14,0,0,1,3.2-6.94,23,23,0,0,1-3.47-7.74c-1.07-4.54-4.8-10.41-5.87-8.27l-4.48,7.7A18.92,18.92,0,0,0,187.78,155.63Z" style="fill:#fff;opacity:0.5"></path></g><path d="M188.55,144.68s-9.6,16.54-11.47,19.48c-6,9.49,9.56,23.76,15.74,14.14,2.4-3.73.27-6.67,1.87-10.67a72.14,72.14,0,0,1,3.2-6.94,23,23,0,0,1-3.47-7.74C193.35,148.41,189.62,142.54,188.55,144.68Z" style="fill:none;stroke:#263238;stroke-linecap:round;stroke-linejoin:round"></path><path d="M231.2,176.57l2.15-15.48h4l2.4,15.89a4.86,4.86,0,0,0,.82,2.06l.2.27a4.85,4.85,0,0,1,.88,2.78v24.1a2.61,2.61,0,0,1-2.61,2.61H231.6a2.61,2.61,0,0,1-2.6-2.61v-24.1a4.83,4.83,0,0,1,1.12-3.09h0A4.88,4.88,0,0,0,231.2,176.57Z" style="fill:#90CAF9;stroke:#263238;stroke-linecap:round;stroke-linejoin:round"></path><path d="M237.15,161.65h-3.57a.79.79,0,0,1-.79-.79h0a.78.78,0,0,1,.79-.78h3.57a.78.78,0,0,1,.78.78h0A.78.78,0,0,1,237.15,161.65Z" style="fill:#90CAF9;stroke:#263238;stroke-linecap:round;stroke-linejoin:round"></path><rect x="229" y="183.97" width="12.67" height="16.22" style="fill:#fff;stroke:#263238;stroke-linecap:round;stroke-linejoin:round"></rect><polygon points="231.95 171.17 238.89 171.17 238.44 168.19 232.36 168.19 231.95 171.17" style="fill:#fff;stroke:#263238;stroke-linecap:round;stroke-linejoin:round"></polygon><path d="M157.59,176.17s-10.14,4-10.67,10.41,2.93,19.48,8,28.55,12,27.49,15.21,27.49,54.17-39,54.17-39,10.94-1.34,12.55-1.34,4.53-.8,4-2.93l-2.4-.54s4.53,0,4.53-1.33a2.89,2.89,0,0,0-1.06-2.14l-3.21-.26,4.27-1.6s3.21-2.14.54-2.94a32.48,32.48,0,0,0-5.07-1.07s6.4.27,6.67-2.4-3.2-2.4-5.07-2.13-8.28.26-9.61.26-3.2-1.33-5.07,1.07-4.54,12.28-4.54,12.28-19.48,11.21-25.62,14.14-19.48,9.61-19.48,9.61l-13.61-32.29" style="fill:#fff"></path><g style="clip-path:url(#freepik--clip-path-9--inject-330)"><path d="M240.86,199.39a40.39,40.39,0,0,0-10.36,1.16,24,24,0,0,1-8.76.37s-45.65,33.23-50,33.23-7.31-9.5-15-23.37A188.22,188.22,0,0,1,147,190.61a70.33,70.33,0,0,0,7.92,24.52c5.07,9.08,12,27.49,15.21,27.49s54.17-39,54.17-39,10.94-1.34,12.55-1.34S241.39,201.52,240.86,199.39Z" style="fill:#90CAF9"></path><path d="M240.86,199.39a40.39,40.39,0,0,0-10.36,1.16,24,24,0,0,1-8.76.37s-45.65,33.23-50,33.23-7.31-9.5-15-23.37A188.22,188.22,0,0,1,147,190.61a70.33,70.33,0,0,0,7.92,24.52c5.07,9.08,12,27.49,15.21,27.49s54.17-39,54.17-39,10.94-1.34,12.55-1.34S241.39,201.52,240.86,199.39Z" style="fill:#fff;opacity:0.5"></path></g><path d="M157.59,176.17s-10.14,4-10.67,10.41,2.93,19.48,8,28.55,12,27.49,15.21,27.49,54.17-39,54.17-39,10.94-1.34,12.55-1.34,4.53-.8,4-2.93l-2.4-.54s4.53,0,4.53-1.33a2.89,2.89,0,0,0-1.06-2.14l-3.21-.26,4.27-1.6s3.21-2.14.54-2.94a32.48,32.48,0,0,0-5.07-1.07s6.4.27,6.67-2.4-3.2-2.4-5.07-2.13-8.28.26-9.61.26-3.2-1.33-5.07,1.07-4.54,12.28-4.54,12.28-19.48,11.21-25.62,14.14-19.48,9.61-19.48,9.61l-13.61-32.29" style="fill:none;stroke:#263238;stroke-linecap:round;stroke-linejoin:round"></path><path d="M211.77,128.13a9.53,9.53,0,0,1,5.07,7.21c.8,5.34,1.07,10.94.53,14.14s-4,9.34-5.07,12.28-1.6,5.07-4.8,5.34-9.07-2.14-13.08-5.34-4-10.68-4-10.68-4.54-3.73-3.74-6.67,3.47-4.8,5.07-1.6,1.34,4.54,2.67,1.33-2.67-2.4,1.34-7.74S211.77,128.13,211.77,128.13Z" style="fill:#fff;stroke:#263238;stroke-linecap:round;stroke-linejoin:round"></path><path d="M217,142.5s-2.64,2-2.24,3.86,2.65,6.09,1.22,7.31-5.28-.2-5.28-.2" style="fill:none;stroke:#263238;stroke-linecap:round;stroke-linejoin:round"></path><path d="M204.36,143.11s3.45-1.42,6.09.61" style="fill:none;stroke:#263238;stroke-linecap:round;stroke-linejoin:round"></path><path d="M204.36,139.25a8.13,8.13,0,0,1,6.5-3.66" style="fill:none;stroke:#263238;stroke-linecap:round;stroke-linejoin:round"></path><path d="M209.84,157.12a5.33,5.33,0,0,1-4.67-3.45" style="fill:none;stroke:#263238;stroke-linecap:round;stroke-linejoin:round"></path></g></svg>