<svg xmlns="http://www.w3.org/2000/svg" viewBox="0 0 500 500"><g id="freepik--background-simple--inject-78"><path d="M349,444s80.18-66.18,99.14-169.36S389.44,150.73,343.89,115.79,281.6,41.52,215.58,39.14s-100.18,24.21-124,75.71-36.62,104.37-44.14,156-3.85,92.82,38.51,113.35,62,11.51,82.16,35.17S280,496.54,349,444Z" style="fill:#90CAF9"></path><path d="M349,444s80.18-66.18,99.14-169.36S389.44,150.73,343.89,115.79,281.6,41.52,215.58,39.14s-100.18,24.21-124,75.71-36.62,104.37-44.14,156-3.85,92.82,38.51,113.35,62,11.51,82.16,35.17S280,496.54,349,444Z" style="fill:#fff;opacity:0.7000000000000001"></path></g><g id="freepik--Plants--inject-78"><g style="opacity:0.30000000000000004"><path d="M136.06,356.66a.63.63,0,0,0-1-.06C114,380.31,105.91,416.85,114,452a.79.79,0,0,0,.13.31l1.23-.31a.71.71,0,0,0,0-.29c-7.92-34.55,0-70.51,20.79-93.85A.91.91,0,0,0,136.06,356.66Z"></path><path d="M124.06,420.48c-8.49-1.92-12.24,13.13-11.94,13.36.09,1.71.2,3.43.36,5.15.48-2.17,4-5.6,10.07-7.66C128.44,429,132.18,422,124.06,420.48Z"></path><path d="M99.43,416.24c-8.36-1.54-5,11.63,1.48,14.52,6.28,3.06,10.45,6.19,11.45,8.24-.26-1.72-.48-3.44-.66-5.15C111.41,434,107.33,418,99.43,416.24Z"></path><path d="M125.93,406.11c-8.21-3.52-14.13,10.2-13.86,10.47-.17,1.65-.3,3.32-.39,5,.79-2,4.87-4.55,11.18-5.32C129.09,415.22,133.84,409.15,125.93,406.11Z"></path><path d="M101.92,397.15c-8.14-3.13-6.65,10.21-.61,14.25,5.83,4.18,9.54,8,10.24,10.15,0-1.69,0-3.37.1-5.05C111.34,416.59,109.56,400.46,101.92,397.15Z"></path><path d="M129.86,392.57c-7.71-5-15.58,7.1-15.35,7.41-.41,1.56-.78,3.13-1.11,4.73,1.08-1.75,5.52-3.42,11.94-2.93C131.71,402,137.33,397.07,129.86,392.57Z"></path><path d="M107.14,379.17c-7.69-4.63-8.11,8.59-2.65,13.68,5.23,5.19,8.4,9.6,8.79,11.82.24-1.63.51-3.25.82-4.86C113.77,399.86,114.3,383.89,107.14,379.17Z"></path><path d="M135.75,380.16c-7-6.38-16.62,3.89-16.43,4.22q-.94,2.14-1.79,4.37c1.33-1.48,6-2.24,12.36-.5C136.22,389.73,142.57,386,135.75,380.16Z"></path><path d="M115,362.68c-7-6-9.37,6.8-4.63,12.81,4.48,6.07,7,11,7.08,13.2.48-1.53,1-3.05,1.52-4.55C118.6,384.13,121.43,368.68,115,362.68Z"></path><path d="M143.5,369.17c-6.08-7.57-17.26.6-17.11.95Q125.13,372,124,374c1.55-1.18,6.34-1,12.45,1.91C142.53,378.62,149.46,376.2,143.5,369.17Z"></path><path d="M125.25,348.09c-6.15-7.22-10.43,4.84-6.56,11.62,3.6,6.79,5.42,12.07,5.16,14.25q1.05-2.1,2.19-4.14C125.69,369.74,130.84,355.21,125.25,348.09Z"></path><path d="M131.17,362.55c-.23,0,4.6-12.91,9.64-17.79,4.81-5,9.47-1.6,10.06,1.79s-2.86,6.7-6.26,8.64C141.08,356.78,131.1,362.31,131.17,362.55Z"></path><path d="M131.26,363.09h-.07a.55.55,0,0,1-.46-.38.43.43,0,0,1,0,0,.43.43,0,0,1,0-.42c.52-2.56,5.4-13.71,9.73-17.9,2.37-2.45,5.1-3.24,7.49-2.15a6,6,0,0,1,3.34,4.3c.86,4.61-4.74,8.2-6.48,9.19-3.44,1.56-12.52,6.59-13.3,7.23A.43.43,0,0,1,131.26,363.09Zm14-20.27a7.07,7.07,0,0,0-4.12,2.36c-4,3.85-7.77,12.65-9,16.09.84-.5,2.16-1.24,4.24-2.39,2.67-1.47,6.2-3.34,8.09-4.19,3.26-1.87,6.58-5,6-8.07a4.8,4.8,0,0,0-2.71-3.43A4.51,4.51,0,0,0,145.25,342.82Z"></path><path d="M108.29,453.74c-28-45.59-35-103.87-18.39-152.45a1.43,1.43,0,0,0-.62-1.68,1,1,0,0,0-1.4.58c-16.83,49.08-9.82,107.91,18.21,154.12Z"></path><path d="M105.21,402.58c-12.73,3-10.25,28-9.7,28.1,1,2.48,2,4.94,3.12,7.39-.45-3.55,2.75-11.12,10-18.34C115.64,412.25,117.21,399.16,105.21,402.58Z"></path><path d="M69,413.35c-12.36,3.51-1,20.71,9.45,20.51,10.24.21,17.6,1.95,20,4.31-1.23-2.38-2.4-4.78-3.53-7.2C94.59,431.38,80.82,410.55,69,413.35Z"></path><path d="M100.47,380c-13.15.47-14.34,24.92-13.83,25.13q.92,3.86,2,7.68c.1-3.48,4.42-10.12,12.77-15.64C109.48,391.3,113,379,100.47,380Z"></path><path d="M62.69,383.31c-12.86,1-4,19.76,6.42,21.56,10.19,2.17,17.28,5.26,19.34,8-.86-2.5-1.68-5-2.44-7.57C85.63,405.63,75,382.93,62.69,383.31Z"></path><path d="M99,357.16c-13.22-2.09-17.94,21.34-17.47,21.63q.36,3.88.88,7.79c.6-3.34,5.89-8.9,15-12.61C106.38,369.91,111.64,358.68,99,357.16Z"></path><path d="M60.74,353c-13-1.54-6.84,18.37,3.31,22.13,9.88,4.08,16.51,8.44,18.18,11.45q-.75-3.87-1.34-7.77C80.47,379.12,73.06,355.07,60.74,353Z"></path><path d="M100.82,334.68c-12.92-4.61-21,17.28-20.58,17.63-.13,2.57-.22,5.15-.24,7.73,1.08-3.11,7.17-7.47,16.85-9.3C106.36,348.56,113.24,338.63,100.82,334.68Z"></path><path d="M63.15,323.15c-12.78-4-9.49,16.58.12,22.21,9.3,5.9,15.3,11.42,16.54,14.67q-.19-3.9-.22-7.8C79.12,352.44,75.17,327.57,63.15,323.15Z"></path><path d="M105.94,313c-12.26-7-23.57,12.85-23.18,13.26Q82,330,81.4,333.77c1.53-2.83,8.25-5.9,18.2-5.79C109.42,327.71,117.77,319.31,105.94,313Z"></path><path d="M70,294.37c-12.2-6.44-12,14.42-3.15,21.79,8.43,7.58,13.64,14.15,14.41,17.56.25-2.56.55-5.12.91-7.66C81.6,326.2,81.31,301.07,70,294.37Z"></path></g><g style="opacity:0.30000000000000004"><path d="M370.37,376.84a.45.45,0,0,1,.69.05c14.8,18.8,20.49,45.29,14.83,69.12a.67.67,0,0,1-.09.21l-.87-.35a.68.68,0,0,1,0-.2c5.56-23.46,0-49.52-14.6-68A.62.62,0,0,1,370.37,376.84Z"></path><path d="M378.8,422.88c6-.49,8.6,10.46,8.38,10.6-.06,1.19-.14,2.39-.25,3.58-.33-1.57-2.85-4.35-7.08-6.4C375.72,428.44,373.09,423.09,378.8,422.88Z"></path><path d="M396.09,422.41c5.88-.23,3.51,8.68-1,10-4.4,1.52-7.33,3.29-8,4.63.17-1.18.33-2.37.45-3.56C387.68,433.65,390.55,422.87,396.09,422.41Z"></path><path d="M377.48,412.59c5.77-1.63,9.92,8.61,9.74,8.77.11,1.18.21,2.36.27,3.55-.55-1.47-3.42-3.69-7.85-4.88C375.27,418.67,371.93,413.93,377.48,412.59Z"></path><path d="M394.34,408.75c5.72-1.37,4.68,7.85.43,10.07-4.09,2.34-6.7,4.64-7.19,6.09,0-1.19,0-2.38-.07-3.56C387.73,421.44,389,410.3,394.34,408.75Z"></path><path d="M374.72,402.69c5.42-2.74,10.95,6.57,10.79,6.76.28,1.14.54,2.29.78,3.44-.76-1.34-3.88-3-8.39-3.27C373.43,409.14,369.48,405.09,374.72,402.69Z"></path><path d="M390.68,395.59c5.4-2.47,5.7,6.86,1.86,9.88-3.67,3.11-5.9,5.89-6.17,7.4-.17-1.17-.36-2.33-.58-3.49C386,409.44,385.65,398.18,390.68,395.59Z"></path><path d="M370.59,393.37c4.91-3.76,11.67,4.42,11.54,4.64.44,1.07.86,2.16,1.25,3.25-.93-1.17-4.22-2.18-8.68-1.61C370.26,400.05,365.8,396.78,370.59,393.37Z"></path><path d="M385.19,383.21c4.93-3.49,6.58,5.74,3.25,9.47-3.14,3.81-4.92,7-5,8.55-.34-1.13-.69-2.24-1.07-3.35C382.63,397.9,380.64,386.77,385.19,383.21Z"></path><path d="M365.15,384.86c4.26-4.69,12.12,2.18,12,2.42q.88,1.47,1.71,3c-1.09-1-4.46-1.36-8.75.07C365.83,391.6,361,389.19,365.15,384.86Z"></path><path d="M378,371.92c4.32-4.44,7.33,4.46,4.61,8.83-2.53,4.4-3.81,7.92-3.63,9.48-.49-1.06-1-2.1-1.53-3.13C377.65,387.08,374,376.35,378,371.92Z"></path><path d="M373.81,381.47c.16,0-3.24-9.53-6.77-13.47s-6.66-2.09-7.07.23,2,5,4.4,6.71C366.84,376.41,373.85,381.31,373.81,381.47Z"></path><path d="M373.74,381.84h.05a.32.32,0,0,0,.32-.22s0,0,0,0a.3.3,0,0,0,0-.3c-.36-1.85-3.79-10.18-6.83-13.56-1.67-2-3.58-2.79-5.26-2.27a3.46,3.46,0,0,0-2.35,2.68c-.6,3.15,3.33,6.24,4.55,7.12,2.42,1.44,8.79,5.9,9.35,6.43A.32.32,0,0,0,373.74,381.84Zm-9.83-15.66a6.08,6.08,0,0,1,2.9,2.08c2.79,3.11,5.45,9.68,6.36,12.22-.59-.44-1.52-1.09-3-2.11-1.88-1.3-4.36-3-5.68-3.77-2.29-1.64-4.62-4.16-4.22-6.27a2.78,2.78,0,0,1,1.9-2.14A3.16,3.16,0,0,1,363.91,366.18Z"></path><path d="M389.87,447.85c19.65-29.18,24.61-69.38,12.92-105.2a.89.89,0,0,1,.43-1.12.77.77,0,0,1,1,.55c11.81,36.19,6.89,76.79-12.79,106.39Z"></path><path d="M392,412.23c8.94,3.43,7.19,20.68,6.81,20.72q-1,2.46-2.19,4.87c.31-2.45-1.93-8.09-7.05-13.9C384.71,418,383.61,408.61,392,412.23Z"></path><path d="M417.48,423.48c8.68,3.72.68,14.64-6.63,13.44-7.2-.9-12.37-.42-14.08,1,.87-1.55,1.69-3.11,2.48-4.7C399.49,433.54,409.17,420.31,417.48,423.48Z"></path><path d="M395.36,396.83c9.24,1.67,10.08,19,9.72,19.06q-.65,2.61-1.4,5.19c-.07-2.46-3.11-7.56-9-12.29C389,403.87,386.59,394.88,395.36,396.83Z"></path><path d="M421.9,403c9,2,2.81,14.28-4.51,14.48-7.16.49-12.14,1.93-13.59,3.63q.92-2.5,1.72-5.07C405.79,416.36,413.29,401.51,421.9,403Z"></path><path d="M396.39,381c9.29-.12,12.6,16.81,12.27,17-.17,1.8-.37,3.59-.62,5.38-.42-2.41-4.14-6.85-10.56-10.39C391.21,389.17,387.52,380.74,396.39,381Z"></path><path d="M423.27,382c9.13.24,4.8,13.6-2.33,15.2-6.94,1.87-11.59,4.25-12.76,6.2.35-1.77.66-3.54.93-5.33C409.41,398.27,414.62,382.13,423.27,382Z"></path><path d="M395.12,365c9.07-1.93,14.75,14.27,14.45,14.48.1,1.81.15,3.63.17,5.45-.76-2.3-5-6-11.83-8.25C391.23,374.17,386.4,366.5,395.12,365Z"></path><path d="M421.57,360.73c9-1.54,6.67,12.61-.08,15.58-6.53,3.2-10.75,6.47-11.61,8.62q.14-2.71.15-5.46C410.36,379.67,413.13,362.61,421.57,360.73Z"></path><path d="M391.52,349.25c8.61-3.68,16.56,11.42,16.28,11.67q.54,2.7,1,5.41c-1.08-2.15-5.8-5-12.78-5.92C389.08,359.21,383.21,352.47,391.52,349.25Z"></path><path d="M416.8,339.82c8.56-3.28,8.4,11.34,2.21,15.62-5.92,4.47-9.58,8.55-10.12,10.87-.17-1.82-.38-3.65-.64-5.47C408.61,361,408.82,343.37,416.8,339.82Z"></path></g></g><g id="freepik--Hearts--inject-78"><path d="M158.29,283.24a.57.57,0,0,1-.25-.06c-.14-.09-14.27-8.25-23.59-14.95a.5.5,0,0,1,.58-.82c8.45,6.08,20.88,13.37,23.15,14.69,2.27-2.69,18.09-21.83,19.65-33.09.07-.5.11-1,.14-1.47a.5.5,0,0,1,.52-.47.51.51,0,0,1,.48.53c0,.5-.08,1-.15,1.54-1.71,12.37-19.4,33.05-20.15,33.93A.52.52,0,0,1,158.29,283.24Z" style="fill:#263238"></path><path d="M131.72,266.06a.51.51,0,0,1-.31-.11,31.09,31.09,0,0,1-4.18-3.76,17.06,17.06,0,0,1-4.2-13.51,11.93,11.93,0,0,1,6-8.56c7.32-4.24,18.86,7,22,10.32.31-2.89,1.77-10.35,8.71-14.16a14.28,14.28,0,0,1,11.26-1.2,11.27,11.27,0,0,1,6.81,6,.5.5,0,0,1-.24.67.52.52,0,0,1-.67-.25,10.26,10.26,0,0,0-6.21-5.45,13.28,13.28,0,0,0-10.47,1.12c-8.16,4.49-8.27,14.38-8.27,14.48a.49.49,0,0,1-.32.47.5.5,0,0,1-.55-.14c-.14-.15-13.88-15.41-21.54-11a11,11,0,0,0-5.55,7.87,16,16,0,0,0,4,12.68,29.62,29.62,0,0,0,4,3.64.5.5,0,0,1,.08.7A.51.51,0,0,1,131.72,266.06Z" style="fill:#263238"></path><path d="M349.1,298.92a.48.48,0,0,1-.42-.23c-.46-.74-11.32-18.12-12.71-24.16a12.61,12.61,0,0,1,1.95-10.28,8.87,8.87,0,0,1,6.93-3.51c6.14-.21,9.68,10.46,10.71,14,1.32-1.91,4.75-5.88,10.43-6a10.19,10.19,0,0,1,9.25,5.18c1.59,3.06,1.14,6.57-1.25,9.88a28,28,0,0,1-7.58,6.47.5.5,0,1,1-.53-.84,27.08,27.08,0,0,0,7.3-6.21c2.16-3,2.58-6.14,1.17-8.84a9.17,9.17,0,0,0-8.2-4.64H366c-6.72.1-10.15,6.38-10.18,6.45a.5.5,0,0,1-.93-.12c0-.15-3.66-14.61-10-14.38a7.9,7.9,0,0,0-6.18,3.12,11.6,11.6,0,0,0-1.77,9.44c1.25,5.42,10.79,21,12.37,23.5a122.86,122.86,0,0,0,11.78-5.52.51.51,0,0,1,.68.2.5.5,0,0,1-.21.68,122.88,122.88,0,0,1-12.28,5.73A.57.57,0,0,1,349.1,298.92Z" style="fill:#263238"></path><path d="M258.48,150a.49.49,0,0,1-.42-.23c-.05-.08-5-8-7.64-13.52a.5.5,0,0,1,.24-.67.5.5,0,0,1,.66.24c2.29,4.78,6.38,11.46,7.37,13.06,2.25-.91,13.68-5.73,17-10.39,1.53-2.11,1.83-4.32.84-6.23a6.47,6.47,0,0,0-5.9-3.26c-4.76.07-7.2,4.52-7.22,4.57a.51.51,0,0,1-.51.26.51.51,0,0,1-.42-.38c-.71-2.9-3.32-10.37-7.07-10.26S250,126.4,249.69,129a.48.48,0,0,1-.55.43.5.5,0,0,1-.44-.56c.5-3.9,3.13-6.51,6.71-6.64,4.37-.18,6.94,7.11,7.78,9.94a9.55,9.55,0,0,1,7.47-4.13,7.51,7.51,0,0,1,6.79,3.8c1.16,2.22.83,4.88-.9,7.28-3.9,5.39-17.31,10.67-17.88,10.89A.58.58,0,0,1,258.48,150Z" style="fill:#263238"></path><path d="M312.86,344.33a.51.51,0,0,1-.43-.23c-.33-.53-8.17-13.09-9.18-17.47a9.2,9.2,0,0,1,1.43-7.52,6.52,6.52,0,0,1,5.11-2.59h.14c4.26,0,6.8,7.14,7.64,9.94a9.51,9.51,0,0,1,7.46-4.13h.12a7.48,7.48,0,0,1,6.68,3.8c1.16,2.22.82,4.87-.91,7.28-1.23,1.7-3.55,3.57-6.88,5.55a.51.51,0,0,1-.69-.18.49.49,0,0,1,.18-.68c3.21-1.91,5.43-3.69,6.58-5.28,1.53-2.11,1.82-4.33.83-6.23a6.47,6.47,0,0,0-5.79-3.26h-.1c-4.78.06-7.2,4.52-7.23,4.57a.48.48,0,0,1-.5.26.49.49,0,0,1-.42-.38c-.71-2.9-3.37-10.44-7.08-10.26a5.54,5.54,0,0,0-4.35,2.19,8.21,8.21,0,0,0-1.24,6.7c.87,3.82,7.53,14.69,8.83,16.8,1.1-.44,4.39-1.82,7.84-3.64a.5.5,0,0,1,.46.88A91.17,91.17,0,0,1,313,344.3Z" style="fill:#263238"></path></g><g id="freepik--Hands--inject-78"><path d="M430.42,113.69c2.09-6.56,5.67-14.62,2.39-14s-13.42,12.23-11,6,8.65-12.23,7.76-15.51-8.35-6.26-11.93-6.26S409.85,87.44,406,94.6s-6,6.26-6,6.26,11.34-17.59,9.55-23S390.76,63,388.08,62.1s-11.93,11.33-17,17.29,8.05-18.78,8.35-22.36-5.07-2.09-8.95,3.58-11,17.59-8.05,8.94,9.24-16.4,9.24-18.79a3.26,3.26,0,0,0-.06-.67l-1.78-1.16s-8.31,11.73-12.71,20-6.85,18.58-10.27,23.47-18.09,9.78-21.51,18.57-4.4,24.94-4.4,24.94l-16.11,23.59s-.75,1,6.46,2.4,21.36,11.26,27.42,19.63,8.08,24.24,8.08,24.24,3.18,4.33,5.77,2.31,3.75-8.66,9.82-14.14,17.89-24.82,17.89-24.82,8.66,6.35,17-.87,20.78-39.54,28.28-48.48c1.47-1.75,3.07-3.68,4.72-5.64C430.34,114,430.37,113.85,430.42,113.69Z" style="fill:#263238"></path><path d="M351.06,209.16a3.25,3.25,0,0,1-.44,0c-2.22-.31-4.15-2.91-4.23-3a.5.5,0,0,1-.09-.24c0-.15-2.08-15.84-8-24-5.76-8-19.69-17.94-27.1-19.43-6.37-1.27-6.72-2.2-6.84-2.54a.66.66,0,0,1,.08-.66l16-23.45c.11-1.61,1.18-16.61,4.43-25,2.14-5.51,8.37-9.41,13.87-12.85,3.44-2.14,6.41-4,7.69-5.83,1.77-2.52,3.32-6.65,5-11a108.26,108.26,0,0,1,5.26-12.38c4.37-8.24,12.67-20,12.75-20.1a.5.5,0,0,1,.68-.13l1.78,1.16a.52.52,0,0,1,.22.32,3.87,3.87,0,0,1,.07.77c0,1.21-1.25,3.36-3,6.33a72,72,0,0,0-6.27,12.62,19.85,19.85,0,0,0-.58,1.94c1.14-1.3,3.51-4.9,5.16-7.43.92-1.41,1.82-2.77,2.59-3.9,3-4.36,6.72-6.27,8.61-5.59a2.08,2.08,0,0,1,1.25,2.34c-.14,1.63-2.55,6.89-5.1,12.45-1.6,3.49-3.52,7.66-4.18,9.6l.05-.05c.94-1.11,2-2.43,3.19-3.85,6.93-8.45,12-14.38,14.34-13.6,2.87,1,19.93,10.54,21.79,16.12,1.61,4.84-6.57,18.54-9,22.4.87-.5,2.38-1.89,4.48-5.78,3.84-7.09,8.13-11,12.07-11,3.58,0,11.42,3,12.41,6.63.57,2.08-1.3,4.91-3.46,8.17a41.64,41.64,0,0,0-4.31,7.64,4.34,4.34,0,0,0-.32,1.14,26.57,26.57,0,0,0,4.28-3.25c2.47-2.09,5-4.25,6.52-4.52a1.48,1.48,0,0,1,1.49.42c1.09,1.27,0,4.7-1.94,10.19-.47,1.35-.95,2.73-1.37,4,0,.09,0,.18-.07.26l-.05.2a.57.57,0,0,1-.1.19c-1.64,2-3.25,3.89-4.72,5.64-3.29,3.92-7.54,12.4-12,21.37-5.69,11.35-11.57,23.09-16.31,27.17-7.47,6.44-15.26,2.38-17.19,1.19-1.84,3-12.11,19.41-17.72,24.49a31,31,0,0,0-6.8,9.59c-1.06,2.06-1.89,3.68-3,4.57A2.89,2.89,0,0,1,351.06,209.16Zm-3.79-3.55c.35.45,1.9,2.31,3.49,2.53a2,2,0,0,0,1.5-.41c1-.76,1.76-2.3,2.76-4.25a31.8,31.8,0,0,1,7-9.87c5.94-5.38,17.68-24.52,17.8-24.71a.51.51,0,0,1,.72-.15c.34.25,8.45,6,16.41-.84,4.58-3.95,10.42-15.59,16.06-26.86,4.53-9,8.8-17.55,12.17-21.56l4.64-5.55,0-.07a2,2,0,0,1,.09-.33h0c.42-1.33.9-2.72,1.38-4.08,1.28-3.7,2.89-8.31,2.12-9.21,0,0-.15-.16-.55-.09-1.24.23-3.91,2.49-6.06,4.31-3.48,3-4.77,3.93-5.57,3.36-.6-.42-.34-1.39,0-2.37a41.8,41.8,0,0,1,4.41-7.84c1.94-2.94,3.77-5.71,3.33-7.36-.8-2.92-7.92-5.89-11.45-5.89S410,88.18,406.41,94.84c-3.9,7.2-6.18,6.66-6.6,6.48a.46.46,0,0,1-.28-.31.48.48,0,0,1,.05-.42c3.12-4.84,10.9-18.31,9.49-22.53-1.69-5.07-18.53-14.62-21.15-15.49-1.87-.62-9,8.08-13.26,13.28-1.17,1.43-2.26,2.75-3.2,3.87-.64.75-1.21,1.34-1.75,1-.71-.45-.43-1.5,4.21-11.62,2.29-5,4.89-10.66,5-12.11.06-.72-.14-1.16-.59-1.32-1.27-.46-4.66,1.14-7.45,5.22-.76,1.12-1.65,2.48-2.57,3.88-4.88,7.44-5.88,8.67-6.71,8.26-.53-.25-.61-.86.35-3.64a72.12,72.12,0,0,1,6.35-12.81c1.54-2.62,2.86-4.88,2.86-5.82a2.23,2.23,0,0,0,0-.37L370,49.61a225.69,225.69,0,0,0-12.4,19.6,105.07,105.07,0,0,0-5.22,12.27c-1.67,4.43-3.24,8.62-5.08,11.25-1.4,2-4.45,3.9-8,6.1-5.36,3.36-11.45,7.16-13.47,12.37-3.36,8.62-4.36,24.62-4.37,24.78a.48.48,0,0,1-.09.25l-16,23.39c.3.25,1.49.93,6,1.83,7.6,1.52,21.85,11.71,27.73,19.82S347.05,203.94,347.27,205.61Zm-42-45.83,0,0Zm125-45.61Z" style="fill:#263238"></path><path d="M350.7,103.92a.5.5,0,0,1-.32-.88c2.56-2.08,4-3.61,4.62-4.8,2.44-4.88,7.36-18.09,7.41-18.22a.5.5,0,0,1,.64-.3.52.52,0,0,1,.3.65c-.05.13-5,13.39-7.45,18.31-.68,1.35-2.18,2.93-4.89,5.13A.45.45,0,0,1,350.7,103.92Z" style="fill:#fff"></path><path d="M325.08,145.4a.53.53,0,0,1-.24-.06.5.5,0,0,1-.19-.68l3.38-6.11c.23-1.34,2.61-15.11,5.92-21.13,1.83-3.31,6.77-7,11.56-10.63l.6-.45a.5.5,0,0,1,.6.8l-.6.45c-4.7,3.53-9.56,7.19-11.28,10.31-3.33,6-5.8,20.75-5.83,20.9a1,1,0,0,1-.05.16l-3.43,6.18A.49.49,0,0,1,325.08,145.4Z" style="fill:#fff"></path><path d="M317.36,159.34a.53.53,0,0,1-.24-.06.51.51,0,0,1-.2-.68l5.31-9.57a.5.5,0,1,1,.87.48l-5.3,9.58A.5.5,0,0,1,317.36,159.34Z" style="fill:#fff"></path><path d="M383.55,89.71a.56.56,0,0,1-.27-.08.5.5,0,0,1-.15-.69c2.59-4.08,4.07-6.79,4.08-6.82a.51.51,0,0,1,.68-.2.5.5,0,0,1,.2.68s-1.51,2.77-4.12,6.88A.49.49,0,0,1,383.55,89.71Z" style="fill:#fff"></path><path d="M330.06,164.92a.78.78,0,0,1-.21,0,.51.51,0,0,1-.25-.67l9.29-20.74c.07-.36,2.53-10.94,7.81-17.45,2.31-2.86,5.6-5.14,9.42-7.78,5-3.48,10.72-7.42,16-13.9,2.58-3.18,5.13-6.61,7.59-10.18a.5.5,0,1,1,.82.57c-2.47,3.59-5,7-7.63,10.24-5.34,6.59-11.1,10.57-16.18,14.09-3.76,2.6-7,4.84-9.21,7.59-5.14,6.33-7.62,17-7.65,17.13l-9.32,20.84A.49.49,0,0,1,330.06,164.92Z" style="fill:#fff"></path><path d="M374,128.07a.46.46,0,0,1-.27-.09.49.49,0,0,1-.14-.69c8.87-13.16,20.62-30.79,20.74-31a.49.49,0,0,1,.69-.14.5.5,0,0,1,.14.69c-.12.18-11.87,17.81-20.74,31A.52.52,0,0,1,374,128.07Z" style="fill:#fff"></path><path d="M340.59,173a.5.5,0,0,1-.27-.08.49.49,0,0,1-.16-.69l13.63-21.37a.48.48,0,0,1,.23-.19c.05,0,5.26-2.3,13.09-13.75,1-1.44,2.13-3.12,3.38-5a.5.5,0,1,1,.83.56c-1.26,1.85-2.4,3.54-3.38,5-7.39,10.8-12.45,13.6-13.39,14.05L341,172.74A.51.51,0,0,1,340.59,173Z" style="fill:#fff"></path><path d="M411.2,104.42a.45.45,0,0,1-.25-.07.51.51,0,0,1-.18-.69l4-6.69a.5.5,0,1,1,.86.51l-4,6.7A.51.51,0,0,1,411.2,104.42Z" style="fill:#fff"></path><path d="M363.16,167.89a.5.5,0,0,1-.38-.82l6.84-8.24a.48.48,0,0,1,.11-.09L383,150.13l24.69-41.23a.5.5,0,1,1,.85.52l-24.74,41.32a.49.49,0,0,1-.16.16l-13.25,8.63-6.79,8.18A.55.55,0,0,1,363.16,167.89Z" style="fill:#fff"></path><path d="M350.18,183.5a.51.51,0,0,1-.32-.12.49.49,0,0,1-.06-.7l9.81-11.8a.5.5,0,0,1,.7-.07.52.52,0,0,1,.07.71l-9.81,11.8A.5.5,0,0,1,350.18,183.5Z" style="fill:#fff"></path><path d="M415.52,124.3a.58.58,0,0,1-.18,0,.5.5,0,0,1-.28-.65c2.59-6.34,4.35-8.37,4.42-8.45a.5.5,0,0,1,.75.66s-1.74,2-4.24,8.17A.51.51,0,0,1,415.52,124.3Z" style="fill:#fff"></path><path d="M354.21,197.74a.52.52,0,0,1-.29-.09.51.51,0,0,1-.12-.7c2.35-3.3,23-32.31,24.91-33.57.76-.5,2.51-.41,5.54-.2,4.46.31,10.57.74,12.61-1.86,2.93-3.72,11-19.64,15.21-29.87a.5.5,0,0,1,.65-.28.51.51,0,0,1,.27.66c-4.28,10.5-12.32,26.26-15.34,30.11-2.37,3-8.78,2.57-13.47,2.24-2.16-.15-4.41-.31-4.92,0-1.31.87-15.45,20.4-24.64,33.31A.49.49,0,0,1,354.21,197.74Z" style="fill:#fff"></path><path d="M169.06,333.22s7.07-9.33,10.18-17.25,4.81-15,8.2-17.54,22.35-14.15,24.61-19.8,5.38-14.15,9.62-18.67,30-28.85,47.24-52,30-38.18,32.24-42.43a39.51,39.51,0,0,1,3.68-5.94s10.75-4.52,27.44,9.05,18.67,25.18,18.67,29.42v5.66l-72.42,67.6-86.84,71.57a27.79,27.79,0,0,1-13-4.25A109.62,109.62,0,0,0,169.06,333.22Z" style="fill:#fff"></path><path d="M191.68,343.34c-.24,0-6.16,0-13.26-4.32-6.95-4.16-9.54-5.33-9.57-5.34a.5.5,0,0,1-.19-.76c.07-.09,7.06-9.37,10.11-17.14.78-2,1.46-3.88,2.12-5.72,2-5.61,3.59-10,6.25-12,.71-.53,2.08-1.45,3.8-2.6,6.61-4.42,18.91-12.64,20.65-17l.64-1.61c2.17-5.5,5.15-13,9.07-17.21.78-.83,2.25-2.3,4.29-4.33,9.36-9.33,28.82-28.73,42.92-47.68,8.31-11.17,15.71-20.62,21.12-27.53,6-7.63,9.93-12.67,11.08-14.83a38.58,38.58,0,0,1,3.74-6,.45.45,0,0,1,.19-.14c.45-.19,11.21-4.49,27.94,9.13,17.5,14.23,18.86,26.41,18.86,29.8v5.66a.48.48,0,0,1-.16.36l-72.41,67.61L192,343.22A.47.47,0,0,1,191.68,343.34ZM169.82,333c1.08.54,3.83,2,9.11,5.14a28.22,28.22,0,0,0,12.58,4.16l86.7-71.44,72.23-67.44V198c0-3.28-1.34-15.07-18.49-29-15.32-12.47-25.64-9.43-26.81-9a41.43,41.43,0,0,0-3.55,5.76c-1.19,2.24-5.16,7.31-11.17,15-5.41,6.9-12.81,16.34-21.11,27.51-14.14,19-33.64,38.44-43,47.79-2,2-3.5,3.48-4.27,4.3-3.79,4-6.73,11.47-8.87,16.9l-.64,1.61c-1.86,4.64-13.85,12.66-21,17.45-1.72,1.15-3.07,2.05-3.76,2.57-2.42,1.81-4,6.33-5.91,11.56-.66,1.85-1.34,3.76-2.13,5.76C177,323,171.31,331,169.82,333Z" style="fill:#263238"></path><path d="M283.35,365.17s3.82-3.59,7-3.14,3.81,2,4.26,8.07.22,11.89-2,14.35-5.16,5.83-5.16,5.83,1.57-14.57,1.35-18.83S283.35,365.17,283.35,365.17Z" style="fill:#fff"></path><path d="M287.39,390.78a.45.45,0,0,1-.2,0,.5.5,0,0,1-.3-.51c0-.15,1.57-14.59,1.35-18.76-.21-3.88-5-5.82-5.07-5.84a.49.49,0,0,1-.31-.37.52.52,0,0,1,.15-.46c.16-.15,4-3.74,7.37-3.27,3.53.51,4.24,2.47,4.69,8.53.56,7.7-.14,12.51-2.15,14.73-2.21,2.43-5.12,5.79-5.15,5.82A.52.52,0,0,1,287.39,390.78ZM284.27,365c1.5.76,4.78,2.82,5,6.38s-.78,13.44-1.18,17.34c1.06-1.2,2.73-3.11,4.13-4.64,1.79-2,2.43-6.68,1.89-14-.47-6.31-1.2-7.24-3.84-7.62C288.05,362.21,285.41,364.11,284.27,365Z" style="fill:#263238"></path><path d="M258.91,416.52s6.73,2.69,10.76.23,6.73-10.09,7.85-12.11,8.52-5.16,9.87-14.36,5.38-20.63,4.93-23.77-5.83-3.36-9-1.34-3.14,3.36-4.48,6.28-6.06,26.23-8.3,28.25-8.52,3.82-9.42,7.4S258.91,416.52,258.91,416.52Z" style="fill:#fff"></path><path d="M265.35,418.29a20.3,20.3,0,0,1-6.63-1.3.5.5,0,0,1-.3-.58c0-.06,1.36-5.88,2.25-9.43.64-2.59,3.68-4.22,6.37-5.67a18.45,18.45,0,0,0,3.19-2c1.29-1.16,3.84-11.49,5.53-18.33a98.34,98.34,0,0,1,2.65-9.76c.26-.57.47-1.07.66-1.53a9.27,9.27,0,0,1,11.72-5.81,3.24,3.24,0,0,1,2,2.54c.25,1.76-.74,5.64-2,10.55-1.09,4.24-2.31,9.05-2.95,13.37-1,6.91-5.39,10.53-8,12.7a9.31,9.31,0,0,0-1.9,1.82c-.23.4-.53,1.08-.89,1.87-1.43,3.14-3.81,8.39-7.14,10.42A8.67,8.67,0,0,1,265.35,418.29Zm-5.86-2.08c1.48.51,6.69,2.09,9.92.11,3.06-1.87,5.37-6.95,6.75-10,.38-.84.68-1.51.92-1.95a9.5,9.5,0,0,1,2.15-2.1c2.67-2.21,6.71-5.54,7.67-12.08a134.77,134.77,0,0,1,3-13.47c1.17-4.61,2.19-8.6,2-10.16a2.27,2.27,0,0,0-1.46-1.77,7.82,7.82,0,0,0-6.75.78,7.74,7.74,0,0,0-3.62,4.5c-.2.47-.41,1-.68,1.57-.48,1-1.46,5-2.59,9.58-2.44,9.9-4.42,17.57-5.83,18.84a18.34,18.34,0,0,1-3.39,2.11c-2.5,1.35-5.34,2.87-5.88,5C260.89,410.21,259.82,414.79,259.49,416.21Z" style="fill:#263238"></path><path d="M286.94,383a.52.52,0,0,1-.29-.09l-1.16-.83c-1.71-1.22-.38-11.32-.37-11.43a2.49,2.49,0,0,1,1.12-2.07,1.61,1.61,0,0,1,1.44,0,.5.5,0,1,1-.48.88.62.62,0,0,0-.52,0c-.16.08-.44.36-.57,1.31-.57,4.27-.7,9.95,0,10.48l1.16.83a.49.49,0,0,1,.12.69A.49.49,0,0,1,286.94,383Z" style="fill:#263238"></path><path d="M289.1,368.87a.5.5,0,0,1-.25-.93l3.22-1.86a.51.51,0,0,1,.69.18.49.49,0,0,1-.19.68l-3.22,1.86A.45.45,0,0,1,289.1,368.87Z" style="fill:#263238"></path><path d="M202.84,409.12s7.85,14.13,13,15.7,18.16,2.92,21.3,3.59,13.23,5.16,17.72.45,7.63-13.46,9.2-18.39,3.81-10.09,3.81-10.09l-66.83,3.36Z" style="fill:#e0e0e0"></path><path d="M248.93,431.49a33.76,33.76,0,0,1-9.6-1.94c-.93-.28-1.73-.53-2.28-.65-1.07-.23-3.36-.55-6-.91-5.31-.74-11.91-1.65-15.33-2.69-5.29-1.61-13-15.35-13.3-15.93l0-.09-1.8-5.38a.49.49,0,0,1,.06-.44.51.51,0,0,1,.39-.22l66.83-3.36a.46.46,0,0,1,.44.21.5.5,0,0,1,0,.49c0,.05-2.25,5.19-3.8,10-2.79,8.78-5.92,15-9.31,18.58A8.33,8.33,0,0,1,248.93,431.49ZM203.3,408.92c.46.83,7.92,14,12.69,15.42,3.34,1,10.18,2,15.17,2.66,2.79.38,5,.68,6.1.92.59.13,1.41.38,2.37.68,4.27,1.32,11.42,3.54,14.88-.09,3.23-3.39,6.37-9.68,9.08-18.19,1.21-3.81,2.84-7.8,3.52-9.4l-65.38,3.29Z" style="fill:#263238"></path><path d="M244.51,171.45s-1.08-6.77-1.6-8.79-5.84-10.31-7.72-11.15l-1.87-.83s-6.71-29.35-10.86-36.82-10-11.35-12.18-12.18-6.65-15-8.31-19.11-4.7-20.48-15.78-23.25-23.53,16.33-27.41,21.32S165.15,63.47,164,56,153,35.78,123.62,62.09,93.17,94.2,96.77,100s23-19.38,19.65-10.25-13.29,20.77-15.78,29.63.28,14.67,3.6,16.33,10.81,3,10.81,3,7.67-.25,10.23,1.47l2.56,1.73,18.78,16.38s2.3,9.2,2.75,11.79,2.21,10.8,4.15,12.46,19.07,9.71,19.07,9.71a13.44,13.44,0,0,0,3.6,7.19,16.89,16.89,0,0,0,6.79,4s3.21-19.24,22.59-26.16a103.23,103.23,0,0,1,36-6.09Z" style="fill:#90CAF9"></path><path d="M183,203.92a.45.45,0,0,1-.16,0,22.48,22.48,0,0,1-7-4.09,12.26,12.26,0,0,1-3.73-7.25c-1.18-.62-6.81-3.55-14.53-7.06-6.95-3.15-7.41-7.05-7.78-10.19a11.3,11.3,0,0,0-.47-2.47,31,31,0,0,1-1.1-6c-.43-3.33-.91-7.11-2-8.18-.81-.8-3.91-3.43-7.2-6.21-5-4.21-10.65-9-11.62-10.21-1.46-1.83-8.82-3.41-12.34-3-4.25.47-21.36-4.11-28.1-23.91-6.6-19.43-17.5-22-17.61-22a.5.5,0,0,1-.38-.6.49.49,0,0,1,.59-.38c.47.1,11.54,2.69,18.35,22.7,7,20.58,24.61,23.5,27,23.24,3.55-.39,11.43,1.13,13.23,3.38.91,1.15,6.77,6.1,11.48,10.08,3.45,2.91,6.43,5.43,7.26,6.26,1.32,1.32,1.8,5.11,2.27,8.77a32.22,32.22,0,0,0,1,5.8,11.24,11.24,0,0,1,.53,2.7c.36,3,.77,6.48,7.2,9.4,8.71,4,14.76,7.18,14.82,7.21a.53.53,0,0,1,.26.39,11.5,11.5,0,0,0,3.43,6.87A21.76,21.76,0,0,0,182,202.5a17.68,17.68,0,0,1-.23-11.54c2.08-6.54,7.77-12.18,16.93-16.76,22.54-11.27,42.06-4.71,45.45-3.41.16-.86.22-3.17-1.74-7.94-2.71-6.58-9.36-11.73-9.43-11.78a.49.49,0,0,1-.17-.25c-.17-.52-4-12.88-4.82-18.45-.75-5.26-3.9-16.56-6.73-21.4-1.39-2.38-4.23-4.26-7-6.07-2.57-1.7-5-3.3-5.83-5.17-.51-1.15-1.65-4.68-3.1-9.14-3.08-9.51-7.74-23.89-10.44-27.94-3.93-5.9-12.66-16.23-12.75-16.34a.5.5,0,1,1,.76-.64c.09.1,8.86,10.48,12.82,16.43,2.78,4.16,7.46,18.62,10.56,28.18,1.44,4.44,2.58,7.94,3.07,9,.71,1.6,3,3.12,5.46,4.73,2.72,1.79,5.79,3.82,7.3,6.41,2.75,4.71,6,15.75,6.85,21.76.74,5.16,4.29,16.7,4.73,18.15,1,.77,7,5.69,9.63,12.09,2.81,6.83,1.7,9,1.56,9.24a.5.5,0,0,1-.63.2c-.21-.09-20.86-8.95-45.13,3.19-8.9,4.45-14.42,9.89-16.41,16.16a16.53,16.53,0,0,0,.65,11.92.5.5,0,0,1-.06.56A.53.53,0,0,1,183,203.92Z" style="fill:#263238"></path><path d="M227.73,150h0s-2.79-.16-7-.16h0a.5.5,0,0,1,0-1c4.25,0,7,.16,7.07.16a.5.5,0,0,1,.47.53A.51.51,0,0,1,227.73,150Z" style="fill:#263238"></path><path d="M164.2,187.14h0a.5.5,0,0,1-.47-.54c0-.18,1.38-18.73,15.38-29.13,8.62-6.41,24.71-8.19,36.69-8.57a.51.51,0,0,1,.51.49.5.5,0,0,1-.48.51c-11.84.37-27.71,2.12-36.12,8.37-13.63,10.12-15,28.22-15,28.4A.51.51,0,0,1,164.2,187.14Z" style="fill:#263238"></path><path d="M185.28,85A.5.5,0,0,1,185,84a31.94,31.94,0,0,1,8.23-3.31.5.5,0,1,1,.2,1,31.61,31.61,0,0,0-7.95,3.21A.53.53,0,0,1,185.28,85Z" style="fill:#263238"></path><path d="M149.34,154.56h-.08a.5.5,0,0,1-.41-.58,222.23,222.23,0,0,1,14.46-45.28,54.83,54.83,0,0,1,12.62-18.07.5.5,0,0,1,.71,0,.5.5,0,0,1,0,.71,53.94,53.94,0,0,0-12.39,17.75,219.82,219.82,0,0,0-14.38,45.05A.51.51,0,0,1,149.34,154.56Z" style="fill:#263238"></path><path d="M146.69,123.06a.5.5,0,0,1-.5-.5c0-17.4,16.23-44,16.39-44.29a.5.5,0,0,1,.85.53c-.16.26-16.24,26.64-16.24,43.76A.5.5,0,0,1,146.69,123.06Z" style="fill:#263238"></path><path d="M287.84,347.9c-.23-1.8-.67-4.94-.67-4.94s-1.8-26.91-1.8-51.36-.22-34.76-3.59-43.06a69.66,69.66,0,0,0-9.19-15.47s-16.15-30.73-20.41-40.82-7.67-20.8-7.67-20.8-8-7.9-28.89-7S182,177.23,179.07,185.3,183,203.42,183,203.42s26,29.58,32.4,35.66,12.91,24.29,12.53,30.74-19,19.73-22.78,28.84-9.86,27.71-15.56,39.09-12.52,23.91-14,29.61-11,20.49-11.39,25.05,5.51,6.62,8.2,6.62a33.09,33.09,0,0,0,5.83-.67s-1.79,3.14,5.83,5.83,29.38,7.62,33,7.18,6.95-3.82,11.21-7,27.81-20,29.16-20.85,13.9-10.32,18.84-13.46,10.31-7.85,11-12.34A44.28,44.28,0,0,0,287.84,347.9Zm-77.15,28.93c-5.16,4.93-8.75,13.9-8.75,13.9s-8.52-3.14-10.31-2.69a41.72,41.72,0,0,0,6.72-7.85,215.27,215.27,0,0,0,10.1-20.41c1.12-3.14,10.54-2.69,10.54,1.12S215.85,371.89,210.69,376.83Z" style="fill:#e0e0e0"></path><path d="M216.46,411.89c-4.91,0-25.2-4.61-32.63-7.23-3.44-1.22-5.51-2.7-6.15-4.41a2.84,2.84,0,0,1-.18-1.25,31.48,31.48,0,0,1-5.16.53,10.93,10.93,0,0,1-7.23-3.07,5.21,5.21,0,0,1-1.46-4.1c.21-2.55,3-7.85,5.93-13.45,2.35-4.48,4.78-9.11,5.47-11.68,1.17-4.41,5.45-12.77,10-21.62,1.38-2.69,2.77-5.41,4.11-8.08,3.69-7.38,7.48-17.65,10.83-26.72,1.74-4.7,3.38-9.14,4.71-12.34,1.87-4.48,7.13-9.83,12.21-15,5.32-5.42,10.34-10.53,10.53-13.68.36-6.2-5.85-24.22-12.37-30.35S182.86,204,182.6,203.75c-.32-.47-7-10.4-4-18.62,2.78-7.7,15.28-20.25,37-21.19,20.84-.9,28.93,6.83,29.26,7.16a.46.46,0,0,1,.13.2c0,.11,3.45,10.8,7.65,20.76s20.23,40.47,20.39,40.78h0a69.88,69.88,0,0,1,9.22,15.52c3.47,8.58,3.62,19.46,3.62,43.24,0,24.15,1.78,51,1.79,51.33h0s.45,3.12.67,4.9h0a43.88,43.88,0,0,1-.67,10c-.83,5.53-8.12,10.71-11.22,12.68-3.42,2.18-10.68,7.51-15,10.69-2,1.44-3.39,2.48-3.81,2.76-1.3.87-25,17.77-29.13,20.85-1,.72-1.92,1.45-2.82,2.16-3.07,2.43-5.73,4.52-8.63,4.88A4.67,4.67,0,0,1,216.46,411.89Zm-38.29-14a.48.48,0,0,1,.4.2.5.5,0,0,1,0,.55,1.7,1.7,0,0,0,0,1.33c.38,1,1.64,2.4,5.54,3.78,7.49,2.64,29.31,7.58,32.74,7.15,2.62-.33,5.17-2.34,8.14-4.67.9-.72,1.85-1.46,2.84-2.19,4.27-3.15,27.73-19.91,29.17-20.87.4-.27,1.89-1.36,3.77-2.74,4.35-3.19,11.62-8.52,15.08-10.72,6.2-3.95,10.23-8.43,10.76-12a43.34,43.34,0,0,0,.67-9.73h0c-.22-1.79-.67-4.93-.67-4.93,0-.3-1.8-27.24-1.8-51.43,0-25.27-.29-34.82-3.55-42.87a69.55,69.55,0,0,0-9.12-15.34c-.22-.39-16.26-30.95-20.48-40.94-4-9.41-7.24-19.48-7.64-20.72-.92-.81-9.2-7.61-28.44-6.79-21.23.92-33.41,13.08-36.1,20.53-2.8,7.74,3.79,17.57,3.85,17.67.22.24,26,29.58,32.33,35.57,6.69,6.29,13.06,24.77,12.68,31.14-.2,3.53-5.35,8.77-10.81,14.32-5,5.1-10.2,10.38-12,14.68-1.33,3.18-3,7.61-4.7,12.31-3.36,9.09-7.17,19.39-10.88,26.82-1.33,2.67-2.73,5.4-4.11,8.09-4.5,8.8-8.75,17.11-9.9,21.42-.71,2.67-3.06,7.15-5.54,11.88-2.77,5.27-5.63,10.72-5.83,13.08a4.26,4.26,0,0,0,1.2,3.33,10,10,0,0,0,6.5,2.75,32.2,32.2,0,0,0,5.72-.66Zm23.77-6.63a.51.51,0,0,1-.17,0c-3.24-1.19-8.82-3-10-2.67a.52.52,0,0,1-.57-.25.52.52,0,0,1,.11-.61,41.82,41.82,0,0,0,6.64-7.74,218.8,218.8,0,0,0,10-20.31c.73-2.07,4.23-2.77,7.19-2.26,2.7.47,4.32,1.79,4.32,3.54,0,4-3.23,11.3-8.46,16.29-5,4.8-8.59,13.64-8.62,13.73A.51.51,0,0,1,201.94,391.23Zm-9.08-3.66a55.67,55.67,0,0,1,8.8,2.53c.81-1.9,4.11-9.26,8.68-13.63h0c5-4.81,8.15-11.83,8.15-15.57,0-1.44-1.8-2.26-3.49-2.55-2.51-.44-5.55.11-6.08,1.6a210.67,210.67,0,0,1-10.14,20.5A39.93,39.93,0,0,1,192.86,387.57Z" style="fill:#263238"></path><path d="M177.77,396.58a.53.53,0,0,1-.24-.06.51.51,0,0,1-.2-.68c1.09-2,2.91-5.41,1.94-9.77-.92-4.15-7.24-6.25-7.3-6.28a.49.49,0,0,1-.32-.62.5.5,0,0,1,.63-.33c.28.1,6.92,2.3,8,7s-1,8.46-2,10.47A.52.52,0,0,1,177.77,396.58Z" style="fill:#263238"></path><path d="M224.47,336.42h-.12a.51.51,0,0,1-.37-.61c.25-1,.46-1.94.66-2.82s.34-1.49.5-2.14a.5.5,0,0,1,.61-.37.5.5,0,0,1,.36.61c-.16.64-.32,1.35-.49,2.12s-.42,1.85-.67,2.84A.49.49,0,0,1,224.47,336.42Z" style="fill:#263238"></path><path d="M210.35,357.48a.51.51,0,0,1-.32-.12.49.49,0,0,1-.06-.7s2.9-3.47,7.95-8.52a20.52,20.52,0,0,0,4.54-7.39.51.51,0,0,1,.65-.29.5.5,0,0,1,.29.65,21.66,21.66,0,0,1-4.77,7.74c-5,5-7.86,8.42-7.89,8.45A.5.5,0,0,1,210.35,357.48Z" style="fill:#263238"></path><path d="M224.59,363.42a.48.48,0,0,1-.26-.07.49.49,0,0,1-.16-.69c.49-.78,4.28-3.38,5.79-4.4l-1.31-1.64c-1.83-2.29.26-6.75.35-6.94a.5.5,0,1,1,.9.43c-.53,1.13-1.67,4.39-.47,5.88l1.65,2.07a.5.5,0,0,1,.11.39.49.49,0,0,1-.22.34,46.45,46.45,0,0,0-5.95,4.4A.51.51,0,0,1,224.59,363.42Z" style="fill:#263238"></path><path d="M178.17,398.86a.5.5,0,0,1-.06-1c5.56-.64,13-10,13.12-10.13a.52.52,0,0,1,.71-.08.5.5,0,0,1,.08.7c-.32.4-7.82,9.82-13.79,10.5Z" style="fill:#263238"></path><path d="M176.13,326.43a12.71,12.71,0,0,0-8.21,8.49c-2,6.79,3.12,7.35,4.81,16.12s3.4,18.39,8.77,17.26,10.18-5.66,12.73-15,.57-21.78-3.39-24.61" style="fill:#fff"></path><path d="M180.66,368.89a4,4,0,0,1-2.24-.69c-3.31-2.2-4.7-9.38-6-16.33l-.14-.73a21.38,21.38,0,0,0-3.22-7.83c-1.54-2.51-2.75-4.49-1.58-8.53A13.09,13.09,0,0,1,176,326a.5.5,0,1,1,.26,1,12.34,12.34,0,0,0-7.86,8.15c-1.05,3.61,0,5.34,1.47,7.73a22.29,22.29,0,0,1,3.35,8.16l.14.73c1.31,6.74,2.65,13.72,5.61,15.69a3.08,3.08,0,0,0,2.43.44c5.8-1.23,10.07-6.29,12.35-14.64,2.56-9.39.37-21.52-3.2-24.07a.5.5,0,0,1-.12-.7.51.51,0,0,1,.7-.11c4.25,3,6.09,16,3.58,25.15-3,11-8.79,14.44-13.11,15.34A4.38,4.38,0,0,1,180.66,368.89Z" style="fill:#263238"></path><path d="M178.6,367.21a.48.48,0,0,1-.26-.07.5.5,0,0,1-.17-.69s2.52-4.19,4.49-7.15,2.65-5.07,1.26-9.7c-.55-1.86-1.71-2.9-3.08-2.87-1.52.06-3.37,1.63-4.08,5a34.26,34.26,0,0,0,.17,12.73.5.5,0,0,1-1,.22,34.93,34.93,0,0,1-.17-13.15c.72-3.41,2.69-5.68,5-5.78,1.84-.06,3.4,1.29,4.08,3.58,1.5,5,.78,7.29-1.39,10.54-2,2.94-4.44,7.08-4.46,7.12A.52.52,0,0,1,178.6,367.21Z" style="fill:#263238"></path><path d="M200.82,376.15s10.09,11.67,13.23,14.36,12.11.22,14.36-1.12,23.77-7.85,28.7-10.32,10.32-9,11.89-11,7.4-6.28,8.07-9.87-3.14-8.74-11-6.28-22.42,9.42-22.42,9.42l-19.07,1.57s-10.31-8.74-16.14-3.14Z" style="fill:#fff"></path><path d="M218.57,392.22a7.48,7.48,0,0,1-4.84-1.33c-3.13-2.69-12.87-13.93-13.29-14.41a.49.49,0,0,1-.07-.54L208,359.57l.11-.15c5.75-5.53,15.25,1.84,16.66,3l18.76-1.55c1.2-.57,14.93-7.05,22.41-9.4,5.21-1.64,8.2.08,9.52,1.25a6.17,6.17,0,0,1,2.11,5.59c-.5,2.68-3.51,5.53-5.92,7.82a25.69,25.69,0,0,0-2.25,2.27c-1.08,1.39-6.76,8.48-12.05,11.13-2.7,1.34-10.24,3.87-16.9,6.1-5.55,1.85-10.79,3.6-11.78,4.2A24.42,24.42,0,0,1,218.57,392.22Zm-17.16-16.15c1.47,1.69,10.14,11.64,13,14.06s11.55.16,13.77-1.17c1.08-.65,6.13-2.34,12-4.29,6.63-2.22,14.14-4.73,16.77-6.05,5.1-2.55,10.65-9.48,11.72-10.85a25,25,0,0,1,2.34-2.38c2.19-2.07,5.19-4.91,5.63-7.27a5.15,5.15,0,0,0-1.8-4.66c-1.16-1-3.81-2.54-8.55-1-7.72,2.43-22.21,9.32-22.36,9.39a.34.34,0,0,1-.17.05l-19.07,1.57a.48.48,0,0,1-.36-.12c-.1-.08-10-8.32-15.41-3.22Z" style="fill:#263238"></path><path d="M265.36,369.5a2.69,2.69,0,0,1-1.15-.27,6,6,0,0,1-2.82-4.79c-.27-2.62,3.6-6.3,7.84-9.89.4-.34.73-.62.95-.82,1.9-1.71,5.56.18,5.71.26a.49.49,0,0,1,.21.67.5.5,0,0,1-.67.22c-.89-.47-3.43-1.44-4.58-.41-.23.21-.57.49-1,.84-2.31,2-7.74,6.57-7.48,9a5.09,5.09,0,0,0,2.26,4,1.42,1.42,0,0,0,1.45-.05.5.5,0,0,1,.54.84A2.33,2.33,0,0,1,265.36,369.5Z" style="fill:#263238"></path><path d="M221.23,409.35s9.64,14.13,15,12.78,32.07-17.72,35.88-20.18,5.61-9.87,8.07-18.17,4.49-13,3.59-15-7.4-2.91-13,.68S260,381.76,260,381.76Z" style="fill:#fff"></path><path d="M235.53,422.72c-5.71,0-14.33-12.53-14.71-13.09a.5.5,0,0,1,.12-.69l38.71-27.52c.6-1,5.48-9,10.87-12.41,4.07-2.61,8.65-2.95,11.38-2.13a3.55,3.55,0,0,1,2.36,1.67c.75,1.68-.22,4.73-1.83,9.78-.53,1.65-1.12,3.51-1.74,5.59-.26.88-.51,1.75-.76,2.61-2.12,7.26-3.95,13.53-7.52,15.84-4,2.61-30.54,18.87-36,20.25A4,4,0,0,1,235.53,422.72Zm-13.61-13.25c2.86,4.08,10.22,13.17,14.21,12.18,5.29-1.33,31.88-17.63,35.74-20.12,3.25-2.11,5-8.21,7.1-15.28.25-.86.5-1.73.76-2.61.63-2.1,1.22-4,1.75-5.61,1.48-4.66,2.46-7.74,1.86-9.07a2.67,2.67,0,0,0-1.73-1.12c-2.51-.75-6.74-.43-10.55,2-5.44,3.48-10.55,12.08-10.6,12.17a.5.5,0,0,1-.14.15Z" style="fill:#263238"></path><path d="M276.52,385.09a3.57,3.57,0,0,1-1-.15c-2.24-.67-1.93-7.23-.84-11.71,1.23-5.1,5.25-5.51,5.42-5.52a.49.49,0,0,1,.54.45.5.5,0,0,1-.45.54c-.16,0-3.49.39-4.54,4.76-1.22,5-.94,10.2.15,10.52a3.37,3.37,0,0,0,2.71-.58.51.51,0,0,1,.7.1.48.48,0,0,1-.09.69A4.59,4.59,0,0,1,276.52,385.09Z" style="fill:#263238"></path><path d="M257.18,388.26a.49.49,0,0,1-.47-.34c-1.09-3.08,1.52-5.66,3.06-6.59a.5.5,0,0,1,.52.86c-.16.09-3.73,2.31-2.64,5.4a.51.51,0,0,1-.31.64A.45.45,0,0,1,257.18,388.26Z" style="fill:#263238"></path></g></svg>