<svg xmlns="http://www.w3.org/2000/svg" xmlns:xlink="http://www.w3.org/1999/xlink" width="250" zoomAndPan="magnify" viewBox="0 0 187.5 56.249996" height="75" preserveAspectRatio="xMidYMid meet" version="1.0"><defs><g/><clipPath id="id1"><path d="M 5 35 L 15 35 L 15 51.523438 L 5 51.523438 Z M 5 35 " clip-rule="nonzero"/></clipPath><clipPath id="id2"><path d="M 3 4.027344 L 21 4.027344 L 21 50 L 3 50 Z M 3 4.027344 " clip-rule="nonzero"/></clipPath></defs><g clip-path="url(#id1)"><path fill="#90caf9" d="M 5.632812 35.617188 C 5.816406 40.378906 8.050781 42.859375 9.945312 44.957031 C 11.695312 46.894531 14.039062 48.660156 13.511719 51.519531 C 13.898438 50.695312 13.980469 50.230469 14.164062 49.421875 C 15.355469 44.15625 6.945312 41.054688 5.632812 35.617188 " fill-opacity="1" fill-rule="nonzero"/></g><g clip-path="url(#id2)"><path fill="#51abf6" d="M 16.683594 49.257812 C 25.503906 40.457031 18.5 30.824219 15.195312 25.660156 C 8.699219 15.527344 16.238281 6.089844 18.523438 4.027344 C 7.726562 5.554688 1.109375 21.066406 5.046875 29.421875 C 8.289062 36.296875 16.238281 40.703125 16.683594 49.257812 " fill-opacity="1" fill-rule="nonzero"/></g><path fill="#feb134" d="M 23.476562 41.949219 C 31.1875 36.390625 33.730469 27.503906 28.707031 21.984375 C 24.367188 17.214844 19.046875 14.382812 18.640625 7.105469 C 13.78125 14.121094 16.335938 19.960938 20.707031 25.269531 C 26.558594 32.367188 24.125 40.640625 23.476562 41.949219 " fill-opacity="1" fill-rule="nonzero"/><g fill="#feb134" fill-opacity="1"><g transform="translate(40.801589, 38.012394)"><g><path d="M 12.328125 0 L 7.90625 -7.8125 L 6.015625 -7.8125 L 6.015625 0 L 1.984375 0 L 1.984375 -20.0625 L 9.515625 -20.0625 C 11.066406 -20.0625 12.390625 -19.785156 13.484375 -19.234375 C 14.578125 -18.691406 15.394531 -17.957031 15.9375 -17.03125 C 16.488281 -16.101562 16.765625 -15.066406 16.765625 -13.921875 C 16.765625 -12.597656 16.378906 -11.398438 15.609375 -10.328125 C 14.847656 -9.265625 13.707031 -8.535156 12.1875 -8.140625 L 16.984375 0 Z M 6.015625 -10.84375 L 9.375 -10.84375 C 10.46875 -10.84375 11.28125 -11.101562 11.8125 -11.625 C 12.351562 -12.15625 12.625 -12.890625 12.625 -13.828125 C 12.625 -14.742188 12.351562 -15.457031 11.8125 -15.96875 C 11.28125 -16.476562 10.46875 -16.734375 9.375 -16.734375 L 6.015625 -16.734375 Z M 6.015625 -10.84375 "/></g></g></g><g fill="#feb134" fill-opacity="1"><g transform="translate(60.350042, 38.012394)"><g><path d="M 6.015625 -16.8125 L 6.015625 -11.78125 L 12.765625 -11.78125 L 12.765625 -8.59375 L 6.015625 -8.59375 L 6.015625 -3.28125 L 13.625 -3.28125 L 13.625 0 L 1.984375 0 L 1.984375 -20.09375 L 13.625 -20.09375 L 13.625 -16.8125 Z M 6.015625 -16.8125 "/></g></g></g><g fill="#51abf6" fill-opacity="1"><g transform="translate(76.761902, 38.012394)"><g><path d="M 13.3125 0 L 6.015625 -8.9375 L 6.015625 0 L 1.984375 0 L 1.984375 -20.0625 L 6.015625 -20.0625 L 6.015625 -11.0625 L 13.3125 -20.0625 L 18.171875 -20.0625 L 9.890625 -10.125 L 18.40625 0 Z M 13.3125 0 "/></g></g></g><g fill="#51abf6" fill-opacity="1"><g transform="translate(96.942791, 38.012394)"><g><path d="M 6.015625 -20.0625 L 6.015625 0 L 1.984375 0 L 1.984375 -20.0625 Z M 6.015625 -20.0625 "/></g></g></g><g fill="#51abf6" fill-opacity="1"><g transform="translate(106.056056, 38.012394)"><g><path d="M 19.140625 0 L 15.125 0 L 6.015625 -13.765625 L 6.015625 0 L 1.984375 0 L 1.984375 -20.09375 L 6.015625 -20.09375 L 15.125 -6.296875 L 15.125 -20.09375 L 19.140625 -20.09375 Z M 19.140625 0 "/></g></g></g><g fill="#51abf6" fill-opacity="1"><g transform="translate(128.306727, 38.012394)"><g><path d="M 9 -20.0625 C 11.101562 -20.0625 12.957031 -19.648438 14.5625 -18.828125 C 16.164062 -18.003906 17.398438 -16.832031 18.265625 -15.3125 C 19.140625 -13.789062 19.578125 -12.019531 19.578125 -10 C 19.578125 -7.988281 19.140625 -6.226562 18.265625 -4.71875 C 17.398438 -3.21875 16.164062 -2.054688 14.5625 -1.234375 C 12.957031 -0.410156 11.101562 0 9 0 L 1.984375 0 L 1.984375 -20.0625 Z M 8.859375 -3.421875 C 10.960938 -3.421875 12.585938 -3.992188 13.734375 -5.140625 C 14.890625 -6.296875 15.46875 -7.914062 15.46875 -10 C 15.46875 -12.09375 14.890625 -13.726562 13.734375 -14.90625 C 12.585938 -16.082031 10.960938 -16.671875 8.859375 -16.671875 L 6.015625 -16.671875 L 6.015625 -3.421875 Z M 8.859375 -3.421875 "/></g></g></g><g fill="#51abf6" fill-opacity="1"><g transform="translate(150.039954, 38.012394)"><g><path d="M 6.015625 -3.1875 L 12.625 -3.1875 L 12.625 0 L 1.984375 0 L 1.984375 -20.0625 L 6.015625 -20.0625 Z M 6.015625 -3.1875 "/></g></g></g><g fill="#51abf6" fill-opacity="1"><g transform="translate(164.35644, 38.012394)"><g><path d="M 6.015625 -16.8125 L 6.015625 -11.78125 L 12.765625 -11.78125 L 12.765625 -8.59375 L 6.015625 -8.59375 L 6.015625 -3.28125 L 13.625 -3.28125 L 13.625 0 L 1.984375 0 L 1.984375 -20.09375 L 13.625 -20.09375 L 13.625 -16.8125 Z M 6.015625 -16.8125 "/></g></g></g></svg>