<svg xmlns="http://www.w3.org/2000/svg" xmlns:xlink="http://www.w3.org/1999/xlink" width="250" zoomAndPan="magnify" viewBox="0 0 187.5 187.499992" height="250" preserveAspectRatio="xMidYMid meet" version="1.0"><defs><clipPath id="id1"><path d="M 48 123 L 82 123 L 82 183.3125 L 48 183.3125 Z M 48 123 " clip-rule="nonzero"/></clipPath><clipPath id="id2"><path d="M 42 4.0625 L 108 4.0625 L 108 175 L 42 175 Z M 42 4.0625 " clip-rule="nonzero"/></clipPath></defs><g clip-path="url(#id1)"><path fill="#90caf9" d="M 48.988281 123.273438 C 49.691406 141.253906 58.207031 150.617188 65.421875 158.527344 C 72.089844 165.839844 81.03125 172.503906 79.027344 183.304688 C 80.496094 180.191406 80.808594 178.433594 81.507812 175.375 C 86.046875 155.507812 53.984375 143.800781 48.988281 123.273438 " fill-opacity="1" fill-rule="nonzero"/></g><g clip-path="url(#id2)"><path fill="#51abf6" d="M 91.105469 174.761719 C 124.734375 141.546875 98.042969 105.191406 85.433594 85.707031 C 60.679688 47.457031 89.414062 11.835938 98.121094 4.0625 C 56.96875 9.824219 31.746094 68.363281 46.757812 99.902344 C 59.105469 125.847656 89.417969 142.472656 91.105469 174.761719 " fill-opacity="1" fill-rule="nonzero"/></g><path fill="#feb134" d="M 117.007812 147.175781 C 146.40625 126.199219 156.089844 92.660156 136.941406 71.828125 C 120.40625 53.832031 100.121094 43.136719 98.574219 15.683594 C 80.046875 42.160156 89.789062 64.183594 106.457031 84.222656 C 128.75 111.019531 119.484375 142.238281 117.007812 147.175781 " fill-opacity="1" fill-rule="nonzero"/></svg>