<svg xmlns="http://www.w3.org/2000/svg" viewBox="0 0 500 500"><g id="freepik--Characters--inject-66"><path d="M377.71,239.05s11.58,5,13.09,22.16,10.08,93.7,10.58,102.77-25.69,15.11-34.25,10.58-18.64-65-19.65-68-3.53-31.74,5-48.36S363.46,240,369,240" style="fill:#fff;stroke:#263238;stroke-linecap:round;stroke-linejoin:round"></path><polygon points="362.57 297.2 353.68 336.38 347.03 312.6 362.57 297.2" style="fill:#263238"></polygon><path d="M228.67,192s-15.34-.67-21.34,2.67-70,98.66-70,98.66l38,10L222,266.67" style="fill:#fff;stroke:#263238;stroke-linecap:round;stroke-linejoin:round"></path><path d="M306.23,466,303,412.5s-22.5,2-50.5,1.5-57.5-5.5-57.5-5.5l-.94,57.5Z" style="fill:#FEC56B;stroke:#263238;stroke-linecap:round;stroke-linejoin:round"></path><path d="M303,412.5s-22.5,2-50.5,1.5-57.5-5.5-57.5-5.5l-.14,8.48c7,3.56,32.66,15.67,61.64,16.52,23.83.7,39.79-5.47,47.21-9.23Z" style="fill:#263238;stroke:#263238;stroke-linecap:round;stroke-linejoin:round"></path><polyline points="260.93 438.52 259.54 423.96 265.78 423.96 265.09 438.52" style="fill:#FEC56B;stroke:#263238;stroke-linecap:round;stroke-linejoin:round"></polyline><polyline points="293.51 429.5 292.13 414.95 298.36 414.95 297.67 429.5" style="fill:#FEC56B;stroke:#263238;stroke-linecap:round;stroke-linejoin:round"></polyline><path d="M267.44,436.07s8.41,16.81,32.55,15.73" style="fill:none;stroke:#263238;stroke-linecap:round;stroke-linejoin:round"></path><path d="M366.65,292.72c0-1.45-16.91,24.15-16.91,24.15s-31.39,55.54-32.36,57.47-14.48,41.53-14.48,41.53-3.49,6-21.25,9.18c-40.13,7.23-78.24-6.28-81.35-11.68s11.32-119.68,11.32-119.68,4.83-97.56,8.69-98.53,58.44,5.32,58.44,5.32,57.47,17.87,68.58,23.66,39.6,18.84,39.6,26.56" style="fill:#fff;stroke:#263238;stroke-linecap:round;stroke-linejoin:round"></path><path d="M286.48,277.75l-4.35,98-20.77-3.87,18.35-98.52A10,10,0,0,1,286.48,277.75Z" style="fill:#969696;stroke:#263238;stroke-linecap:round;stroke-linejoin:round"></path><path d="M261.85,198.06s-2.42,26.08,2.89,44.92,9,25.08,9,25.08,5.93-2,8.83,1.39a33,33,0,0,0,5.88,5.4s14-.48,32.36-15.45,26.56-35.26,26.56-35.26,28,11.59,33.8,16.9,3.38,11.6-3.38,19.32-28.49,26.08-54.57,30.91-48.78-6.76-48.78-6.76-29.94-7.24-43.46-39.12-6.28-52.64-6.28-52.64S248.32,193.72,261.85,198.06Z" style="fill:#969696;stroke:#263238;stroke-linecap:round;stroke-linejoin:round"></path><path d="M285,280.16a62.09,62.09,0,0,0,43.46-6.76" style="fill:none;stroke:#263238;stroke-linecap:round;stroke-linejoin:round"></path><path d="M283.1,283.06a51.5,51.5,0,0,0,35.25,1.45" style="fill:none;stroke:#263238;stroke-linecap:round;stroke-linejoin:round"></path><path d="M275.37,272.44s-15-10.15-22.7-35.74" style="fill:none;stroke:#263238;stroke-linecap:round;stroke-linejoin:round"></path><path d="M240.6,241.53a72.09,72.09,0,0,0,36.7,36.22" style="fill:none;stroke:#263238;stroke-linecap:round;stroke-linejoin:round"></path><path d="M271.85,272.71l-19.66,86.18,23.18,7.24,13-91.28S275.71,257.73,271.85,272.71Z" style="fill:#969696;stroke:#263238;stroke-linecap:round;stroke-linejoin:round"></path><path d="M301,124s-8.21,5.93-12.32,14.6S275.91,171.42,273.63,186s-2.28,31.49,0,41.53,9.13,15.52,14.6,16.43l5.48.91s6.39,5.93,19.63,1.37,21-11.87,22.82-15.52a97.09,97.09,0,0,0,3.65-9.12c.91-2.29,2.74-9.59,2.74-9.59s10,0,13.69-6.39,5.93-11.86,5-15.06-2.74-3.65-2.74-3.65,11-16.89,11-34.69-22.36-32.4-37.88-35.59S301,124,301,124Z" style="fill:#bdbdbd;stroke:#263238;stroke-linecap:round;stroke-linejoin:round"></path><path d="M293.71,244.9s16.89,2.28,37-15.06" style="fill:none;stroke:#263238;stroke-linecap:round;stroke-linejoin:round"></path><path d="M284.13,198.81a8.38,8.38,0,0,0,2.28,7.3c3.19,3.19,10,4.11,13.69,1.82" style="fill:none;stroke:#263238;stroke-linecap:round;stroke-linejoin:round"></path><path d="M280.48,210.67s6.84,14.61,27.38,8.22" style="fill:none;stroke:#263238;stroke-linecap:round;stroke-linejoin:round"></path><path d="M283,214.57s.19,7.51,5.67,9.34,10.53-3.08,10.53-3.08S288.63,221.05,283,214.57Z" style="fill:none;stroke:#263238;stroke-linecap:round;stroke-linejoin:round"></path><path d="M282.8,224.07s2.8,5.57,11.45,3.89" style="fill:none;stroke:#263238;stroke-linecap:round;stroke-linejoin:round"></path><path d="M311.74,181.1a14.57,14.57,0,0,1,13.6,8" style="fill:none;stroke:#263238;stroke-linecap:round;stroke-linejoin:round;stroke-width:2px"></path><path d="M295.11,174.62s-1.72-8.85-11.87-7.12" style="fill:none;stroke:#263238;stroke-linecap:round;stroke-linejoin:round;stroke-width:2px"></path><path d="M313.47,202.26s5.83-.86,9.5.87" style="fill:none;stroke:#263238;stroke-linecap:round;stroke-linejoin:round"></path><path d="M287.27,184.11c-.51,2-1.87,3.43-3,3.14s-1.68-2.18-1.16-4.2,1.87-3.42,3-3.13S287.79,182.09,287.27,184.11Z" style="fill:#263238"></path><path d="M313,196.64c-.52,2-1.87,3.42-3,3.13s-1.68-2.17-1.17-4.19,1.87-3.43,3-3.14S313.48,194.62,313,196.64Z" style="fill:#263238"></path><path d="M331.59,116.66C316.07,113.46,301,124,301,124s-8.21,5.93-12.32,14.6c-1.18,2.49-2.73,6.25-4.4,10.69l6-7.25a65.18,65.18,0,0,0,28.34,18.33c18.33,6,24.66,6,24.66,6s-10.33,12.34-6,18,8.67,7,8.67,7-3,4.34-.67,5,6.34-7,9-8.33,4.19-1.06,4.19-1.06,11-16.89,11-34.69S347.11,119.85,331.59,116.66Z" style="fill:#263238"></path><path d="M66.41,315.21c-5.74-1.25-11.57-1.76-17.4-2.46a4.79,4.79,0,0,0-2.23.08c-6.35,2.34,5.07,7.72,6.17,8.15,6.41,2.57,9.93,1.29,9.93,1.29l5.78-6.42Z" style="fill:#bdbdbd;stroke:#263238;stroke-linecap:round;stroke-linejoin:round"></path><path d="M98.77,466H239.28c.6-10,2.54-43.37,2.54-54.44,0-13.08,9.93-90.25,7.67-105.6s-14-23-29.78-23-35.66-3.61-42-4.07-59.12,9-59.12,9-22.12,12.64-32,17.6-23.47,5.42-28.89,25.27,13.09,61.83,21.67,80.78C86.52,427.4,95.88,456.76,98.77,466Z" style="fill:#FEC56B"></path><path d="M98.77,466H239.28c.6-10,2.54-43.37,2.54-54.44,0-13.08,9.93-90.25,7.67-105.6s-14-23-29.78-23-35.66-3.61-42-4.07-59.12,9-59.12,9-22.12,12.64-32,17.6-23.47,5.42-28.89,25.27,13.09,61.83,21.67,80.78C86.52,427.4,95.88,456.76,98.77,466Z" style="fill:#fff;opacity:0.4"></path><path d="M98.77,466C90.82,444.62,85,421,74,401c-1-2,0-3-1-5-9-19-17-39-16-60,1-10,6-21,16-25,15-6,30-13,43-22,18-5,36-7,54-10,14-1,27,2,40,4h15c13,2,24,11,25,24,1,18-2,35-4,53v10c-6,32-4,64.55-6.57,96" style="fill:none;stroke:#263238;stroke-linecap:round;stroke-linejoin:round"></path><path d="M197.57,463.33C199,452,196,442,196,432c0-5,3-11,3-16,1-11-3-21-2-32,2-16,4-31,4.2-45.55" style="fill:none;stroke:#263238;stroke-linecap:round;stroke-linejoin:round"></path><path d="M205.26,411.56s6.77-9,12.64-18.95" style="fill:none;stroke:#263238;stroke-linecap:round;stroke-linejoin:round"></path><path d="M203.08,446.51c-2.33,7.21-2.33,11.08-2.33,11.08" style="fill:none;stroke:#263238;stroke-linecap:round;stroke-linejoin:round"></path><path d="M219.25,409.76s-3.15,8.57-10.83,23.92c-.95,1.91-1.79,3.72-2.52,5.41" style="fill:none;stroke:#263238;stroke-linecap:round;stroke-linejoin:round"></path><path d="M195.46,360.86c-.26,5.81-.58,9.2-.58,10.54" style="fill:none;stroke:#263238;stroke-linecap:round;stroke-linejoin:round"></path><path d="M202.56,315.44s-6.77,14-6.77,29.78q0,3.58-.06,6.64" style="fill:none;stroke:#263238;stroke-linecap:round;stroke-linejoin:round"></path><path d="M185.56,314.44c-.15,2.93-.22,6-.15,9.12" style="fill:none;stroke:#263238;stroke-linecap:round;stroke-linejoin:round"></path><path d="M190.82,283.4a125,125,0,0,0-4.22,20" style="fill:none;stroke:#263238;stroke-linecap:round;stroke-linejoin:round"></path><path d="M179.46,337.28c.14,2,.32,4,.53,6.14" style="fill:none;stroke:#263238;stroke-linecap:round;stroke-linejoin:round"></path><path d="M180.44,301.9s-2.2,10.07-1.35,29.17" style="fill:none;stroke:#263238;stroke-linecap:round;stroke-linejoin:round"></path><path d="M155.08,384.18q.63,3.84,1.17,7.89" style="fill:none;stroke:#263238;stroke-linecap:round;stroke-linejoin:round"></path><path d="M140.31,331.76s8.2,17.43,13.58,45.67" style="fill:none;stroke:#263238;stroke-linecap:round;stroke-linejoin:round"></path><path d="M101.64,405.64c.57.32,1.13.66,1.69,1" style="fill:none;stroke:#263238;stroke-linecap:round;stroke-linejoin:round"></path><path d="M77,401a41.62,41.62,0,0,1,22.15,3.35" style="fill:none;stroke:#263238;stroke-linecap:round;stroke-linejoin:round"></path><path d="M96.33,396s7,2,10.67,5.67" style="fill:none;stroke:#263238;stroke-linecap:round;stroke-linejoin:round"></path><path d="M124,259.93s-5,2.26-5.41,5.87.9,2.71-.9,9-4.52,16.25-2.26,20.31,18.5,12.19,34.3,9.48,25.72-13.54,26.62-19.41a37.94,37.94,0,0,0,.45-9.47l-.45-4.52s-18,0-27.53-4.06S124,259.93,124,259.93Z" style="fill:#FEC56B"></path><path d="M124,259.93s-5,2.26-5.41,5.87.9,2.71-.9,9-4.52,16.25-2.26,20.31,18.5,12.19,34.3,9.48,25.72-13.54,26.62-19.41a37.94,37.94,0,0,0,.45-9.47l-.45-4.52s-18,0-27.53-4.06S124,259.93,124,259.93Z" style="fill:#fff;opacity:0.4"></path><path d="M124,259.93s-5,2.26-5.41,5.87.9,2.71-.9,9-4.52,16.25-2.26,20.31,18.5,12.19,34.3,9.48,25.72-13.54,26.62-19.41a37.94,37.94,0,0,0,.45-9.47l-.45-4.52s-18,0-27.53-4.06S124,259.93,124,259.93Z" style="fill:none;stroke:#263238;stroke-linecap:round;stroke-linejoin:round"></path><path d="M126.29,235.56s-1.81,17.15-2.26,24.37-.45,9.93-.45,9.93,1.81,6.32,14.44,8.12a71.25,71.25,0,0,0,23.92-.9s-2.71-1.35-10.83-12.18S126.29,235.56,126.29,235.56Z" style="fill:#bdbdbd;stroke:#263238;stroke-linecap:round;stroke-linejoin:round"></path><path d="M151.11,264.9c-7.24-9.66-21.29-25.41-24.25-28.71a5.79,5.79,0,0,0-.82,1.75c-.07.7-.15,1.52-.25,2.43l14.58,37.9a71.77,71.77,0,0,0,21.57-1.19S159.23,275.73,151.11,264.9Z" style="fill:#263238;stroke:#263238;stroke-linecap:round;stroke-linejoin:round"></path><path d="M180.44,154.78s3.16-5-1.35-10.83-12.18-7.67-12.18-7.67,0-8.12-5.42-10.38-11.28,0-12.64,3.16-2.7,6.77-6.77,6.77-10.83-8.58-18.5-4.52-2.71,7.23-3.61,10.84-9.93-2.26-14.44,5,.45,7.67,0,11.28-11.28,4.51-11.28,10.83,6.32,6.77,5.87,11.28-9.93,1.36-8.58,9.93,8.58,6.77,7.67,10.38-9,6.32-5.41,11.28,9,3.61,7.22,7.68-5.42,9.47.9,11.28,9.48.9,9,5.41,1.8,8.13,5,8.13,5.42-6.32,7.67-.91,8.58,8.13,11.74,7.23S143,235.56,143,228.34s-19.41-33.85,7.22-51.45,32.94-17.6,32.94-17.6l-2.25-2.7Z" style="fill:#263238;stroke:#263238;stroke-linecap:round;stroke-linejoin:round"></path><path d="M204.36,170.13s4.73-2.71,13.67-1.81,10,5.42,8.94,9.48,4.74,2.25,8.94,5.86,2.63,6.32-.52,11.74,2.63,3.16,6.31,6.77,4.2,7.22-1,9.92-7.89,3.61-4.74,9,1.58,8.12-4.73,9.48-8.41-1.36-11.57,2.71-8.94,5.86-11,2.25,11.57-13.09,10.52-30.69S204.36,170.13,204.36,170.13Z" style="fill:#263238;stroke:#263238;stroke-linecap:round;stroke-linejoin:round"></path><path d="M153.27,159.25a47.25,47.25,0,0,0-21.64,16.28,36.26,36.26,0,0,0-6.27,13.85C120.7,211.36,122,220,122.7,224S128,244,128,244a58.56,58.56,0,0,0,6.66,15.32C139.35,266.64,150,278,156,280.62S191.29,272,200,265.3s8-22,10-28,13.32-10,13.32-36.62C223.26,164.27,183.14,147.92,153.27,159.25Z" style="fill:#bdbdbd;stroke:#263238;stroke-linecap:round;stroke-linejoin:round"></path><path d="M212.33,231.67s1.36-3.74-.66-6" style="fill:none;stroke:#263238;stroke-linecap:round;stroke-linejoin:round;stroke-width:2px"></path><path d="M197.14,213.45s-7.22-8.58-20.31-1.36" style="fill:none;stroke:#263238;stroke-linecap:round;stroke-linejoin:round;stroke-width:2px"></path><path d="M208.42,225.63s-9.92,2.71-11.28,8.58,7.67,16.24,2.26,18.95-10.83.9-11.74-.45" style="fill:none;stroke:#263238;stroke-linecap:round;stroke-linejoin:round"></path><path d="M180.44,259.48s-11.28-2.26-14.89-15.8c0,0-6.77,16.7-.9,19.86S180.44,259.48,180.44,259.48Z" style="fill:#263238;stroke:#263238;stroke-linecap:round;stroke-linejoin:round"></path><path d="M146.15,217.51c9.47-10.38,7.67-23,33.84-27.53,24.39-4.2,37.8,6.09,42.44,22.11a72.16,72.16,0,0,0,.83-11.38c0-36.44-40.12-52.79-70-41.46a47.25,47.25,0,0,0-21.64,16.28,36.26,36.26,0,0,0-6.27,13.85C120.7,211.36,122,220,122.7,224l6.3-4.24S136.67,227.89,146.15,217.51Z" style="fill:#263238;stroke:#263238;stroke-linecap:round;stroke-linejoin:round"></path><path d="M184.54,228.67c-1.36,1.78-3.18,2.68-4.07,2s-.52-2.68.84-4.46,3.18-2.68,4.08-2S185.9,226.88,184.54,228.67Z" style="fill:#263238"></path><path d="M205,236.08c-1.31,1.83-3.1,2.78-4,2.13s-.59-2.66.71-4.49,3.1-2.77,4-2.12S206.3,234.26,205,236.08Z" style="fill:#263238"></path><path d="M134,225.35s-1.33-10.66-7.33-10.66-12.65,8.66-8.65,20,12.65,12,15.31,10.65" style="fill:#bdbdbd;stroke:#263238;stroke-linecap:round;stroke-linejoin:round"></path><path d="M53.91,352.08a5.89,5.89,0,0,0,2.56,6.1c3.53,2.56,13.47,2.24,16,1s-1-2.57-3.52-3.21-10.91-3.85-10.91-3.85S55.19,351.12,53.91,352.08Z" style="fill:#bdbdbd;stroke:#263238;stroke-linecap:round;stroke-linejoin:round"></path><path d="M51.34,344.39s0,5.45,2.57,7.69,12.18,1.61,15.71,0,6.41-4.48,6.73-6.73-1.28-3.2-2.24-2.56-8,1.6-12.83,1.6Z" style="fill:#bdbdbd;stroke:#263238;stroke-linecap:round;stroke-linejoin:round"></path><path d="M48.46,333.17s-1.93,7.05,0,9.94S58.07,347,63.2,347s13.15-1.6,14.11-4.8.32-6.1-3.2-5.78-16-.64-19.88-1.6S48.46,333.17,48.46,333.17Z" style="fill:#bdbdbd;stroke:#263238;stroke-linecap:round;stroke-linejoin:round"></path><path d="M62.56,327.08s-10.9-5.45-14.1-6.42-5.45,6.1-3.53,10.58,15.39,7.06,18.92,7.38,12.18,0,13.14-3.53-2.24-4.81-6.09-5.77S62.56,327.08,62.56,327.08Z" style="fill:#bdbdbd;stroke:#263238;stroke-linecap:round;stroke-linejoin:round"></path><path d="M261.78,389.92s10.39,8.31,15,11.36,10.68.55,11.54.27-16.73-10.8-16.73-10.8Z" style="fill:#bdbdbd;stroke:#263238;stroke-linecap:round;stroke-linejoin:round"></path><path d="M267.93,391.6s15.08,9.78,20.95,12.57,14.25-7.82,14.25-7.82Z" style="fill:#bdbdbd;stroke:#263238;stroke-linecap:round;stroke-linejoin:round"></path><path d="M327.48,397.62s-1.39-9.71-.69-12.48,14.55.69,14.55.69Z" style="fill:#263238;stroke:#263238;stroke-linecap:round;stroke-linejoin:round"></path><path d="M337.41,361.46s-10.58.5-12.6,0-9.57-8.57-13.6-16.12-8.06-7.56-10.58-4.54-18.13,9.58-18.13,9.58L280,396.72a29.37,29.37,0,0,0,15.11,2.52c8.06-1,27.2-8.06,27.2-8.06h18.64s6.05-8.06,5.54-16.62a18.55,18.55,0,0,0-6.55-13.1Z" style="fill:#bdbdbd;stroke:#263238;stroke-linecap:round;stroke-linejoin:round"></path><path d="M376.7,344.83a120.09,120.09,0,0,0-15.11,7.56C354,356.92,333.38,361,333.38,361s4.53,3.53,4.53,12.09-10.43,24.58-10.43,24.58,17.48-1.4,27-2.91,37.28-5.55,44.84-13.61,2.52-30.22,1-34.75a63.26,63.26,0,0,0-3-7.56" style="fill:#fff;stroke:#263238;stroke-linecap:round;stroke-linejoin:round"></path><rect x="211.41" y="342.69" width="88.1" height="48.18" transform="translate(61.75 -36.04) rotate(9.17)" style="fill:#FEC56B;stroke:#263238;stroke-linecap:round;stroke-linejoin:round"></rect><path d="M299.66,369.33a1.22,1.22,0,0,0-.12.19.64.64,0,0,0-.06.28h.11Z" style="fill:#263238"></path><path d="M300.2,356.12a.72.72,0,1,0-.72-.72A.72.72,0,0,0,300.2,356.12Z" style="fill:#263238"></path><path d="M293,361.88a.72.72,0,1,0,.72.72A.72.72,0,0,0,293,361.88Z" style="fill:#263238"></path><path d="M293,348.92a.74.74,0,0,0,.63-.38l-1.32-.22A.71.71,0,0,0,293,348.92Z" style="fill:#263238"></path><path d="M286.52,369.8a.82.82,0,0,0,0-.28.73.73,0,0,0-.67-.44v.72Z" style="fill:#263238"></path><path d="M285.8,354.68v1.44a.72.72,0,1,0,0-1.44Z" style="fill:#263238"></path><path d="M293,390.68a.72.72,0,1,0,.72.72A.72.72,0,0,0,293,390.68Z" style="fill:#263238"></path><path d="M293,376.28a.72.72,0,1,0,.72.72A.72.72,0,0,0,293,376.28Z" style="fill:#263238"></path><path d="M286.52,384.2a.72.72,0,0,0-.72-.72v1.44A.72.72,0,0,0,286.52,384.2Z" style="fill:#263238"></path><path d="M299.48,369.8a.67.67,0,0,0,.06.28l0-.28Z" style="fill:#263238"></path><path d="M285.8,369.8v.72a.72.72,0,0,0,.72-.72Z" style="fill:#263238"></path><path d="M285.8,369.08a.87.87,0,0,0-.28.05.73.73,0,0,0-.38.39.64.64,0,0,0-.06.28h.72Z" style="fill:#263238"></path><path d="M272.07,369.52a.73.73,0,0,0-.67-.44.71.71,0,0,0-.66.44.64.64,0,0,0-.06.28h1.44A.82.82,0,0,0,272.07,369.52Z" style="fill:#263238"></path><path d="M285.52,354.73a.73.73,0,0,0-.44.67.71.71,0,0,0,.44.66.67.67,0,0,0,.28.06v-1.44A.87.87,0,0,0,285.52,354.73Z" style="fill:#263238"></path><path d="M271.4,354.68a.72.72,0,1,0,.72.72A.72.72,0,0,0,271.4,354.68Z" style="fill:#263238"></path><path d="M264.2,361.88a.72.72,0,1,0,.72.72A.72.72,0,0,0,264.2,361.88Z" style="fill:#263238"></path><path d="M278.6,361.88a.72.72,0,1,0,.72.72A.72.72,0,0,0,278.6,361.88Z" style="fill:#263238"></path><path d="M264.2,347.48a.72.72,0,1,0,.72.72A.72.72,0,0,0,264.2,347.48Z" style="fill:#263238"></path><path d="M278.6,347.48a.72.72,0,1,0,.72.72A.72.72,0,0,0,278.6,347.48Z" style="fill:#263238"></path><path d="M257.72,369.8a.82.82,0,0,0-.05-.28.63.63,0,0,0-.16-.23.72.72,0,0,0-.51-.21v.72Z" style="fill:#263238"></path><path d="M257.51,354.89a.72.72,0,0,0-.51-.21v1.44a.72.72,0,0,0,.51-1.23Z" style="fill:#263238"></path><path d="M285.8,383.48a.87.87,0,0,0-.28,0,.72.72,0,0,0,0,1.33.67.67,0,0,0,.28.06Z" style="fill:#263238"></path><path d="M271.4,383.48a.72.72,0,1,0,.72.72A.72.72,0,0,0,271.4,383.48Z" style="fill:#263238"></path><path d="M264.2,390.68a.72.72,0,1,0,.72.72A.72.72,0,0,0,264.2,390.68Z" style="fill:#263238"></path><path d="M278.6,390.68a.72.72,0,1,0,.72.72A.72.72,0,0,0,278.6,390.68Z" style="fill:#263238"></path><path d="M264.2,376.28a.72.72,0,1,0,.72.72A.72.72,0,0,0,264.2,376.28Z" style="fill:#263238"></path><path d="M278.6,376.28a.72.72,0,1,0,.72.72A.72.72,0,0,0,278.6,376.28Z" style="fill:#263238"></path><path d="M257,383.48v1.44a.72.72,0,1,0,0-1.44Z" style="fill:#263238"></path><path d="M285.08,369.8a.72.72,0,0,0,.44.66.67.67,0,0,0,.28.06v-.72Z" style="fill:#263238"></path><path d="M270.68,369.8a.72.72,0,1,0,1.44,0Z" style="fill:#263238"></path><path d="M257,369.8v.72a.72.72,0,0,0,.72-.72Z" style="fill:#263238"></path><path d="M243.32,341a.82.82,0,0,0,0-.28.76.76,0,0,0-.37-.38l-.35,0a.7.7,0,0,0-.61.43.64.64,0,0,0-.06.28Z" style="fill:#263238"></path><path d="M228.92,341a.82.82,0,0,0,0-.28.73.73,0,0,0-.67-.44V341Z" style="fill:#263238"></path><path d="M257,369.08a.71.71,0,0,0-.66.44.64.64,0,0,0-.06.28H257Z" style="fill:#263238"></path><path d="M243.27,369.52a.73.73,0,0,0-.67-.44.71.71,0,0,0-.66.44.64.64,0,0,0-.06.28h1.44A.82.82,0,0,0,243.27,369.52Z" style="fill:#263238"></path><path d="M256.28,355.4a.72.72,0,0,0,.72.72v-1.44A.72.72,0,0,0,256.28,355.4Z" style="fill:#263238"></path><path d="M242.6,354.68a.72.72,0,1,0,.72.72A.72.72,0,0,0,242.6,354.68Z" style="fill:#263238"></path><path d="M235.4,361.88a.72.72,0,1,0,.72.72A.72.72,0,0,0,235.4,361.88Z" style="fill:#263238"></path><path d="M249.8,363.32a.72.72,0,1,0-.72-.72A.72.72,0,0,0,249.8,363.32Z" style="fill:#263238"></path><path d="M235.4,347.48a.72.72,0,1,0,.72.72A.72.72,0,0,0,235.4,347.48Z" style="fill:#263238"></path><path d="M249.08,348.2a.72.72,0,1,0,.72-.72A.72.72,0,0,0,249.08,348.2Z" style="fill:#263238"></path><path d="M228.92,369.8a.82.82,0,0,0,0-.28.73.73,0,0,0-.67-.44v.72Z" style="fill:#263238"></path><path d="M228.2,354.68v1.44a.72.72,0,1,0,0-1.44Z" style="fill:#263238"></path><path d="M241.94,341.28a.71.71,0,0,0,.66.44.73.73,0,0,0,.67-.44.87.87,0,0,0,0-.28h-1.44A.67.67,0,0,0,241.94,341.28Z" style="fill:#263238"></path><path d="M228.2,341.72a.73.73,0,0,0,.67-.44.87.87,0,0,0,0-.28h-.72Z" style="fill:#263238"></path><path d="M256.28,384.2a.72.72,0,0,0,.72.72v-1.44A.72.72,0,0,0,256.28,384.2Z" style="fill:#263238"></path><path d="M242.6,383.48a.72.72,0,1,0,.72.72A.72.72,0,0,0,242.6,383.48Z" style="fill:#263238"></path><path d="M234.68,377a.72.72,0,1,0,.72-.72A.72.72,0,0,0,234.68,377Z" style="fill:#263238"></path><path d="M249.08,377a.72.72,0,1,0,.72-.72A.72.72,0,0,0,249.08,377Z" style="fill:#263238"></path><path d="M228.2,383.48v1.44a.72.72,0,1,0,0-1.44Z" style="fill:#263238"></path><path d="M256.28,369.8a.72.72,0,0,0,.72.72v-.72Z" style="fill:#263238"></path><path d="M241.88,369.8a.72.72,0,1,0,1.44,0Z" style="fill:#263238"></path><path d="M228.2,369.8v.72a.72.72,0,0,0,.72-.72Z" style="fill:#263238"></path><path d="M228.2,340.28a.71.71,0,0,0-.66.44.64.64,0,0,0-.06.28h.72Z" style="fill:#263238"></path><path d="M228.2,369.08a.71.71,0,0,0-.66.44.64.64,0,0,0-.06.28h.72Z" style="fill:#263238"></path><path d="M214.47,369.52a.73.73,0,0,0-.67-.44.71.71,0,0,0-.66.44.64.64,0,0,0-.06.28h1.44A.82.82,0,0,0,214.47,369.52Z" style="fill:#263238"></path><path d="M227.48,355.4a.72.72,0,0,0,.72.72v-1.44A.72.72,0,0,0,227.48,355.4Z" style="fill:#263238"></path><path d="M213.8,354.68a.72.72,0,1,0,.72.72A.72.72,0,0,0,213.8,354.68Z" style="fill:#263238"></path><path d="M221,363.32a.72.72,0,1,0-.72-.72A.72.72,0,0,0,221,363.32Z" style="fill:#263238"></path><path d="M220.28,348.2a.72.72,0,1,0,.72-.72A.72.72,0,0,0,220.28,348.2Z" style="fill:#263238"></path><path d="M228.2,341.72V341h-.72a.67.67,0,0,0,.06.28A.71.71,0,0,0,228.2,341.72Z" style="fill:#263238"></path><path d="M227.48,384.2a.72.72,0,0,0,.72.72v-1.44A.72.72,0,0,0,227.48,384.2Z" style="fill:#263238"></path><path d="M213.8,383.48a.72.72,0,0,0-.72.72.5.5,0,0,0,0,.13l1.31.21a.65.65,0,0,0,.1-.34A.72.72,0,0,0,213.8,383.48Z" style="fill:#263238"></path><path d="M220.28,377a.72.72,0,1,0,.72-.72A.72.72,0,0,0,220.28,377Z" style="fill:#263238"></path><path d="M227.48,369.8a.72.72,0,0,0,.72.72v-.72Z" style="fill:#263238"></path><path d="M213.8,370.52a.72.72,0,0,0,.72-.72h-1.44A.72.72,0,0,0,213.8,370.52Z" style="fill:#263238"></path><rect x="230.8" y="344.24" width="68.59" height="48.18" transform="translate(62.12 -37.55) rotate(9.17)" style="fill:#FEC56B;stroke:#263238;stroke-linecap:round;stroke-linejoin:round"></rect><path d="M299.66,369.33a1.22,1.22,0,0,0-.12.19.64.64,0,0,0-.06.28h.11Z" style="fill:#263238"></path><path d="M300.2,356.12a.72.72,0,1,0-.72-.72A.72.72,0,0,0,300.2,356.12Z" style="fill:#263238"></path><path d="M293,361.88a.72.72,0,1,0,.72.72A.72.72,0,0,0,293,361.88Z" style="fill:#263238"></path><path d="M293,348.92a.74.74,0,0,0,.63-.38l-1.32-.22A.71.71,0,0,0,293,348.92Z" style="fill:#263238"></path><path d="M286.52,369.8a.82.82,0,0,0,0-.28.73.73,0,0,0-.67-.44v.72Z" style="fill:#263238"></path><path d="M285.8,354.68v1.44a.72.72,0,1,0,0-1.44Z" style="fill:#263238"></path><path d="M293,390.68a.72.72,0,1,0,.72.72A.72.72,0,0,0,293,390.68Z" style="fill:#263238"></path><path d="M293,376.28a.72.72,0,1,0,.72.72A.72.72,0,0,0,293,376.28Z" style="fill:#263238"></path><path d="M286.52,384.2a.72.72,0,0,0-.72-.72v1.44A.72.72,0,0,0,286.52,384.2Z" style="fill:#263238"></path><path d="M299.48,369.8a.67.67,0,0,0,.06.28l0-.28Z" style="fill:#263238"></path><path d="M285.8,369.8v.72a.72.72,0,0,0,.72-.72Z" style="fill:#263238"></path><path d="M285.8,369.08a.87.87,0,0,0-.28.05.73.73,0,0,0-.38.39.64.64,0,0,0-.06.28h.72Z" style="fill:#263238"></path><path d="M272.07,369.52a.73.73,0,0,0-.67-.44.71.71,0,0,0-.66.44.64.64,0,0,0-.06.28h1.44A.82.82,0,0,0,272.07,369.52Z" style="fill:#263238"></path><path d="M285.52,354.73a.73.73,0,0,0-.44.67.71.71,0,0,0,.44.66.67.67,0,0,0,.28.06v-1.44A.87.87,0,0,0,285.52,354.73Z" style="fill:#263238"></path><path d="M271.4,354.68a.72.72,0,1,0,.72.72A.72.72,0,0,0,271.4,354.68Z" style="fill:#263238"></path><path d="M264.2,361.88a.72.72,0,1,0,.72.72A.72.72,0,0,0,264.2,361.88Z" style="fill:#263238"></path><path d="M278.6,361.88a.72.72,0,1,0,.72.72A.72.72,0,0,0,278.6,361.88Z" style="fill:#263238"></path><path d="M264.2,347.48a.72.72,0,1,0,.72.72A.72.72,0,0,0,264.2,347.48Z" style="fill:#263238"></path><path d="M278.6,347.48a.72.72,0,1,0,.72.72A.72.72,0,0,0,278.6,347.48Z" style="fill:#263238"></path><path d="M257.72,369.8a.82.82,0,0,0-.05-.28.63.63,0,0,0-.16-.23.72.72,0,0,0-.51-.21v.72Z" style="fill:#263238"></path><path d="M257.51,354.89a.72.72,0,0,0-.51-.21v1.44a.72.72,0,0,0,.51-1.23Z" style="fill:#263238"></path><path d="M285.8,383.48a.87.87,0,0,0-.28,0,.72.72,0,0,0,0,1.33.67.67,0,0,0,.28.06Z" style="fill:#263238"></path><path d="M271.4,383.48a.72.72,0,1,0,.72.72A.72.72,0,0,0,271.4,383.48Z" style="fill:#263238"></path><path d="M264.2,390.68a.72.72,0,1,0,.72.72A.72.72,0,0,0,264.2,390.68Z" style="fill:#263238"></path><path d="M278.6,390.68a.72.72,0,1,0,.72.72A.72.72,0,0,0,278.6,390.68Z" style="fill:#263238"></path><path d="M264.2,376.28a.72.72,0,1,0,.72.72A.72.72,0,0,0,264.2,376.28Z" style="fill:#263238"></path><path d="M278.6,376.28a.72.72,0,1,0,.72.72A.72.72,0,0,0,278.6,376.28Z" style="fill:#263238"></path><path d="M257,383.48v1.44a.72.72,0,1,0,0-1.44Z" style="fill:#263238"></path><path d="M285.08,369.8a.72.72,0,0,0,.44.66.67.67,0,0,0,.28.06v-.72Z" style="fill:#263238"></path><path d="M270.68,369.8a.72.72,0,1,0,1.44,0Z" style="fill:#263238"></path><path d="M257,369.8v.72a.72.72,0,0,0,.72-.72Z" style="fill:#263238"></path><path d="M243.27,340.72a.76.76,0,0,0-.37-.38l-.35,0a.7.7,0,0,0-.61.43.64.64,0,0,0-.06.28h1.44A.82.82,0,0,0,243.27,340.72Z" style="fill:#263238"></path><path d="M257,369.08a.71.71,0,0,0-.66.44.64.64,0,0,0-.06.28H257Z" style="fill:#263238"></path><path d="M243.27,369.52a.73.73,0,0,0-.67-.44.71.71,0,0,0-.66.44.64.64,0,0,0-.06.28h1.44A.82.82,0,0,0,243.27,369.52Z" style="fill:#263238"></path><path d="M256.28,355.4a.72.72,0,0,0,.72.72v-1.44A.72.72,0,0,0,256.28,355.4Z" style="fill:#263238"></path><path d="M242.6,354.68a.72.72,0,1,0,.72.72A.72.72,0,0,0,242.6,354.68Z" style="fill:#263238"></path><path d="M235.4,361.88a.72.72,0,1,0,.72.72A.72.72,0,0,0,235.4,361.88Z" style="fill:#263238"></path><path d="M249.8,363.32a.72.72,0,1,0-.72-.72A.72.72,0,0,0,249.8,363.32Z" style="fill:#263238"></path><path d="M235.4,348.92a.72.72,0,1,0-.72-.72A.72.72,0,0,0,235.4,348.92Z" style="fill:#263238"></path><path d="M249.08,348.2a.72.72,0,1,0,.72-.72A.72.72,0,0,0,249.08,348.2Z" style="fill:#263238"></path><path d="M242.6,341.72a.73.73,0,0,0,.67-.44.87.87,0,0,0,0-.28h-1.44a.67.67,0,0,0,.06.28A.71.71,0,0,0,242.6,341.72Z" style="fill:#263238"></path><path d="M256.28,384.2a.72.72,0,0,0,.72.72v-1.44A.72.72,0,0,0,256.28,384.2Z" style="fill:#263238"></path><path d="M242.6,383.48a.72.72,0,1,0,.72.72A.72.72,0,0,0,242.6,383.48Z" style="fill:#263238"></path><path d="M234.68,377a.72.72,0,1,0,.72-.72A.72.72,0,0,0,234.68,377Z" style="fill:#263238"></path><path d="M249.08,377a.72.72,0,1,0,.72-.72A.72.72,0,0,0,249.08,377Z" style="fill:#263238"></path><path d="M228.92,384.2a.72.72,0,0,0-.72-.72v1.44A.72.72,0,0,0,228.92,384.2Z" style="fill:#263238"></path><path d="M256.28,369.8a.72.72,0,0,0,.72.72v-.72Z" style="fill:#263238"></path><path d="M241.88,369.8a.72.72,0,1,0,1.44,0Z" style="fill:#263238"></path><path d="M228.2,383.48a.82.82,0,0,0-.31.07l-.19,1.16a.71.71,0,0,0,.5.21Z" style="fill:#263238"></path><polygon points="257.56 391.51 268.75 393.32 275.96 345.68 264.77 343.88 257.56 391.51" style="fill:#fff;stroke:#263238;stroke-linecap:round;stroke-linejoin:round"></polygon><path d="M300.89,377.35s-3.63,8.94-4.74,9.78-7.55-.56-16.77-2.24-12.57-1.95-12.57.84,7.26,5.59,13.69,8.66,15.37,4.75,17.6,4.47,5.87-5.3,7.26-8.66,3.36-7.26,3.36-7.26" style="fill:#bdbdbd;stroke:#263238;stroke-linecap:round;stroke-linejoin:round"></path><path d="M268.33,344.67s-9.33-5.67-16-9.34-13-1.33-17-.66-1.66,2.66,8.34,6S268.33,344.67,268.33,344.67Z" style="fill:#fff;stroke:#263238;stroke-linecap:round;stroke-linejoin:round"></path><path d="M268.33,344.67s9-2.34,18.67-4.34,10,4.34,6,5.67a23.57,23.57,0,0,1-9,.67Z" style="fill:#fff;stroke:#263238;stroke-linecap:round;stroke-linejoin:round"></path><path d="M308.44,369.25s-16.49-2-20.12-2.51-11.38-3.45-12.95-.61-1,4.8,4,6.75,19.84,7,24.31,7.82,7.26-.28,8.1-3.35a20.36,20.36,0,0,0,.28-7" style="fill:#bdbdbd;stroke:#263238;stroke-linecap:round;stroke-linejoin:round"></path><path d="M112.3,382.68s1.8-2.71,6.32-2.71,13.08,10.83,19.85,14.89,7.22,4.52,5.87,7.23-.45,7.67-5.87,6.76-19.4-9.92-22.56-14S111.85,385.39,112.3,382.68Z" style="fill:#263238;stroke:#263238;stroke-linecap:round;stroke-linejoin:round"></path><path d="M130,368.67s1.67-9.34-.33-14.67S125,341.33,125,337V320.33c0-5-3-6.33-5.33-1.66s-.67,10-.67,13.33-3.33,9.33-4,11.67,7,14.66,9.33,20S129.67,370.33,130,368.67Z" style="fill:#bdbdbd;stroke:#263238;stroke-linecap:round;stroke-linejoin:round"></path><path d="M119.07,394.41s-2.71-14.44-3.16-18.5-9.48-21.21-12.18-25.72-5.42-8.13-4.07-11.28,5-21.21,7.22-23,11.65-8.17,14.14-9.23c3.35-1.44,3.61,2.15,2.71,3.51s-7.66,5.42-7.66,5.42L111,320.4a71.18,71.18,0,0,1,6.77-3.61c2.25-.9,10.83-4.51,14-5s5.42,1.8,2.26,5-13.54,7.67-15.34,8.13-2.71,6.76-3.61,8.57,6.32-5.42,9-6.77,14.44-5,13.54-1.35-9.93,5.86-11.73,7.22-5.42,9.93-5.42,9.93a21.5,21.5,0,0,1,8.13-3.16c4.06-.45,7.67-3.16,6.77.45s-6.77,4.51-8.58,5.41-4.07,5.45-4.07,5.45,7.23,9.9,7.68,15.31a57.89,57.89,0,0,1-.9,12.64L134,407.05Z" style="fill:#bdbdbd;stroke:#263238;stroke-linecap:round;stroke-linejoin:round"></path><line x1="110.95" y1="320.4" x2="107.34" y2="333.04" style="fill:#fff;stroke:#263238;stroke-linecap:round;stroke-linejoin:round"></line><line x1="115.01" y1="333.49" x2="113" y2="339" style="fill:#fff;stroke:#263238;stroke-linecap:round;stroke-linejoin:round"></line><path d="M96.66,466h36.91c2.77-4.63,6.71-13.53,6.71-29.62,0-18.05,1.35-22.56,3.61-29.33s-1.81-5-1.81-5a217.27,217.27,0,0,1-21.66-10.84c-9-5.41-8.12-8.57-8.12-8.57a63,63,0,0,0-1.81,7.67c-.9,5-5.41,29.34-10.37,42s-5.87,17.6-5.87,17.6-.9,2.71.45,9.93A26.8,26.8,0,0,0,96.66,466Z" style="fill:#FEC56B"></path><path d="M96.66,466h36.91c2.77-4.63,6.71-13.53,6.71-29.62,0-18.05,1.35-22.56,3.61-29.33s-1.81-5-1.81-5a217.27,217.27,0,0,1-21.66-10.84c-9-5.41-8.12-8.57-8.12-8.57a63,63,0,0,0-1.81,7.67c-.9,5-5.41,29.34-10.37,42s-5.87,17.6-5.87,17.6-.9,2.71.45,9.93A26.8,26.8,0,0,0,96.66,466Z" style="fill:#fff;opacity:0.4"></path><path d="M135,463.29c7.53-15.36,3.38-32.36,6.67-48.53.66-3.25,5-11.53,1.16-12.88a124.68,124.68,0,0,1-15.13-6.58c-4-2.06-15.82-6.72-15.44-12.62-3.23,10.22-4.32,21.28-6.85,31.7C102,425,99,435,95,445c-2,6-1.91,14.77,1.66,21" style="fill:none;stroke:#263238;stroke-linecap:round;stroke-linejoin:round"></path></g></svg>